<mxfile modified="2023-03-08T22:37:48.903Z" host="app.diagrams.net" agent="5.0 (Windows)" etag="yIeH9MrGUu10oZgZl_fy" version="16.6.4" type="github">
  <diagram id="WI9T0HZ2pTsCkuznbFz-" name="Page-1">
    <mxGraphModel dx="2062" dy="1112" grid="1" gridSize="10" guides="1" tooltips="1" connect="1" arrows="1" fold="1" page="1" pageScale="1" pageWidth="1169" pageHeight="827" math="0" shadow="0">
      <root>
        <mxCell id="0" />
        <mxCell id="1" parent="0" />
        <mxCell id="7BHZPBbnNzFtBdcpdKT6-12" value="&amp;nbsp;Rest " style="edgeStyle=orthogonalEdgeStyle;orthogonalLoop=1;jettySize=auto;html=1;exitX=1;exitY=0.5;exitDx=0;exitDy=0;entryX=0;entryY=0.5;entryDx=0;entryDy=0;fontSize=20;fontColor=#0066CC;fillColor=#1ba1e2;strokeColor=#006EAF;curved=1;" edge="1" parent="1" source="7BHZPBbnNzFtBdcpdKT6-5" target="7BHZPBbnNzFtBdcpdKT6-22">
          <mxGeometry relative="1" as="geometry">
            <mxPoint x="820" y="480" as="targetPoint" />
          </mxGeometry>
        </mxCell>
        <mxCell id="7BHZPBbnNzFtBdcpdKT6-13" style="edgeStyle=orthogonalEdgeStyle;orthogonalLoop=1;jettySize=auto;html=1;exitX=1;exitY=0.25;exitDx=0;exitDy=0;entryX=0;entryY=0.5;entryDx=0;entryDy=0;fontSize=20;fontColor=#0066CC;fillColor=#b1ddf0;strokeColor=#10739e;curved=1;" edge="1" parent="1" source="7BHZPBbnNzFtBdcpdKT6-5" target="7BHZPBbnNzFtBdcpdKT6-9">
          <mxGeometry relative="1" as="geometry" />
        </mxCell>
        <mxCell id="7BHZPBbnNzFtBdcpdKT6-14" value="Rest" style="edgeLabel;html=1;align=center;verticalAlign=middle;resizable=0;points=[];fontSize=20;fontColor=#0066CC;" vertex="1" connectable="0" parent="7BHZPBbnNzFtBdcpdKT6-13">
          <mxGeometry x="0.3571" y="-10" relative="1" as="geometry">
            <mxPoint as="offset" />
          </mxGeometry>
        </mxCell>
        <mxCell id="7BHZPBbnNzFtBdcpdKT6-16" style="edgeStyle=orthogonalEdgeStyle;curved=1;orthogonalLoop=1;jettySize=auto;html=1;exitX=1;exitY=0.25;exitDx=0;exitDy=0;entryX=0;entryY=0.5;entryDx=0;entryDy=0;fontSize=20;fontColor=#0066CC;fillColor=#b1ddf0;strokeColor=#10739e;" edge="1" parent="1" source="7BHZPBbnNzFtBdcpdKT6-5" target="7BHZPBbnNzFtBdcpdKT6-15">
          <mxGeometry relative="1" as="geometry" />
        </mxCell>
        <mxCell id="7BHZPBbnNzFtBdcpdKT6-17" value="Soap" style="edgeLabel;html=1;align=center;verticalAlign=middle;resizable=0;points=[];fontSize=20;fontColor=#0066CC;" vertex="1" connectable="0" parent="7BHZPBbnNzFtBdcpdKT6-16">
          <mxGeometry x="0.176" y="-25" relative="1" as="geometry">
            <mxPoint as="offset" />
          </mxGeometry>
        </mxCell>
        <mxCell id="7BHZPBbnNzFtBdcpdKT6-5" value="ModernaNet" style="swimlane;fillColor=#b1ddf0;strokeColor=#10739e;fontColor=#007FFF;fontSize=20;spacing=3;spacingBottom=3;gradientColor=none;swimlaneFillColor=none;strokeWidth=1;perimeterSpacing=5;glass=0;rounded=1;" vertex="1" parent="1">
          <mxGeometry y="110" width="580" height="380" as="geometry">
            <mxRectangle x="180" y="124" width="150" height="30" as="alternateBounds" />
          </mxGeometry>
        </mxCell>
        <mxCell id="7BHZPBbnNzFtBdcpdKT6-2" value="C# 7.3" style="shape=image;verticalLabelPosition=bottom;labelBackgroundColor=#ffffff;verticalAlign=top;aspect=fixed;imageAspect=0;image=data:image/svg+xml,PHN2ZyB4bWxuczpjYz0iaHR0cDovL2NyZWF0aXZlY29tbW9ucy5vcmcvbnMjIiB4bWxuczpkYz0iaHR0cDovL3B1cmwub3JnL2RjL2VsZW1lbnRzLzEuMS8iIHhtbG5zOmlua3NjYXBlPSJodHRwOi8vd3d3Lmlua3NjYXBlLm9yZy9uYW1lc3BhY2VzL2lua3NjYXBlIiB4bWxuczpyZGY9Imh0dHA6Ly93d3cudzMub3JnLzE5OTkvMDIvMjItcmRmLXN5bnRheC1ucyMiIHhtbG5zOnNvZGlwb2RpPSJodHRwOi8vc29kaXBvZGkuc291cmNlZm9yZ2UubmV0L0RURC9zb2RpcG9kaS0wLmR0ZCIgeG1sbnM6c3ZnPSJodHRwOi8vd3d3LnczLm9yZy8yMDAwL3N2ZyIgeG1sbnM9Imh0dHA6Ly93d3cudzMub3JnLzIwMDAvc3ZnIiB4bWxuczp4bGluaz0iaHR0cDovL3d3dy53My5vcmcvMTk5OS94bGluayIgdmVyc2lvbj0iMS4xIiBpZD0ic3ZnMTQyMzE5IiBpbmtzY2FwZTp2ZXJzaW9uPSIwLjkyLjMgKDI0MDU1NDYsIDIwMTgtMDMtMTEpIiBzb2RpcG9kaTpkb2NuYW1lPSJjc2hhcnBfMi5zdmciIHg9IjBweCIgeT0iMHB4IiB2aWV3Qm94PSIwIDAgOTcuNzIgNzEuNTUiIHN0eWxlPSJlbmFibGUtYmFja2dyb3VuZDpuZXcgMCAwIDk3LjcyIDcxLjU1OyIgeG1sOnNwYWNlPSJwcmVzZXJ2ZSI+JiN4YTs8c29kaXBvZGk6bmFtZWR2aWV3IGJvcmRlcmNvbG9yPSIjNjY2NjY2IiBib3JkZXJvcGFjaXR5PSIxIiBmaXQtbWFyZ2luLWJvdHRvbT0iMCIgZml0LW1hcmdpbi1sZWZ0PSIwIiBmaXQtbWFyZ2luLXJpZ2h0PSIwIiBmaXQtbWFyZ2luLXRvcD0iMCIgZ3JpZHRvbGVyYW5jZT0iMTAiIGd1aWRldG9sZXJhbmNlPSIxMCIgaWQ9Im5hbWVkdmlldzE0MjMyMSIgaW5rc2NhcGU6Y3VycmVudC1sYXllcj0ic3ZnMTQyMzE5IiBpbmtzY2FwZTpjeD0iNjUuMTQzMTk4IiBpbmtzY2FwZTpjeT0iNDcuNjk5NzE3IiBpbmtzY2FwZTpwYWdlb3BhY2l0eT0iMCIgaW5rc2NhcGU6cGFnZXNoYWRvdz0iMiIgaW5rc2NhcGU6d2luZG93LWhlaWdodD0iMTAxNyIgaW5rc2NhcGU6d2luZG93LW1heGltaXplZD0iMSIgaW5rc2NhcGU6d2luZG93LXdpZHRoPSIxOTIwIiBpbmtzY2FwZTp3aW5kb3cteD0iLTgiIGlua3NjYXBlOndpbmRvdy15PSItOCIgaW5rc2NhcGU6em9vbT0iOS4wODgwMzIiIG9iamVjdHRvbGVyYW5jZT0iMTAiIHBhZ2Vjb2xvcj0iI2ZmZmZmZiIgc2hvd2dyaWQ9ImZhbHNlIj4mI3hhOwk8L3NvZGlwb2RpOm5hbWVkdmlldz4mI3hhOzxnIGlkPSJnMTQyMzE3IiB0cmFuc2Zvcm09InRyYW5zbGF0ZSgwLC04LjQwNzE0NjllLTUpIj4mI3hhOwk8dGl0bGUgaWQ9InRpdGxlMTQyMjg0Ij5QYWdlLTE8L3RpdGxlPiYjeGE7CTxnIGlkPSJncm91cDk4NS0xIj4mI3hhOwkJPHRpdGxlIGlkPSJ0aXRsZTE0MjI4NiI+Q1NoYXJwPC90aXRsZT4mI3hhOwkJPGcgaWQ9InNoYXBlOTg2LTIiPiYjeGE7CQkJPHRpdGxlIGlkPSJ0aXRsZTE0MjI4OCI+U2hlZXQuOTg2PC90aXRsZT4mI3hhOwkJCTxwYXRoIGlkPSJwYXRoMTQyMjkwIiBpbmtzY2FwZTpjb25uZWN0b3ItY3VydmF0dXJlPSIwIiBzdHlsZT0iZmlsbDojM0Y1NzY1OyIgZD0iTTkzLjk5LDBDMy42MSwwLDMuNjEsMCwzLjYxLDAgICAgIEMwLjYsMCwwLDAuNzIsMCwzLjcyYzAsNjQuMjMsMCw2NC4yMywwLDY0LjIzYzAsMywwLjYsMy42LDMuNjEsMy42YzkwLjM4LDAsOTAuMzgsMCw5MC4zOCwwYzMuMTIsMCwzLjczLTAuNiwzLjczLTMuNiAgICAgYzAtNjQuMjMsMC02NC4yMywwLTY0LjIzQzk3LjcyLDAuNzIsOTcuMTEsMCw5My45OSwweiIvPiYjeGE7CQk8L2c+JiN4YTsJCTxnIGlkPSJzaGFwZTk4Ny00IiB0cmFuc2Zvcm09InRyYW5zbGF0ZSg5MC45NjUxLC02Ni4yNDc4KSI+JiN4YTsJCQk8dGl0bGUgaWQ9InRpdGxlMTQyMjkzIj5TaGVldC45ODc8L3RpdGxlPiYjeGE7CQkJPHBhdGggaWQ9InBhdGgxNDIyOTUiIGlua3NjYXBlOmNvbm5lY3Rvci1jdXJ2YXR1cmU9IjAiIHN0eWxlPSJmaWxsOiNGRjAwMDA7IiBkPSJNNC4xMyw2OS41MWMwLDEuMTctMC45MiwyLjA0LTIuMDQsMi4wNCAgICAgUzAsNzAuNjgsMCw2OS41MWMwLTEuMTIsMC45Ny0yLjAzLDIuMDktMi4wM1M0LjEzLDY4LjM5LDQuMTMsNjkuNTF6Ii8+JiN4YTsJCTwvZz4mI3hhOwkJPGcgaWQ9InNoYXBlOTg4LTYiIHRyYW5zZm9ybT0idHJhbnNsYXRlKDIuMDk1MTksLTMuMzA2MjMpIj4mI3hhOwkJCTx0aXRsZSBpZD0idGl0bGUxNDIyOTgiPlNoZWV0Ljk4ODwvdGl0bGU+JiN4YTsJCQk8cGF0aCBpZD0icGF0aDE0MjMwMCIgaW5rc2NhcGU6Y29ubmVjdG9yLWN1cnZhdHVyZT0iMCIgc3R5bGU9ImZpbGw6IzAwQjBGMDsiIGQ9Ik0wLDEyLjQxdjU5LjE0aDkzLjA0VjEyLjQxSDB6Ii8+JiN4YTsJCTwvZz4mI3hhOwkJPGcgaWQ9Imdyb3VwOTg5LTgiIHRyYW5zZm9ybT0idHJhbnNsYXRlKDI2LjExNjcsLTE2LjMyNTcpIj4mI3hhOwkJCTx0aXRsZSBpZD0idGl0bGUxNDIzMDMiPlNoZWV0Ljk4OTwvdGl0bGU+JiN4YTsJCQk8ZyBpZD0ic2hhcGU5OTAtOSI+JiN4YTsJCQkJPHRpdGxlIGlkPSJ0aXRsZTE0MjMwNSI+U2hlZXQuOTkwPC90aXRsZT4mI3hhOwkJCQk8cGF0aCBpZD0icGF0aDE0MjMwNyIgaW5rc2NhcGU6Y29ubmVjdG9yLWN1cnZhdHVyZT0iMCIgc3R5bGU9ImZpbGw6I0ZGRkZGRjsiIGQ9Ik0yNC40Myw2OS43NmMtMi4zNiwxLjIyLTUuMzYsMS43OS05LDEuNzkgICAgICBjLTQuNzIsMC04LjM2LTEuNDMtMTEuMjItNC4zQzEuNSw2NC4yNCwwLDYwLjQ0LDAsNTUuNjRjMC01LjE1LDEuNTctOS4zMSw0LjcxLTEyLjQ2YzMuMTUtMy4yMyw3LjA4LTQuNzMsMTEuODYtNC43MyAgICAgIGMzLjA3LDAsNS43MiwwLjQzLDcuNjQsMS4zNnY1LjNjLTIuMTQtMS4yOS00LjU3LTEuOTMtNy4yMS0xLjkzYy0zLjQzLDAtNi4yOSwxLjE0LTguNDMsMy4yOXMtMy4yMSw1LjE2LTMuMjEsOC45NiAgICAgIGMwLDMuNTEsMS4wNyw2LjMsMyw4LjQ1YzIuMDcsMi4wOCw0LjY0LDMuMDgsNy44NSwzLjA4YzMsMCw1LjY1LTAuNjQsNy45My0yLjE0djQuOTRIMjQuNDN6Ii8+JiN4YTsJCQk8L2c+JiN4YTsJCQk8ZyBpZD0ic2hhcGU5OTEtMTEiIHRyYW5zZm9ybT0idHJhbnNsYXRlKDI3LjA3MTQsLTYuODc4MjkpIj4mI3hhOwkJCQk8dGl0bGUgaWQ9InRpdGxlMTQyMzEwIj5TaGVldC45OTE8L3RpdGxlPiYjeGE7CQkJCTxwYXRoIGlkPSJwYXRoMTQyMzEyIiBpbmtzY2FwZTpjb25uZWN0b3ItY3VydmF0dXJlPSIwIiBzdHlsZT0iZmlsbDojRkZGRkZGOyIgZD0iTTE3LjUsNTguOTRsMC40My0yLjI5aC0zLjVsMS4xNC01LjczaC0yLjUgICAgICBsLTEuMTQsNS43M2gtNGwxLjE0LTUuNzNINi41bC0xLjE0LDUuNzNIMS42NGwtMC41LDIuMjloMy43OUw0LDYzLjUzSDAuNUwwLDY1LjgyaDMuNTdsLTEuMTQsNS43M2gyLjVsMS4xNC01LjczaDRsLTEuMTQsNS43MyAgICAgIGgyLjVsMS4xNC01LjczaDMuNzlsMC41Ny0yLjI5aC0zLjc5bDAuOTMtNC41OUgxNy41eiBNMTAuNSw2My41M2gtNGwwLjkzLTQuNTloNEwxMC41LDYzLjUzeiIvPiYjeGE7CQkJPC9nPiYjeGE7CQk8L2c+JiN4YTsJPC9nPiYjeGE7PC9nPiYjeGE7PC9zdmc+;comic=0;fontSize=16;strokeWidth=2;fontColor=#0066CC;" vertex="1" parent="7BHZPBbnNzFtBdcpdKT6-5">
          <mxGeometry x="30" y="50" width="136.11" height="100" as="geometry" />
        </mxCell>
        <mxCell id="7BHZPBbnNzFtBdcpdKT6-3" value=".NetFramework 4.7.2" style="shape=image;verticalLabelPosition=bottom;labelBackgroundColor=#ffffff;verticalAlign=top;aspect=fixed;imageAspect=0;image=data:image/svg+xml,PHN2ZyB4bWxuczpjYz0iaHR0cDovL2NyZWF0aXZlY29tbW9ucy5vcmcvbnMjIiB4bWxuczpkYz0iaHR0cDovL3B1cmwub3JnL2RjL2VsZW1lbnRzLzEuMS8iIHhtbG5zOmlua3NjYXBlPSJodHRwOi8vd3d3Lmlua3NjYXBlLm9yZy9uYW1lc3BhY2VzL2lua3NjYXBlIiB4bWxuczpyZGY9Imh0dHA6Ly93d3cudzMub3JnLzE5OTkvMDIvMjItcmRmLXN5bnRheC1ucyMiIHhtbG5zOnNvZGlwb2RpPSJodHRwOi8vc29kaXBvZGkuc291cmNlZm9yZ2UubmV0L0RURC9zb2RpcG9kaS0wLmR0ZCIgeG1sbnM6c3ZnPSJodHRwOi8vd3d3LnczLm9yZy8yMDAwL3N2ZyIgeG1sbnM9Imh0dHA6Ly93d3cudzMub3JnLzIwMDAvc3ZnIiB4bWxuczp4bGluaz0iaHR0cDovL3d3dy53My5vcmcvMTk5OS94bGluayIgdmVyc2lvbj0iMS4xIiBpZD0ic3ZnMTczMTM3IiBpbmtzY2FwZTp2ZXJzaW9uPSIwLjkyLjMgKDI0MDU1NDYsIDIwMTgtMDMtMTEpIiBzb2RpcG9kaTpkb2NuYW1lPSJkb3RuZXRfZnJhbWV3b3JrLnN2ZyIgeD0iMHB4IiB5PSIwcHgiIHZpZXdCb3g9IjAgMCA0OCA0OCIgc3R5bGU9ImVuYWJsZS1iYWNrZ3JvdW5kOm5ldyAwIDAgNDggNDg7IiB4bWw6c3BhY2U9InByZXNlcnZlIj4mI3hhOzxzb2RpcG9kaTpuYW1lZHZpZXcgYm9yZGVyY29sb3I9IiM2NjY2NjYiIGJvcmRlcm9wYWNpdHk9IjEiIGZpdC1tYXJnaW4tYm90dG9tPSIwIiBmaXQtbWFyZ2luLWxlZnQ9IjAiIGZpdC1tYXJnaW4tcmlnaHQ9IjAiIGZpdC1tYXJnaW4tdG9wPSIwIiBncmlkdG9sZXJhbmNlPSIxMCIgZ3VpZGV0b2xlcmFuY2U9IjEwIiBpZD0ibmFtZWR2aWV3MTczMTM5IiBpbmtzY2FwZTpjdXJyZW50LWxheWVyPSJzdmcxNzMxMzciIGlua3NjYXBlOmN4PSIzMS41NTQ2MDkiIGlua3NjYXBlOmN5PSIzMS41NTQ2MDYiIGlua3NjYXBlOnBhZ2VvcGFjaXR5PSIwIiBpbmtzY2FwZTpwYWdlc2hhZG93PSIyIiBpbmtzY2FwZTp3aW5kb3ctaGVpZ2h0PSIxMDE3IiBpbmtzY2FwZTp3aW5kb3ctbWF4aW1pemVkPSIxIiBpbmtzY2FwZTp3aW5kb3ctd2lkdGg9IjE5MjAiIGlua3NjYXBlOndpbmRvdy14PSItOCIgaW5rc2NhcGU6d2luZG93LXk9Ii04IiBpbmtzY2FwZTp6b29tPSIxMi45NjE0NDUiIG9iamVjdHRvbGVyYW5jZT0iMTAiIHBhZ2Vjb2xvcj0iI2ZmZmZmZiIgc2hvd2dyaWQ9ImZhbHNlIj4mI3hhOwk8L3NvZGlwb2RpOm5hbWVkdmlldz4mI3hhOzxjaXJjbGUgaWQ9ImVsbGlwc2UxNzMwNjEiIHN0eWxlPSJmaWxsOiM1QzJEOTE7IiBjeD0iMjQiIGN5PSIyNCIgcj0iMjQiLz4mI3hhOzxwYXRoIGlkPSJwYXRoMTczMDY2IiBpbmtzY2FwZTpjb25uZWN0b3ItY3VydmF0dXJlPSIwIiBzdHlsZT0iZmlsbDojRkZGRkZGO2ZpbGwtb3BhY2l0eTowLjA5ODsiIGQ9Ik03LjM2LDYuNzUgIEMtMi41MywxNS41Ny0zLjQsMzAuNzQsNS40Miw0MC42NFMyOS40MSw1MS40LDM5LjMsNDIuNThjMC42OS0wLjYxLDEuMzQtMS4yNiwxLjk1LTEuOTVMNy4zNiw2Ljc1eiIvPiYjeGE7PHBhdGggaWQ9InBhdGgxNzMwNzEiIGlua3NjYXBlOmNvbm5lY3Rvci1jdXJ2YXR1cmU9IjAiIHN0eWxlPSJmaWxsOiNGRkZGRkY7IiBkPSJNNS41NSwyNy45NGMtMC4yOCwwLTAuNTYtMC4xMS0wLjc1LTAuMzIgIGMtMC4yLTAuMi0wLjMxLTAuNDctMC4zMS0wLjc1YzAtMC4yOCwwLjExLTAuNTUsMC4zMS0wLjc1QzUsMjUuOTEsNS4yNywyNS44LDUuNTUsMjUuOGMwLjI4LDAsMC41NSwwLjExLDAuNzUsMC4zMiAgYzAuMiwwLjIsMC4zMSwwLjQ3LDAuMzEsMC43NWMwLDAuMjgtMC4xMSwwLjU1LTAuMzEsMC43NUM2LjExLDI3LjgyLDUuODQsMjcuOTQsNS41NSwyNy45NHoiLz4mI3hhOzxwYXRoIGlkPSJwYXRoMTczMDc2IiBpbmtzY2FwZTpjb25uZWN0b3ItY3VydmF0dXJlPSIwIiBzdHlsZT0iZmlsbDojRkZGRkZGOyIgZD0iTTIwLjQ1LDI3Ljc1aC0xLjk3bC03LjAyLTEwLjkxICBjLTAuMTgtMC4yNy0wLjMyLTAuNTUtMC40NC0wLjg1aC0wLjA2YzAuMDcsMC42MiwwLjA5LDEuMjUsMC4wOCwxLjg3djkuODloLTEuNlYxNC4wOGgyLjA4bDYuODQsMTAuNzEgIGMwLjI4LDAuNDQsMC40NywwLjc1LDAuNTUsMC45MWgwLjA0Yy0wLjA4LTAuNjctMC4xMS0xLjM0LTAuMS0yLjAxdi05LjYxaDEuNlYyNy43NXoiLz4mI3hhOzxwYXRoIGlkPSJwYXRoMTczMDgxIiBpbmtzY2FwZTpjb25uZWN0b3ItY3VydmF0dXJlPSIwIiBzdHlsZT0iZmlsbDojRkZGRkZGOyIgZD0iTTMxLjI3LDI3Ljc1SDI0VjE0LjA4aDYuOTN2MS40NGgtNS4zdjQuNTVoNC45NCAgdjEuNDRoLTQuOTR2NC43NGg1LjY0TDMxLjI3LDI3Ljc1eiIvPiYjeGE7PHBhdGggaWQ9InBhdGgxNzMwODYiIGlua3NjYXBlOmNvbm5lY3Rvci1jdXJ2YXR1cmU9IjAiIHN0eWxlPSJmaWxsOiNGRkZGRkY7IiBkPSJNNDIsMTUuNTJoLTMuOTd2MTIuMjNoLTEuNlYxNS41MkgzMi41di0xLjQ0SDQyICBWMTUuNTJ6Ii8+JiN4YTs8cGF0aCBpZD0icGF0aDE3MzA5MSIgaW5rc2NhcGU6Y29ubmVjdG9yLWN1cnZhdHVyZT0iMCIgc3R5bGU9ImZpbGw6I0YyRjJGMjsiIGQ9Ik02Ljc1LDMwLjlWMzNoMS45NHYwLjMzSDYuNzV2Mi40NUg2LjM4di01LjI1ICBoMi40NXYwLjMzTDYuNzUsMzAuOXoiLz4mI3hhOzxwYXRoIGlkPSJwYXRoMTczMDk2IiBpbmtzY2FwZTpjb25uZWN0b3ItY3VydmF0dXJlPSIwIiBzdHlsZT0iZmlsbDojRjJGMkYyOyIgZD0iTTExLjc1LDMyLjQxYy0wLjEyLTAuMDgtMC4yNi0wLjEyLTAuNC0wLjEyICBjLTAuMzEsMC4wMS0wLjYsMC4xOC0wLjc1LDAuNDZjLTAuMjIsMC40LTAuMzMsMC44NS0wLjMsMS4zdjEuNzZIOS45N3YtMy43NWgwLjMzdjAuODNjMC4wNy0wLjI2LDAuMi0wLjQ5LDAuNC0wLjY3ICBjMC4xOC0wLjE2LDAuNDEtMC4yNCwwLjY0LTAuMjRjMC4xMywwLDAuMjYsMC4wMiwwLjM4LDAuMDdMMTEuNzUsMzIuNDF6Ii8+JiN4YTs8cGF0aCBpZD0icGF0aDE3MzEwMSIgaW5rc2NhcGU6Y29ubmVjdG9yLWN1cnZhdHVyZT0iMCIgc3R5bGU9ImZpbGw6I0YyRjJGMjsiIGQ9Ik0xNC44OSwzNS44MXYtMC43NWMtMC4xMiwwLjI1LTAuMywwLjQ3LTAuNTMsMC42MiAgYy0wLjIyLDAuMTUtMC40OCwwLjIzLTAuNzUsMC4yM2MtMC4zMSwwLjAyLTAuNjItMC4wOS0wLjg1LTAuM2MtMC4yLTAuMi0wLjMyLTAuNDctMC4zMS0wLjc1YzAtMC42NiwwLjQzLTEuMDUsMS4zLTEuMTlsMS4xNS0wLjE3ICBjMC0wLjgtMC4zLTEuMjEtMC45MS0xLjIxYy0wLjQ2LDAtMC45LDAuMTctMS4yNCwwLjQ4di0wLjRjMC4xNy0wLjEzLDAuMzYtMC4yMywwLjU2LTAuMjljMC4yMi0wLjA4LDAuNDUtMC4xMiwwLjY4LTAuMTIgIGMwLjM0LTAuMDIsMC42NiwwLjExLDAuODksMC4zNmMwLjIzLDAuMywwLjM0LDAuNjcsMC4zMSwxLjA1djIuNDNMMTQuODksMzUuODF6IE0xMy44NSwzMy45NGMtMC4yOSwwLjAyLTAuNTcsMC4xMS0wLjgyLDAuMjcgIGMtMC4zMSwwLjMzLTAuMzEsMC44NCwwLDEuMTZjMC4xNywwLjE1LDAuMzksMC4yMywwLjYxLDAuMjJjMC4zNCwwLjAxLDAuNjctMC4xMywwLjg5LTAuMzljMC4yNS0wLjI5LDAuMzgtMC42NiwwLjM2LTEuMDR2LTAuMzcgIEwxMy44NSwzMy45NHoiLz4mI3hhOzxwYXRoIGlkPSJwYXRoMTczMTA2IiBpbmtzY2FwZTpjb25uZWN0b3ItY3VydmF0dXJlPSIwIiBzdHlsZT0iZmlsbDojRjJGMkYyOyIgZD0iTTIxLjI0LDM1Ljgxdi0yLjI1YzAuMDMtMC4zNS0wLjA1LTAuNjktMC4yMy0wLjk5ICBjLTAuMTgtMC4yLTAuNDQtMC4zMS0wLjctMC4yOGMtMC4zLDAuMDEtMC41NywwLjE1LTAuNzUsMC4zOGMtMC4yMiwwLjI3LTAuMzQsMC42MS0wLjMzLDAuOTV2Mi4ySDE4Ljl2LTIuMjUgIGMwLTAuODQtMC4zMi0xLjI1LTAuOTYtMS4yNWMtMC4zLDAtMC41NywwLjE0LTAuNzUsMC4zOGMtMC4yMSwwLjI5LTAuMzIsMC42My0wLjMsMC45OXYyLjE2aC0wLjM0VjMyLjFoMC4zNHYwLjYyICBjMC4yLTAuNDUsMC42NC0wLjc1LDEuMTQtMC43NWMwLjI2LTAuMDEsMC41MSwwLjA4LDAuNzEsMC4yNGMwLjE5LDAuMTYsMC4zMywwLjM4LDAuMzksMC42MmMwLjEtMC4yNSwwLjI4LTAuNDcsMC41LTAuNjMgIGMwLjIxLTAuMTQsMC40Ni0wLjIyLDAuNzEtMC4yMmMwLjgyLDAsMS4yMywwLjUsMS4yMywxLjV2Mi4zMkwyMS4yNCwzNS44MXoiLz4mI3hhOzxwYXRoIGlkPSJwYXRoMTczMTExIiBpbmtzY2FwZTpjb25uZWN0b3ItY3VydmF0dXJlPSIwIiBzdHlsZT0iZmlsbDojRjJGMkYyOyIgZD0iTTIyLjk3LDMzLjk1Yy0wLjAzLDAuNDMsMC4xLDAuODYsMC4zNiwxLjIxICBjMC4yNCwwLjI5LDAuNjEsMC40NSwwLjk5LDAuNDNjMC40NS0wLjAxLDAuODgtMC4xNywxLjIzLTAuNDZ2MC4zNmMtMC4zOCwwLjI3LTAuODMsMC40Mi0xLjMsMC40MWMtMC40NSwwLjAxLTAuODgtMC4xOC0xLjE3LTAuNTIgIGMtMC4zMy0wLjQzLTAuNDktMC45Ni0wLjQ1LTEuNWMtMC4wMi0wLjUsMC4xNS0wLjk5LDAuNDYtMS4zOGMwLjMtMC4zNywwLjc1LTAuNTgsMS4yMi0wLjU2YzAuNDItMC4wMiwwLjgyLDAuMTYsMS4wNywwLjQ5ICBjMC4yNywwLjM5LDAuNCwwLjg2LDAuMzgsMS4zNHYwLjE1TDIyLjk3LDMzLjk1eiBNMjUuNCwzMy42NGMwLTAuMzYtMC4xMS0wLjcxLTAuMzItMWMtMC4xOS0wLjI1LTAuNDgtMC40LTAuOC0wLjM5ICBjLTAuMzItMC4wMS0wLjY0LDAuMTItMC44NiwwLjM1Yy0wLjI1LDAuMjgtMC40LDAuNjMtMC40MywxLjAxTDI1LjQsMzMuNjR6Ii8+JiN4YTs8cGF0aCBpZD0icGF0aDE3MzExNiIgaW5rc2NhcGU6Y29ubmVjdG9yLWN1cnZhdHVyZT0iMCIgc3R5bGU9ImZpbGw6I0YyRjJGMjsiIGQ9Ik0zMC4wNCwzNS44MWgtMC4zMkwyOC45MSwzMyAgYy0wLjAzLTAuMS0wLjA1LTAuMjEtMC4wNi0wLjMxYy0wLjAyLDAuMS0wLjA1LDAuMi0wLjA4LDAuM2wtMC45MSwyLjg0aC0wLjMybC0xLjEzLTMuNzVoMC4zN2wwLjg3LDNjMC4wMywwLjEsMC4wNSwwLjIxLDAuMDYsMC4zMSAgYzAuMDEtMC4xMSwwLjAzLTAuMjEsMC4wNi0wLjMxbDAuOTYtM2gwLjIzbDAuODUsM2MwLjAyLDAuMSwwLjA0LDAuMjEsMC4wNSwwLjMxYzAuMDEtMC4xMSwwLjAzLTAuMjEsMC4wNi0wLjMxbDAuODktM2gwLjM1ICBMMzAuMDQsMzUuODF6Ii8+JiN4YTs8cGF0aCBpZD0icGF0aDE3MzEyMSIgaW5rc2NhcGU6Y29ubmVjdG9yLWN1cnZhdHVyZT0iMCIgc3R5bGU9ImZpbGw6I0YyRjJGMjsiIGQ9Ik0zMy42NCwzNS45Yy0wLjQ5LDAuMDItMC45Ny0wLjE3LTEuMy0wLjU0ICBjLTAuNjYtMC44NC0wLjY2LTIuMDMsMC0yLjg3YzAuMzQtMC4zNSwwLjgyLTAuNTQsMS4zMS0wLjUyYzAuNDgtMC4wMywwLjk1LDAuMTcsMS4yNywwLjUyYzAuMzMsMC40MSwwLjQ5LDAuOTMsMC40NiwxLjQ1ICBjMC4wMywwLjUyLTAuMTQsMS4wMi0wLjQ3LDEuNDJDMzQuNTksMzUuNzIsMzQuMTIsMzUuOTIsMzMuNjQsMzUuOXogTTMzLjY0LDMyLjI4Yy0wLjQtMC4wMi0wLjc5LDAuMTUtMS4wNiwwLjQ1ICBjLTAuMjgsMC4zNS0wLjQyLDAuNzktMC40LDEuMjRjLTAuMDIsMC40MywwLjExLDAuODUsMC4zOCwxLjE5YzAuMjYsMC4zLDAuNjUsMC40NywxLjA1LDAuNDVjMC40LDAuMDIsMC43OS0wLjE0LDEuMDUtMC40NSAgYzAuNDgtMC43NSwwLjQ4LTEuNywwLTIuNDVjLTAuMjUtMC4zLTAuNjEtMC40Ni0xLTAuNDZMMzMuNjQsMzIuMjh6Ii8+JiN4YTs8cGF0aCBpZD0icGF0aDE3MzEyNiIgaW5rc2NhcGU6Y29ubmVjdG9yLWN1cnZhdHVyZT0iMCIgc3R5bGU9ImZpbGw6I0YyRjJGMjsiIGQ9Ik0zOC4yOSwzMi40MWMtMC4xMi0wLjA4LTAuMjYtMC4xMi0wLjQtMC4xMiAgYy0wLjMxLDAuMDEtMC42LDAuMTgtMC43NSwwLjQ2Yy0wLjIyLDAuNC0wLjMzLDAuODUtMC4zLDEuM3YxLjc2aC0wLjMydi0zLjc1aDAuMzN2MC44M2MwLjA4LTAuMjUsMC4yMi0wLjQ3LDAuNDItMC42NCAgYzAuMTgtMC4xNiwwLjQxLTAuMjQsMC42NS0wLjI0YzAuMTMsMCwwLjI2LDAuMDIsMC4zOCwwLjA3VjMyLjQxeiIvPiYjeGE7PHBhdGggaWQ9InBhdGgxNzMxMzEiIGlua3NjYXBlOmNvbm5lY3Rvci1jdXJ2YXR1cmU9IjAiIHN0eWxlPSJmaWxsOiNGMkYyRjI7IiBkPSJNNDEuMzMsMzUuODFsLTEuNzktMS44NXYxLjg1SDM5LjJ2LTUuNTVoMC4zNCAgdjMuNThsMS43MS0xLjc4aDAuNDNsLTEuNzgsMS44MWwxLjkyLDEuOTRMNDEuMzMsMzUuODF6Ii8+JiN4YTs8L3N2Zz4=;fontSize=16;fontColor=#0066CC;" vertex="1" parent="7BHZPBbnNzFtBdcpdKT6-5">
          <mxGeometry x="240" y="50" width="100" height="100" as="geometry" />
        </mxCell>
        <mxCell id="7BHZPBbnNzFtBdcpdKT6-6" value="MVC 5.2.7" style="shape=image;verticalLabelPosition=bottom;labelBackgroundColor=#ffffff;verticalAlign=top;aspect=fixed;imageAspect=0;image=data:image/svg+xml,PHN2ZyB4bWxuczpjYz0iaHR0cDovL2NyZWF0aXZlY29tbW9ucy5vcmcvbnMjIiB4bWxuczpkYz0iaHR0cDovL3B1cmwub3JnL2RjL2VsZW1lbnRzLzEuMS8iIHhtbG5zOmlua3NjYXBlPSJodHRwOi8vd3d3Lmlua3NjYXBlLm9yZy9uYW1lc3BhY2VzL2lua3NjYXBlIiB4bWxuczpyZGY9Imh0dHA6Ly93d3cudzMub3JnLzE5OTkvMDIvMjItcmRmLXN5bnRheC1ucyMiIHhtbG5zOnNvZGlwb2RpPSJodHRwOi8vc29kaXBvZGkuc291cmNlZm9yZ2UubmV0L0RURC9zb2RpcG9kaS0wLmR0ZCIgeG1sbnM6c3ZnPSJodHRwOi8vd3d3LnczLm9yZy8yMDAwL3N2ZyIgeG1sbnM9Imh0dHA6Ly93d3cudzMub3JnLzIwMDAvc3ZnIiB4bWxuczp4bGluaz0iaHR0cDovL3d3dy53My5vcmcvMTk5OS94bGluayIgdmVyc2lvbj0iMS4xIiBpZD0ic3ZnMTg0MjM2IiBpbmtzY2FwZTp2ZXJzaW9uPSIwLjkyLjMgKDI0MDU1NDYsIDIwMTgtMDMtMTEpIiBzb2RpcG9kaTpkb2NuYW1lPSJtdmMuc3ZnIiB4PSIwcHgiIHk9IjBweCIgdmlld0JveD0iMCAwIDU5LjI3IDM1Ljk3IiBzdHlsZT0iZW5hYmxlLWJhY2tncm91bmQ6bmV3IDAgMCA1OS4yNyAzNS45NzsiIHhtbDpzcGFjZT0icHJlc2VydmUiPiYjeGE7PHNvZGlwb2RpOm5hbWVkdmlldyBib3JkZXJjb2xvcj0iIzY2NjY2NiIgYm9yZGVyb3BhY2l0eT0iMSIgZml0LW1hcmdpbi1ib3R0b209IjAiIGZpdC1tYXJnaW4tbGVmdD0iMCIgZml0LW1hcmdpbi1yaWdodD0iMCIgZml0LW1hcmdpbi10b3A9IjAiIGdyaWR0b2xlcmFuY2U9IjEwIiBndWlkZXRvbGVyYW5jZT0iMTAiIGlkPSJuYW1lZHZpZXcxODQyMzgiIGlua3NjYXBlOmN1cnJlbnQtbGF5ZXI9InN2ZzE4NDIzNiIgaW5rc2NhcGU6Y3g9IjM5LjUxNjIxMiIgaW5rc2NhcGU6Y3k9IjIzLjk4MDk0OSIgaW5rc2NhcGU6cGFnZW9wYWNpdHk9IjAiIGlua3NjYXBlOnBhZ2VzaGFkb3c9IjIiIGlua3NjYXBlOndpbmRvdy1oZWlnaHQ9IjEwMTciIGlua3NjYXBlOndpbmRvdy1tYXhpbWl6ZWQ9IjEiIGlua3NjYXBlOndpbmRvdy13aWR0aD0iMTkyMCIgaW5rc2NhcGU6d2luZG93LXg9Ii04IiBpbmtzY2FwZTp3aW5kb3cteT0iLTgiIGlua3NjYXBlOnpvb209IjE3LjM5MTEzMiIgb2JqZWN0dG9sZXJhbmNlPSIxMCIgcGFnZWNvbG9yPSIjZmZmZmZmIiBzaG93Z3JpZD0iZmFsc2UiPiYjeGE7CTwvc29kaXBvZGk6bmFtZWR2aWV3PiYjeGE7PGcgaWQ9ImcxODQyMzQiIHRyYW5zZm9ybT0idHJhbnNsYXRlKC0xLjI2MjgyOTIsLTAuNzEwNzYxMjcpIj4mI3hhOwk8dGl0bGUgaWQ9InRpdGxlMTg0MTU5Ij5QYWdlLTE8L3RpdGxlPiYjeGE7CTxnIGlkPSJncm91cDc1NS0xIiB0cmFuc2Zvcm09InRyYW5zbGF0ZSgxLjUsLTEuNSkiPiYjeGE7CQk8dGl0bGUgaWQ9InRpdGxlMTg0MTYxIj5NVkM8L3RpdGxlPiYjeGE7CQk8ZyBpZD0ic2hhcGU3NTYtMiI+JiN4YTsJCQk8dGl0bGUgaWQ9InRpdGxlMTg0MTYzIj5wb2x5Z29uMjI4MTwvdGl0bGU+JiN4YTsJCQkmI3hhOwkJCQk8cGF0aCBpZD0icGF0aDE4NDE2NSIgaW5rc2NhcGU6Y29ubmVjdG9yLWN1cnZhdHVyZT0iMCIgc3R5bGU9ImZpbGw6IzU1NkE4QTtzdHJva2U6I0FBQjVDNTtzdHJva2Utd2lkdGg6MS41O3N0cm9rZS1taXRlcmxpbWl0OjM7IiBkPSIgICAgIE0yOS40LDE3Ljc5bDI5LjQsOS44bC0yOS40LDkuOEwwLDI3LjU5TDI5LjQsMTcuNzl6Ii8+JiN4YTsJCTwvZz4mI3hhOwkJPGcgaWQ9InNoYXBlNzU3LTQiIHRyYW5zZm9ybT0idHJhbnNsYXRlKDAsLTcuMzk0MzcpIj4mI3hhOwkJCTx0aXRsZSBpZD0idGl0bGUxODQxNjgiPnBvbHlnb24yMjgzPC90aXRsZT4mI3hhOwkJCSYjeGE7CQkJCTxwYXRoIGlkPSJwYXRoMTg0MTcwIiBpbmtzY2FwZTpjb25uZWN0b3ItY3VydmF0dXJlPSIwIiBzdHlsZT0iZmlsbDojNzY2MjkxO3N0cm9rZTojQUFCNUM1O3N0cm9rZS13aWR0aDoxLjU7c3Ryb2tlLW1pdGVybGltaXQ6MzsiIGQ9IiAgICAgTTI5LjQsMTcuNzlsMjkuNCw5LjhsLTI5LjQsOS44TDAsMjcuNTlMMjkuNCwxNy43OXoiLz4mI3hhOwkJPC9nPiYjeGE7CQk8ZyBpZD0ic2hhcGU3NTgtNiIgdHJhbnNmb3JtPSJ0cmFuc2xhdGUoMCwtMTQuNzg4NykiPiYjeGE7CQkJPHRpdGxlIGlkPSJ0aXRsZTE4NDE3MyI+cGF0aDIyODU8L3RpdGxlPiYjeGE7CQkJPHBhdGggaWQ9InBhdGgxODQxNzUiIGlua3NjYXBlOmNvbm5lY3Rvci1jdXJ2YXR1cmU9IjAiIHN0eWxlPSJmaWxsOiNGRkZGRkY7IiBkPSJNNTguOCwyNy41OWMtOS44MiwzLjE5LTE5LjYyLDYuNDgtMjkuNCw5LjggICAgIGMtOS43Mi0zLjQ3LTE5LjU3LTYuNjYtMjkuNC05LjhjOS44MS0zLjIzLDE5LjU5LTYuNTUsMjkuNC05LjhDMzkuMTksMjEuMDksNDkuMDIsMjQuMjgsNTguOCwyNy41OXoiLz4mI3hhOwkJPC9nPiYjeGE7CQk8ZyBpZD0ic2hhcGU3NTktOCIgdHJhbnNmb3JtPSJ0cmFuc2xhdGUoNi4zODU3NywtMjAuNzg3KSI+JiN4YTsJCQk8dGl0bGUgaWQ9InRpdGxlMTg0MTc4Ij5wYXRoMjI4NzwvdGl0bGU+JiN4YTsJCQk8cGF0aCBpZD0icGF0aDE4NDE4MCIgaW5rc2NhcGU6Y29ubmVjdG9yLWN1cnZhdHVyZT0iMCIgc3R5bGU9ImZpbGw6I0Q0REFFMjsiIGQ9Ik0zNC4yNiwyOC40OGMtOC42LDIuOTYtMTcuMiw1LjkzLTI1Ljc5LDguOTEgICAgIEM1LjY1LDM2LjQ2LDIuODIsMzUuNTMsMCwzNC42MWM4LjctMi45MywxNy4zOS01Ljg5LDI2LjA4LTguODJMMzQuMjYsMjguNDh6Ii8+JiN4YTsJCTwvZz4mI3hhOwkJPGcgaWQ9InNoYXBlNzYwLTEwIiB0cmFuc2Zvcm09InRyYW5zbGF0ZSgxNS45MDY4LC0xNy42MDQ1KSI+JiN4YTsJCQk8dGl0bGUgaWQ9InRpdGxlMTg0MTgzIj5wYXRoMjI4OTwvdGl0bGU+JiN4YTsJCQk8cGF0aCBpZD0icGF0aDE4NDE4NSIgaW5rc2NhcGU6Y29ubmVjdG9yLWN1cnZhdHVyZT0iMCIgc3R5bGU9ImZpbGw6I0FBQjVDNTsiIGQ9Ik0xNywzNC40MWMtMi44MywwLjk5LTUuNjYsMS45OC04LjUsMi45OCAgICAgQzUuNjcsMzYuNDQsMi44NCwzNS41LDAsMzQuNTZsOC40NS0yLjkzQzExLjMsMzIuNTUsMTQuMTUsMzMuNDgsMTcsMzQuNDF6Ii8+JiN4YTsJCTwvZz4mI3hhOwkJPGcgaWQ9InNoYXBlNzYxLTEyIiB0cmFuc2Zvcm09InRyYW5zbGF0ZSg0My4yMTg2LC0yMS42NTY2KSI+JiN4YTsJCQk8dGl0bGUgaWQ9InRpdGxlMTg0MTg4Ij5wYXRoMjI5MTwvdGl0bGU+JiN4YTsJCQk8cGF0aCBpZD0icGF0aDE4NDE5MCIgaW5rc2NhcGU6Y29ubmVjdG9yLWN1cnZhdHVyZT0iMCIgc3R5bGU9ImZpbGw6I0FBQjVDNTsiIGQ9Ik0xMy43OSwzNC43NWMtMi42NSwwLjg3LTUuMjksMS43NS03LjkzLDIuNjQgICAgIEwwLDM1LjVsNy44My0yLjcyQzEwLjg1LDMzLjc4LDEyLjE5LDM0LjIyLDEzLjc5LDM0Ljc1eiIvPiYjeGE7CQk8L2c+JiN4YTsJCTxnIGlkPSJzaGFwZTc2Mi0xNCIgdHJhbnNmb3JtPSJ0cmFuc2xhdGUoMjUuMDA3NywtMjAuODA3NykiPiYjeGE7CQkJPHRpdGxlIGlkPSJ0aXRsZTE4NDE5MyI+cGF0aDIyOTM8L3RpdGxlPiYjeGE7CQkJPHBhdGggaWQ9InBhdGgxODQxOTUiIGlua3NjYXBlOmNvbm5lY3Rvci1jdXJ2YXR1cmU9IjAiIHN0eWxlPSJmaWxsOiNENERBRTI7IiBkPSJNMjUuMTYsMzEuNjRjLTUuNTQsMS45MS0xMS4wNywzLjgzLTE2LjYsNS43NSAgICAgQzUuNzEsMzYuNDYsMi44NSwzNS41MywwLDM0LjZjNS41Ni0xLjkyLDExLjEyLTMuODQsMTYuNjgtNS43NkwyNS4xNiwzMS42NHoiLz4mI3hhOwkJPC9nPiYjeGE7CQk8ZyBpZD0ic2hhcGU3NjMtMTYiIHRyYW5zZm9ybT0idHJhbnNsYXRlKDI1LjI4ODcsLTE1LjQ2MzEpIj4mI3hhOwkJCTx0aXRsZSBpZD0idGl0bGUxODQxOTgiPnBhdGgyMjk1PC90aXRsZT4mI3hhOwkJCTxwYXRoIGlkPSJwYXRoMTg0MjAwIiBpbmtzY2FwZTpjb25uZWN0b3ItY3VydmF0dXJlPSIwIiBzdHlsZT0iZmlsbDojRDREQUUyOyIgZD0iTTIzLjE0LDMxLjQxYy01LjkxLDEuOTctMTEuODIsMy45Ni0xNy43Miw1Ljk4ICAgICBjLTEuMjUtMC40NC0yLjUtMC44Ny01LjQyLTEuODVjNS43Ni0yLjAzLDExLjUzLTQuMDQsMTcuMy02LjA0TDIzLjE0LDMxLjQxeiIvPiYjeGE7CQk8L2c+JiN4YTsJCTxnIGlkPSJzaGFwZTc2NC0xOCIgdHJhbnNmb3JtPSJ0cmFuc2xhdGUoMi44MzY0OCwtMjQuMTE3NSkiPiYjeGE7CQkJPHRpdGxlIGlkPSJ0aXRsZTE4NDIwMyI+cGF0aDIyOTc8L3RpdGxlPiYjeGE7CQkJPHBhdGggaWQ9InBhdGgxODQyMDUiIGlua3NjYXBlOmNvbm5lY3Rvci1jdXJ2YXR1cmU9IjAiIHN0eWxlPSJmaWxsOiNBQUI1QzU7IiBkPSJNNS42MiwzNi4xM2wtMy43NiwxLjI2TDAsMzYuOGwzLjc3LTEuMjYgICAgIEw1LjYyLDM2LjEzeiIvPiYjeGE7CQk8L2c+JiN4YTsJCTxnIGlkPSJzaGFwZTc2NS0yMCIgdHJhbnNmb3JtPSJ0cmFuc2xhdGUoOC4xNDU2MywtMjUuODk1MSkiPiYjeGE7CQkJPHRpdGxlIGlkPSJ0aXRsZTE4NDIwOCI+cGF0aDIyOTk8L3RpdGxlPiYjeGE7CQkJPHBhdGggaWQ9InBhdGgxODQyMTAiIGlua3NjYXBlOmNvbm5lY3Rvci1jdXJ2YXR1cmU9IjAiIHN0eWxlPSJmaWxsOiNBQUI1QzU7IiBkPSJNNi4wMiwzNS45OGwtNC4xNywxLjQxTDAsMzYuOGw0LjE4LTEuNCAgICAgTDYuMDIsMzUuOTh6Ii8+JiN4YTsJCTwvZz4mI3hhOwkJPGcgaWQ9InNoYXBlNzY2LTIyIiB0cmFuc2Zvcm09InRyYW5zbGF0ZSgxMy45NjM1LC0yNy44NTMxKSI+JiN4YTsJCQk8dGl0bGUgaWQ9InRpdGxlMTg0MjEzIj5wYXRoMjMwMTwvdGl0bGU+JiN4YTsJCQk8cGF0aCBpZD0icGF0aDE4NDIxNSIgaW5rc2NhcGU6Y29ubmVjdG9yLWN1cnZhdHVyZT0iMCIgc3R5bGU9ImZpbGw6I0FBQjVDNTsiIGQ9Ik02LjEyLDM1Ljk1bC00LjI4LDEuNDRMMCwzNi44bDQuMjktMS40NCAgICAgTDYuMTIsMzUuOTV6Ii8+JiN4YTsJCTwvZz4mI3hhOwkJPGcgaWQ9InNoYXBlNzY3LTI0IiB0cmFuc2Zvcm09InRyYW5zbGF0ZSgxOS44NzksLTI5Ljg1NTUpIj4mI3hhOwkJCTx0aXRsZSBpZD0idGl0bGUxODQyMTgiPnBhdGgyMzAzPC90aXRsZT4mI3hhOwkJCTxwYXRoIGlkPSJwYXRoMTg0MjIwIiBpbmtzY2FwZTpjb25uZWN0b3ItY3VydmF0dXJlPSIwIiBzdHlsZT0iZmlsbDojQUFCNUM1OyIgZD0iTTUuOSwzNi4wM2wtNC4wNywxLjM2TDAsMzYuOGw0LjA5LTEuMzggICAgIEw1LjksMzYuMDN6Ii8+JiN4YTsJCTwvZz4mI3hhOwkJPGcgaWQ9InNoYXBlNzY4LTI2IiB0cmFuc2Zvcm09InRyYW5zbGF0ZSgyNS40NjkyLC0zMS43MTg5KSI+JiN4YTsJCQk8dGl0bGUgaWQ9InRpdGxlMTg0MjIzIj5wYXRoMjMwNTwvdGl0bGU+JiN4YTsJCQk8cGF0aCBpZD0icGF0aDE4NDIyNSIgaW5rc2NhcGU6Y29ubmVjdG9yLWN1cnZhdHVyZT0iMCIgc3R5bGU9ImZpbGw6I0FBQjVDNTsiIGQ9Ik01LjM4LDM2LjE5bC0zLjU4LDEuMkwwLDM2LjhsMy42MS0xLjIxICAgICBMNS4zOCwzNi4xOXoiLz4mI3hhOwkJPC9nPiYjeGE7CQk8ZyBpZD0ic2hhcGU3NjktMjgiIHRyYW5zZm9ybT0idHJhbnNsYXRlKDAsLTE0Ljc4ODcpIj4mI3hhOwkJCTx0aXRsZSBpZD0idGl0bGUxODQyMjgiPnBvbHlnb24yMzA3PC90aXRsZT4mI3hhOwkJCSYjeGE7CQkJCTxwYXRoIGlkPSJwYXRoMTg0MjMwIiBpbmtzY2FwZTpjb25uZWN0b3ItY3VydmF0dXJlPSIwIiBzdHlsZT0iZmlsbDpub25lO3N0cm9rZTojQUFCNUM1O3N0cm9rZS13aWR0aDoxLjU7c3Ryb2tlLW1pdGVybGltaXQ6MzsiIGQ9IiAgICAgTTI5LjQsMTcuNzlsMjkuNCw5LjhsLTI5LjQsOS44TDAsMjcuNTlMMjkuNCwxNy43OXoiLz4mI3hhOwkJPC9nPiYjeGE7CTwvZz4mI3hhOzwvZz4mI3hhOzwvc3ZnPg==;comic=0;fontSize=16;fontColor=#0066CC;" vertex="1" parent="7BHZPBbnNzFtBdcpdKT6-5">
          <mxGeometry x="390" y="50" width="163.89" height="100" as="geometry" />
        </mxCell>
        <mxCell id="7BHZPBbnNzFtBdcpdKT6-21" value="Monolítico&lt;br&gt;Híbrido" style="html=1;whiteSpace=wrap;shape=isoCube2;backgroundOutline=1;isoAngle=15;rounded=1;glass=0;comic=0;fontSize=20;fontColor=#0066CC;strokeWidth=1;gradientColor=none;labelPosition=center;verticalLabelPosition=bottom;align=center;verticalAlign=top;" vertex="1" parent="7BHZPBbnNzFtBdcpdKT6-5">
          <mxGeometry x="53.05000000000001" y="204" width="90" height="100" as="geometry" />
        </mxCell>
        <mxCell id="7BHZPBbnNzFtBdcpdKT6-9" value="Integrações Terceiros" style="shape=image;verticalLabelPosition=bottom;labelBackgroundColor=#ffffff;verticalAlign=top;aspect=fixed;imageAspect=0;image=data:image/svg+xml,PHN2ZyB4bWxuczpkYz0iaHR0cDovL3B1cmwub3JnL2RjL2VsZW1lbnRzLzEuMS8iIHhtbG5zOmNjPSJodHRwOi8vY3JlYXRpdmVjb21tb25zLm9yZy9ucyMiIHhtbG5zOnJkZj0iaHR0cDovL3d3dy53My5vcmcvMTk5OS8wMi8yMi1yZGYtc3ludGF4LW5zIyIgeG1sbnM6c3ZnPSJodHRwOi8vd3d3LnczLm9yZy8yMDAwL3N2ZyIgeG1sbnM9Imh0dHA6Ly93d3cudzMub3JnLzIwMDAvc3ZnIiB4bWxuczpzb2RpcG9kaT0iaHR0cDovL3NvZGlwb2RpLnNvdXJjZWZvcmdlLm5ldC9EVEQvc29kaXBvZGktMC5kdGQiIHhtbG5zOmlua3NjYXBlPSJodHRwOi8vd3d3Lmlua3NjYXBlLm9yZy9uYW1lc3BhY2VzL2lua3NjYXBlIiB2ZXJzaW9uPSIxLjEiIGlkPSJMYXllcl8xIiB4PSIwcHgiIHk9IjBweCIgdmlld0JveD0iMCAwIDQ4IDQ3Ljk5OTk5OSIgeG1sOnNwYWNlPSJwcmVzZXJ2ZSIgc29kaXBvZGk6ZG9jbmFtZT0iYXBpLnN2ZyIgd2lkdGg9IjQ4IiBoZWlnaHQ9IjQ4IiBpbmtzY2FwZTp2ZXJzaW9uPSIwLjkyLjMgKDI0MDU1NDYsIDIwMTgtMDMtMTEpIj48bWV0YWRhdGEgaWQ9Im1ldGFkYXRhNzA1NiI+PHJkZjpSREY+PGNjOldvcmsgcmRmOmFib3V0PSIiPjxkYzpmb3JtYXQ+aW1hZ2Uvc3ZnK3htbDwvZGM6Zm9ybWF0PjxkYzp0eXBlIHJkZjpyZXNvdXJjZT0iaHR0cDovL3B1cmwub3JnL2RjL2RjbWl0eXBlL1N0aWxsSW1hZ2UiLz48ZGM6dGl0bGUvPjwvY2M6V29yaz48L3JkZjpSREY+PC9tZXRhZGF0YT48ZGVmcyBpZD0iZGVmczcwNTQiLz48c29kaXBvZGk6bmFtZWR2aWV3IHBhZ2Vjb2xvcj0iI2ZmZmZmZiIgYm9yZGVyY29sb3I9IiM2NjY2NjYiIGJvcmRlcm9wYWNpdHk9IjEiIG9iamVjdHRvbGVyYW5jZT0iMTAiIGdyaWR0b2xlcmFuY2U9IjEwIiBndWlkZXRvbGVyYW5jZT0iMTAiIGlua3NjYXBlOnBhZ2VvcGFjaXR5PSIwIiBpbmtzY2FwZTpwYWdlc2hhZG93PSIyIiBpbmtzY2FwZTp3aW5kb3ctd2lkdGg9IjE5MjAiIGlua3NjYXBlOndpbmRvdy1oZWlnaHQ9IjEwMTciIGlkPSJuYW1lZHZpZXc3MDUyIiBzaG93Z3JpZD0iZmFsc2UiIGZpdC1tYXJnaW4tdG9wPSIwIiBmaXQtbWFyZ2luLWxlZnQ9IjAiIGZpdC1tYXJnaW4tcmlnaHQ9IjAiIGZpdC1tYXJnaW4tYm90dG9tPSIwIiBpbmtzY2FwZTp6b29tPSI4LjAxODg2NzciIGlua3NjYXBlOmN4PSItMy41NzM3ODc2IiBpbmtzY2FwZTpjeT0iMTQuMDEyMDE4IiBpbmtzY2FwZTp3aW5kb3cteD0iLTgiIGlua3NjYXBlOndpbmRvdy15PSItOCIgaW5rc2NhcGU6d2luZG93LW1heGltaXplZD0iMSIgaW5rc2NhcGU6Y3VycmVudC1sYXllcj0iTGF5ZXJfMSIvPiYjeGE7PGcgaWQ9Imc3MDQ5IiB0cmFuc2Zvcm09InRyYW5zbGF0ZSgyLjNlLTQsMC43NDk3NykiPiYjeGE7CTx0aXRsZSBpZD0idGl0bGU3MDEwIj5QYWdlLTE8L3RpdGxlPiYjeGE7CTxnIGlkPSJncm91cDE3Ny0xIiB0cmFuc2Zvcm09InRyYW5zbGF0ZSg4LjMwOTc3LC0xLjUpIj4mI3hhOwkJPHRpdGxlIGlkPSJ0aXRsZTcwMTIiPkFQSTwvdGl0bGU+JiN4YTsJCTxnIGlkPSJzaGFwZTE3OC0yIiB0cmFuc2Zvcm09InRyYW5zbGF0ZSgwLC02LjgwOTc3KSI+JiN4YTsJCQk8dGl0bGUgaWQ9InRpdGxlNzAxNCI+cGF0aDY3MDM8L3RpdGxlPiYjeGE7CQkJPHBhdGggc3R5bGU9ImZpbGw6I2ZmZmZmZiIgZD0iTSAzOC45NCwzMS41NiBDIDM4Ljk0LDQ0LjQgMjguNTMsNTQuODEgMTUuNjksNTQuODEgMi44NSw1NC44MSAtNy41Niw0NC40IC03LjU2LDMxLjU2IC03LjU2LDE4LjcyIDIuODUsOC4zMSAxNS42OSw4LjMxIHYgMCBjIDEyLjg0LDAgMjMuMjUsMTAuNDEgMjMuMjUsMjMuMjUgeiIgaWQ9InBhdGg3MDE2IiBpbmtzY2FwZTpjb25uZWN0b3ItY3VydmF0dXJlPSIwIi8+JiN4YTsJCTwvZz4mI3hhOwkJPGcgaWQ9InNoYXBlMTc5LTQiIHRyYW5zZm9ybT0idHJhbnNsYXRlKDE2LjQ0MDIpIj4mI3hhOwkJCTx0aXRsZSBpZD0idGl0bGU3MDE5Ij5wYXRoNjcwNTwvdGl0bGU+JiN4YTsJCQk8cGF0aCBzdHlsZT0iZmlsbDojZTVlNWU1IiBkPSJNIDIyLjUsMjQuNzUgQyAyMi41LDM3LjU5IDEyLjA5LDQ4IC0wLjc1LDQ4IFYgMS41IGMgMTIuODQsMCAyMy4yNSwxMC40MSAyMy4yNSwyMy4yNSB6IiBpZD0icGF0aDcwMjEiIGlua3NjYXBlOmNvbm5lY3Rvci1jdXJ2YXR1cmU9IjAiLz4mI3hhOwkJPC9nPiYjeGE7CQk8ZyBpZD0ic2hhcGUxODAtNiIgdHJhbnNmb3JtPSJ0cmFuc2xhdGUoMCwtNi44MDk3NykiPiYjeGE7CQkJPHRpdGxlIGlkPSJ0aXRsZTcwMjQiPnBhdGg2NzA3PC90aXRsZT4mI3hhOwkJCTxwYXRoIHN0eWxlPSJmaWxsOm5vbmU7c3Ryb2tlOiM1NTZhOGE7c3Ryb2tlLXdpZHRoOjEuNTtzdHJva2UtbWl0ZXJsaW1pdDozIiBkPSJNIDM4Ljk0LDMxLjU2IEMgMzguOTQsNDQuNCAyOC41Myw1NC44MSAxNS42OSw1NC44MSAyLjg1LDU0LjgxIC03LjU2LDQ0LjQgLTcuNTYsMzEuNTYgLTcuNTYsMTguNzIgMi44NSw4LjMxIDE1LjY5LDguMzEgdiAwIGMgMTIuODQsMCAyMy4yNSwxMC40MSAyMy4yNSwyMy4yNSB6IiBpZD0icGF0aDcwMjYiIGlua3NjYXBlOmNvbm5lY3Rvci1jdXJ2YXR1cmU9IjAiLz4mI3hhOwkJPC9nPiYjeGE7CQk8ZyBpZD0ic2hhcGUxODEtOCIgdHJhbnNmb3JtPSJ0cmFuc2xhdGUoOC45NDAyMywtMTAuNDEpIj4mI3hhOwkJCTx0aXRsZSBpZD0idGl0bGU3MDI5Ij5wYXRoNjcwOTwvdGl0bGU+JiN4YTsJCQk8cGF0aCBzdHlsZT0iZmlsbDpub25lIiBkPSJtIC0wLjc1LDQ4IGMgMy4zNiwzLjk0IDkuMjgsNC40MSAxMy4yMiwxLjA1IDMuOTQsLTMuMzYgNC40MSwtOS4yOCAxLjA1LC0xMy4yMiAtMy4zNiwtMy45NCAtOS4yOCwtNC40MSAtMTMuMjIsLTEuMDUgLTAuMzgsMC4zMiAtMC43MywwLjY3IC0xLjA1LDEuMDUgeiIgaWQ9InBhdGg3MDMxIiBpbmtzY2FwZTpjb25uZWN0b3ItY3VydmF0dXJlPSIwIi8+JiN4YTsJCQk8cGF0aCBzdHlsZT0iZmlsbDpub25lO3N0cm9rZTojNTU2YThhO3N0cm9rZS13aWR0aDoxLjU7c3Ryb2tlLW1pdGVybGltaXQ6MyIgZD0ibSAtMC43NSw0OCBjIDMuMzYsMy45NCA5LjI4LDQuNDEgMTMuMjIsMS4wNSAzLjk0LC0zLjM2IDQuNDEsLTkuMjggMS4wNSwtMTMuMjIgLTMuMzYsLTMuOTQgLTkuMjgsLTQuNDEgLTEzLjIyLC0xLjA1IC0wLjM4LDAuMzIgLTAuNzMsMC42NyAtMS4wNSwxLjA1IiBpZD0icGF0aDcwMzMiIGlua3NjYXBlOmNvbm5lY3Rvci1jdXJ2YXR1cmU9IjAiLz4mI3hhOwkJPC9nPiYjeGE7CQk8ZyBpZD0ic2hhcGUxODItMTEiIHRyYW5zZm9ybT0idHJhbnNsYXRlKDIuMTkwMjMsLTE2LjUpIj4mI3hhOwkJCTx0aXRsZSBpZD0idGl0bGU3MDM2Ij5wb2x5bGluZTY3MTE8L3RpdGxlPiYjeGE7CQkJPHBhdGggc3R5bGU9ImZpbGw6bm9uZSIgZD0ibSAxMS4yNSw0OCBoIC0xMiBWIDI4LjUgaCAyOC41IFYgNDggaCAtNiB6IiBpZD0icGF0aDcwMzgiIGlua3NjYXBlOmNvbm5lY3Rvci1jdXJ2YXR1cmU9IjAiLz4mI3hhOwkJCTxwYXRoIHN0eWxlPSJmaWxsOm5vbmU7c3Ryb2tlOiM1NTZhOGE7c3Ryb2tlLXdpZHRoOjEuNTtzdHJva2UtbWl0ZXJsaW1pdDozIiBkPSJtIDExLjI1LDQ4IGggLTEyIFYgMjguNSBoIDI4LjUgViA0OCBoIC02IiBpZD0icGF0aDcwNDAiIGlua3NjYXBlOmNvbm5lY3Rvci1jdXJ2YXR1cmU9IjAiLz4mI3hhOwkJPC9nPiYjeGE7CQk8ZyBpZD0ic2hhcGUxODMtMTQiIHRyYW5zZm9ybT0idHJhbnNsYXRlKDExLjg5NTIsLTExLjYyNSkiPiYjeGE7CQkJPHRpdGxlIGlkPSJ0aXRsZTcwNDMiPmNpcmNsZTY3MTM8L3RpdGxlPiYjeGE7CQkJPGNpcmNsZSBzdHlsZT0iZmlsbDojMmJjN2Y0IiBjeD0iNC4xMzAwMDAxIiBjeT0iNDMuMTMwMDAxIiBpZD0iZWxsaXBzZTcwNDUiIHI9IjQuODgwMDAwMSIvPiYjeGE7CQk8L2c+JiN4YTsJPC9nPiYjeGE7PC9nPiYjeGE7PC9zdmc+;rounded=1;glass=0;comic=0;fontSize=20;fontColor=#0066CC;strokeWidth=1;gradientColor=none;" vertex="1" parent="1">
          <mxGeometry x="870" y="30" width="110" height="110" as="geometry" />
        </mxCell>
        <mxCell id="7BHZPBbnNzFtBdcpdKT6-19" style="edgeStyle=orthogonalEdgeStyle;curved=1;orthogonalLoop=1;jettySize=auto;html=1;exitX=0.5;exitY=1;exitDx=0;exitDy=0;entryX=0.5;entryY=0;entryDx=0;entryDy=0;fontSize=20;fontColor=#0066CC;fillColor=#b1ddf0;strokeColor=#10739e;" edge="1" parent="1" source="7BHZPBbnNzFtBdcpdKT6-22" target="7BHZPBbnNzFtBdcpdKT6-18">
          <mxGeometry relative="1" as="geometry">
            <mxPoint x="920" y="480" as="sourcePoint" />
          </mxGeometry>
        </mxCell>
        <mxCell id="7BHZPBbnNzFtBdcpdKT6-20" value="Rest" style="edgeLabel;html=1;align=center;verticalAlign=middle;resizable=0;points=[];fontSize=20;fontColor=#0066CC;" vertex="1" connectable="0" parent="7BHZPBbnNzFtBdcpdKT6-19">
          <mxGeometry x="0.3551" y="8" relative="1" as="geometry">
            <mxPoint as="offset" />
          </mxGeometry>
        </mxCell>
        <mxCell id="7BHZPBbnNzFtBdcpdKT6-15" value="Integrações Terceiros" style="shape=image;verticalLabelPosition=bottom;labelBackgroundColor=#ffffff;verticalAlign=top;aspect=fixed;imageAspect=0;image=data:image/svg+xml,PHN2ZyB4bWxuczpkYz0iaHR0cDovL3B1cmwub3JnL2RjL2VsZW1lbnRzLzEuMS8iIHhtbG5zOmNjPSJodHRwOi8vY3JlYXRpdmVjb21tb25zLm9yZy9ucyMiIHhtbG5zOnJkZj0iaHR0cDovL3d3dy53My5vcmcvMTk5OS8wMi8yMi1yZGYtc3ludGF4LW5zIyIgeG1sbnM6c3ZnPSJodHRwOi8vd3d3LnczLm9yZy8yMDAwL3N2ZyIgeG1sbnM9Imh0dHA6Ly93d3cudzMub3JnLzIwMDAvc3ZnIiB4bWxuczpzb2RpcG9kaT0iaHR0cDovL3NvZGlwb2RpLnNvdXJjZWZvcmdlLm5ldC9EVEQvc29kaXBvZGktMC5kdGQiIHhtbG5zOmlua3NjYXBlPSJodHRwOi8vd3d3Lmlua3NjYXBlLm9yZy9uYW1lc3BhY2VzL2lua3NjYXBlIiB2ZXJzaW9uPSIxLjEiIGlkPSJMYXllcl8xIiB4PSIwcHgiIHk9IjBweCIgdmlld0JveD0iMCAwIDQ4IDQ3Ljk5OTk5OSIgeG1sOnNwYWNlPSJwcmVzZXJ2ZSIgc29kaXBvZGk6ZG9jbmFtZT0iYXBpLnN2ZyIgd2lkdGg9IjQ4IiBoZWlnaHQ9IjQ4IiBpbmtzY2FwZTp2ZXJzaW9uPSIwLjkyLjMgKDI0MDU1NDYsIDIwMTgtMDMtMTEpIj48bWV0YWRhdGEgaWQ9Im1ldGFkYXRhNzA1NiI+PHJkZjpSREY+PGNjOldvcmsgcmRmOmFib3V0PSIiPjxkYzpmb3JtYXQ+aW1hZ2Uvc3ZnK3htbDwvZGM6Zm9ybWF0PjxkYzp0eXBlIHJkZjpyZXNvdXJjZT0iaHR0cDovL3B1cmwub3JnL2RjL2RjbWl0eXBlL1N0aWxsSW1hZ2UiLz48ZGM6dGl0bGUvPjwvY2M6V29yaz48L3JkZjpSREY+PC9tZXRhZGF0YT48ZGVmcyBpZD0iZGVmczcwNTQiLz48c29kaXBvZGk6bmFtZWR2aWV3IHBhZ2Vjb2xvcj0iI2ZmZmZmZiIgYm9yZGVyY29sb3I9IiM2NjY2NjYiIGJvcmRlcm9wYWNpdHk9IjEiIG9iamVjdHRvbGVyYW5jZT0iMTAiIGdyaWR0b2xlcmFuY2U9IjEwIiBndWlkZXRvbGVyYW5jZT0iMTAiIGlua3NjYXBlOnBhZ2VvcGFjaXR5PSIwIiBpbmtzY2FwZTpwYWdlc2hhZG93PSIyIiBpbmtzY2FwZTp3aW5kb3ctd2lkdGg9IjE5MjAiIGlua3NjYXBlOndpbmRvdy1oZWlnaHQ9IjEwMTciIGlkPSJuYW1lZHZpZXc3MDUyIiBzaG93Z3JpZD0iZmFsc2UiIGZpdC1tYXJnaW4tdG9wPSIwIiBmaXQtbWFyZ2luLWxlZnQ9IjAiIGZpdC1tYXJnaW4tcmlnaHQ9IjAiIGZpdC1tYXJnaW4tYm90dG9tPSIwIiBpbmtzY2FwZTp6b29tPSI4LjAxODg2NzciIGlua3NjYXBlOmN4PSItMy41NzM3ODc2IiBpbmtzY2FwZTpjeT0iMTQuMDEyMDE4IiBpbmtzY2FwZTp3aW5kb3cteD0iLTgiIGlua3NjYXBlOndpbmRvdy15PSItOCIgaW5rc2NhcGU6d2luZG93LW1heGltaXplZD0iMSIgaW5rc2NhcGU6Y3VycmVudC1sYXllcj0iTGF5ZXJfMSIvPiYjeGE7PGcgaWQ9Imc3MDQ5IiB0cmFuc2Zvcm09InRyYW5zbGF0ZSgyLjNlLTQsMC43NDk3NykiPiYjeGE7CTx0aXRsZSBpZD0idGl0bGU3MDEwIj5QYWdlLTE8L3RpdGxlPiYjeGE7CTxnIGlkPSJncm91cDE3Ny0xIiB0cmFuc2Zvcm09InRyYW5zbGF0ZSg4LjMwOTc3LC0xLjUpIj4mI3hhOwkJPHRpdGxlIGlkPSJ0aXRsZTcwMTIiPkFQSTwvdGl0bGU+JiN4YTsJCTxnIGlkPSJzaGFwZTE3OC0yIiB0cmFuc2Zvcm09InRyYW5zbGF0ZSgwLC02LjgwOTc3KSI+JiN4YTsJCQk8dGl0bGUgaWQ9InRpdGxlNzAxNCI+cGF0aDY3MDM8L3RpdGxlPiYjeGE7CQkJPHBhdGggc3R5bGU9ImZpbGw6I2ZmZmZmZiIgZD0iTSAzOC45NCwzMS41NiBDIDM4Ljk0LDQ0LjQgMjguNTMsNTQuODEgMTUuNjksNTQuODEgMi44NSw1NC44MSAtNy41Niw0NC40IC03LjU2LDMxLjU2IC03LjU2LDE4LjcyIDIuODUsOC4zMSAxNS42OSw4LjMxIHYgMCBjIDEyLjg0LDAgMjMuMjUsMTAuNDEgMjMuMjUsMjMuMjUgeiIgaWQ9InBhdGg3MDE2IiBpbmtzY2FwZTpjb25uZWN0b3ItY3VydmF0dXJlPSIwIi8+JiN4YTsJCTwvZz4mI3hhOwkJPGcgaWQ9InNoYXBlMTc5LTQiIHRyYW5zZm9ybT0idHJhbnNsYXRlKDE2LjQ0MDIpIj4mI3hhOwkJCTx0aXRsZSBpZD0idGl0bGU3MDE5Ij5wYXRoNjcwNTwvdGl0bGU+JiN4YTsJCQk8cGF0aCBzdHlsZT0iZmlsbDojZTVlNWU1IiBkPSJNIDIyLjUsMjQuNzUgQyAyMi41LDM3LjU5IDEyLjA5LDQ4IC0wLjc1LDQ4IFYgMS41IGMgMTIuODQsMCAyMy4yNSwxMC40MSAyMy4yNSwyMy4yNSB6IiBpZD0icGF0aDcwMjEiIGlua3NjYXBlOmNvbm5lY3Rvci1jdXJ2YXR1cmU9IjAiLz4mI3hhOwkJPC9nPiYjeGE7CQk8ZyBpZD0ic2hhcGUxODAtNiIgdHJhbnNmb3JtPSJ0cmFuc2xhdGUoMCwtNi44MDk3NykiPiYjeGE7CQkJPHRpdGxlIGlkPSJ0aXRsZTcwMjQiPnBhdGg2NzA3PC90aXRsZT4mI3hhOwkJCTxwYXRoIHN0eWxlPSJmaWxsOm5vbmU7c3Ryb2tlOiM1NTZhOGE7c3Ryb2tlLXdpZHRoOjEuNTtzdHJva2UtbWl0ZXJsaW1pdDozIiBkPSJNIDM4Ljk0LDMxLjU2IEMgMzguOTQsNDQuNCAyOC41Myw1NC44MSAxNS42OSw1NC44MSAyLjg1LDU0LjgxIC03LjU2LDQ0LjQgLTcuNTYsMzEuNTYgLTcuNTYsMTguNzIgMi44NSw4LjMxIDE1LjY5LDguMzEgdiAwIGMgMTIuODQsMCAyMy4yNSwxMC40MSAyMy4yNSwyMy4yNSB6IiBpZD0icGF0aDcwMjYiIGlua3NjYXBlOmNvbm5lY3Rvci1jdXJ2YXR1cmU9IjAiLz4mI3hhOwkJPC9nPiYjeGE7CQk8ZyBpZD0ic2hhcGUxODEtOCIgdHJhbnNmb3JtPSJ0cmFuc2xhdGUoOC45NDAyMywtMTAuNDEpIj4mI3hhOwkJCTx0aXRsZSBpZD0idGl0bGU3MDI5Ij5wYXRoNjcwOTwvdGl0bGU+JiN4YTsJCQk8cGF0aCBzdHlsZT0iZmlsbDpub25lIiBkPSJtIC0wLjc1LDQ4IGMgMy4zNiwzLjk0IDkuMjgsNC40MSAxMy4yMiwxLjA1IDMuOTQsLTMuMzYgNC40MSwtOS4yOCAxLjA1LC0xMy4yMiAtMy4zNiwtMy45NCAtOS4yOCwtNC40MSAtMTMuMjIsLTEuMDUgLTAuMzgsMC4zMiAtMC43MywwLjY3IC0xLjA1LDEuMDUgeiIgaWQ9InBhdGg3MDMxIiBpbmtzY2FwZTpjb25uZWN0b3ItY3VydmF0dXJlPSIwIi8+JiN4YTsJCQk8cGF0aCBzdHlsZT0iZmlsbDpub25lO3N0cm9rZTojNTU2YThhO3N0cm9rZS13aWR0aDoxLjU7c3Ryb2tlLW1pdGVybGltaXQ6MyIgZD0ibSAtMC43NSw0OCBjIDMuMzYsMy45NCA5LjI4LDQuNDEgMTMuMjIsMS4wNSAzLjk0LC0zLjM2IDQuNDEsLTkuMjggMS4wNSwtMTMuMjIgLTMuMzYsLTMuOTQgLTkuMjgsLTQuNDEgLTEzLjIyLC0xLjA1IC0wLjM4LDAuMzIgLTAuNzMsMC42NyAtMS4wNSwxLjA1IiBpZD0icGF0aDcwMzMiIGlua3NjYXBlOmNvbm5lY3Rvci1jdXJ2YXR1cmU9IjAiLz4mI3hhOwkJPC9nPiYjeGE7CQk8ZyBpZD0ic2hhcGUxODItMTEiIHRyYW5zZm9ybT0idHJhbnNsYXRlKDIuMTkwMjMsLTE2LjUpIj4mI3hhOwkJCTx0aXRsZSBpZD0idGl0bGU3MDM2Ij5wb2x5bGluZTY3MTE8L3RpdGxlPiYjeGE7CQkJPHBhdGggc3R5bGU9ImZpbGw6bm9uZSIgZD0ibSAxMS4yNSw0OCBoIC0xMiBWIDI4LjUgaCAyOC41IFYgNDggaCAtNiB6IiBpZD0icGF0aDcwMzgiIGlua3NjYXBlOmNvbm5lY3Rvci1jdXJ2YXR1cmU9IjAiLz4mI3hhOwkJCTxwYXRoIHN0eWxlPSJmaWxsOm5vbmU7c3Ryb2tlOiM1NTZhOGE7c3Ryb2tlLXdpZHRoOjEuNTtzdHJva2UtbWl0ZXJsaW1pdDozIiBkPSJtIDExLjI1LDQ4IGggLTEyIFYgMjguNSBoIDI4LjUgViA0OCBoIC02IiBpZD0icGF0aDcwNDAiIGlua3NjYXBlOmNvbm5lY3Rvci1jdXJ2YXR1cmU9IjAiLz4mI3hhOwkJPC9nPiYjeGE7CQk8ZyBpZD0ic2hhcGUxODMtMTQiIHRyYW5zZm9ybT0idHJhbnNsYXRlKDExLjg5NTIsLTExLjYyNSkiPiYjeGE7CQkJPHRpdGxlIGlkPSJ0aXRsZTcwNDMiPmNpcmNsZTY3MTM8L3RpdGxlPiYjeGE7CQkJPGNpcmNsZSBzdHlsZT0iZmlsbDojMmJjN2Y0IiBjeD0iNC4xMzAwMDAxIiBjeT0iNDMuMTMwMDAxIiBpZD0iZWxsaXBzZTcwNDUiIHI9IjQuODgwMDAwMSIvPiYjeGE7CQk8L2c+JiN4YTsJPC9nPiYjeGE7PC9nPiYjeGE7PC9zdmc+;rounded=1;glass=0;comic=0;fontSize=20;fontColor=#0066CC;strokeWidth=1;gradientColor=none;" vertex="1" parent="1">
          <mxGeometry x="1000" y="180" width="110" height="110" as="geometry" />
        </mxCell>
        <mxCell id="7BHZPBbnNzFtBdcpdKT6-18" value="Integrações&#xa;Whatsapp" style="shape=image;verticalLabelPosition=bottom;labelBackgroundColor=#ffffff;verticalAlign=top;aspect=fixed;imageAspect=0;image=data:image/svg+xml,PHN2ZyB4bWxuczpkYz0iaHR0cDovL3B1cmwub3JnL2RjL2VsZW1lbnRzLzEuMS8iIHhtbG5zOmNjPSJodHRwOi8vY3JlYXRpdmVjb21tb25zLm9yZy9ucyMiIHhtbG5zOnJkZj0iaHR0cDovL3d3dy53My5vcmcvMTk5OS8wMi8yMi1yZGYtc3ludGF4LW5zIyIgeG1sbnM6c3ZnPSJodHRwOi8vd3d3LnczLm9yZy8yMDAwL3N2ZyIgeG1sbnM9Imh0dHA6Ly93d3cudzMub3JnLzIwMDAvc3ZnIiB4bWxuczpzb2RpcG9kaT0iaHR0cDovL3NvZGlwb2RpLnNvdXJjZWZvcmdlLm5ldC9EVEQvc29kaXBvZGktMC5kdGQiIHhtbG5zOmlua3NjYXBlPSJodHRwOi8vd3d3Lmlua3NjYXBlLm9yZy9uYW1lc3BhY2VzL2lua3NjYXBlIiB2ZXJzaW9uPSIxLjEiIGlkPSJMYXllcl8xIiB4PSIwcHgiIHk9IjBweCIgdmlld0JveD0iMCAwIDQ4IDQ3Ljk5OTk5OSIgeG1sOnNwYWNlPSJwcmVzZXJ2ZSIgc29kaXBvZGk6ZG9jbmFtZT0iYXBpLnN2ZyIgd2lkdGg9IjQ4IiBoZWlnaHQ9IjQ4IiBpbmtzY2FwZTp2ZXJzaW9uPSIwLjkyLjMgKDI0MDU1NDYsIDIwMTgtMDMtMTEpIj48bWV0YWRhdGEgaWQ9Im1ldGFkYXRhNzA1NiI+PHJkZjpSREY+PGNjOldvcmsgcmRmOmFib3V0PSIiPjxkYzpmb3JtYXQ+aW1hZ2Uvc3ZnK3htbDwvZGM6Zm9ybWF0PjxkYzp0eXBlIHJkZjpyZXNvdXJjZT0iaHR0cDovL3B1cmwub3JnL2RjL2RjbWl0eXBlL1N0aWxsSW1hZ2UiLz48ZGM6dGl0bGUvPjwvY2M6V29yaz48L3JkZjpSREY+PC9tZXRhZGF0YT48ZGVmcyBpZD0iZGVmczcwNTQiLz48c29kaXBvZGk6bmFtZWR2aWV3IHBhZ2Vjb2xvcj0iI2ZmZmZmZiIgYm9yZGVyY29sb3I9IiM2NjY2NjYiIGJvcmRlcm9wYWNpdHk9IjEiIG9iamVjdHRvbGVyYW5jZT0iMTAiIGdyaWR0b2xlcmFuY2U9IjEwIiBndWlkZXRvbGVyYW5jZT0iMTAiIGlua3NjYXBlOnBhZ2VvcGFjaXR5PSIwIiBpbmtzY2FwZTpwYWdlc2hhZG93PSIyIiBpbmtzY2FwZTp3aW5kb3ctd2lkdGg9IjE5MjAiIGlua3NjYXBlOndpbmRvdy1oZWlnaHQ9IjEwMTciIGlkPSJuYW1lZHZpZXc3MDUyIiBzaG93Z3JpZD0iZmFsc2UiIGZpdC1tYXJnaW4tdG9wPSIwIiBmaXQtbWFyZ2luLWxlZnQ9IjAiIGZpdC1tYXJnaW4tcmlnaHQ9IjAiIGZpdC1tYXJnaW4tYm90dG9tPSIwIiBpbmtzY2FwZTp6b29tPSI4LjAxODg2NzciIGlua3NjYXBlOmN4PSItMy41NzM3ODc2IiBpbmtzY2FwZTpjeT0iMTQuMDEyMDE4IiBpbmtzY2FwZTp3aW5kb3cteD0iLTgiIGlua3NjYXBlOndpbmRvdy15PSItOCIgaW5rc2NhcGU6d2luZG93LW1heGltaXplZD0iMSIgaW5rc2NhcGU6Y3VycmVudC1sYXllcj0iTGF5ZXJfMSIvPiYjeGE7PGcgaWQ9Imc3MDQ5IiB0cmFuc2Zvcm09InRyYW5zbGF0ZSgyLjNlLTQsMC43NDk3NykiPiYjeGE7CTx0aXRsZSBpZD0idGl0bGU3MDEwIj5QYWdlLTE8L3RpdGxlPiYjeGE7CTxnIGlkPSJncm91cDE3Ny0xIiB0cmFuc2Zvcm09InRyYW5zbGF0ZSg4LjMwOTc3LC0xLjUpIj4mI3hhOwkJPHRpdGxlIGlkPSJ0aXRsZTcwMTIiPkFQSTwvdGl0bGU+JiN4YTsJCTxnIGlkPSJzaGFwZTE3OC0yIiB0cmFuc2Zvcm09InRyYW5zbGF0ZSgwLC02LjgwOTc3KSI+JiN4YTsJCQk8dGl0bGUgaWQ9InRpdGxlNzAxNCI+cGF0aDY3MDM8L3RpdGxlPiYjeGE7CQkJPHBhdGggc3R5bGU9ImZpbGw6I2ZmZmZmZiIgZD0iTSAzOC45NCwzMS41NiBDIDM4Ljk0LDQ0LjQgMjguNTMsNTQuODEgMTUuNjksNTQuODEgMi44NSw1NC44MSAtNy41Niw0NC40IC03LjU2LDMxLjU2IC03LjU2LDE4LjcyIDIuODUsOC4zMSAxNS42OSw4LjMxIHYgMCBjIDEyLjg0LDAgMjMuMjUsMTAuNDEgMjMuMjUsMjMuMjUgeiIgaWQ9InBhdGg3MDE2IiBpbmtzY2FwZTpjb25uZWN0b3ItY3VydmF0dXJlPSIwIi8+JiN4YTsJCTwvZz4mI3hhOwkJPGcgaWQ9InNoYXBlMTc5LTQiIHRyYW5zZm9ybT0idHJhbnNsYXRlKDE2LjQ0MDIpIj4mI3hhOwkJCTx0aXRsZSBpZD0idGl0bGU3MDE5Ij5wYXRoNjcwNTwvdGl0bGU+JiN4YTsJCQk8cGF0aCBzdHlsZT0iZmlsbDojZTVlNWU1IiBkPSJNIDIyLjUsMjQuNzUgQyAyMi41LDM3LjU5IDEyLjA5LDQ4IC0wLjc1LDQ4IFYgMS41IGMgMTIuODQsMCAyMy4yNSwxMC40MSAyMy4yNSwyMy4yNSB6IiBpZD0icGF0aDcwMjEiIGlua3NjYXBlOmNvbm5lY3Rvci1jdXJ2YXR1cmU9IjAiLz4mI3hhOwkJPC9nPiYjeGE7CQk8ZyBpZD0ic2hhcGUxODAtNiIgdHJhbnNmb3JtPSJ0cmFuc2xhdGUoMCwtNi44MDk3NykiPiYjeGE7CQkJPHRpdGxlIGlkPSJ0aXRsZTcwMjQiPnBhdGg2NzA3PC90aXRsZT4mI3hhOwkJCTxwYXRoIHN0eWxlPSJmaWxsOm5vbmU7c3Ryb2tlOiM1NTZhOGE7c3Ryb2tlLXdpZHRoOjEuNTtzdHJva2UtbWl0ZXJsaW1pdDozIiBkPSJNIDM4Ljk0LDMxLjU2IEMgMzguOTQsNDQuNCAyOC41Myw1NC44MSAxNS42OSw1NC44MSAyLjg1LDU0LjgxIC03LjU2LDQ0LjQgLTcuNTYsMzEuNTYgLTcuNTYsMTguNzIgMi44NSw4LjMxIDE1LjY5LDguMzEgdiAwIGMgMTIuODQsMCAyMy4yNSwxMC40MSAyMy4yNSwyMy4yNSB6IiBpZD0icGF0aDcwMjYiIGlua3NjYXBlOmNvbm5lY3Rvci1jdXJ2YXR1cmU9IjAiLz4mI3hhOwkJPC9nPiYjeGE7CQk8ZyBpZD0ic2hhcGUxODEtOCIgdHJhbnNmb3JtPSJ0cmFuc2xhdGUoOC45NDAyMywtMTAuNDEpIj4mI3hhOwkJCTx0aXRsZSBpZD0idGl0bGU3MDI5Ij5wYXRoNjcwOTwvdGl0bGU+JiN4YTsJCQk8cGF0aCBzdHlsZT0iZmlsbDpub25lIiBkPSJtIC0wLjc1LDQ4IGMgMy4zNiwzLjk0IDkuMjgsNC40MSAxMy4yMiwxLjA1IDMuOTQsLTMuMzYgNC40MSwtOS4yOCAxLjA1LC0xMy4yMiAtMy4zNiwtMy45NCAtOS4yOCwtNC40MSAtMTMuMjIsLTEuMDUgLTAuMzgsMC4zMiAtMC43MywwLjY3IC0xLjA1LDEuMDUgeiIgaWQ9InBhdGg3MDMxIiBpbmtzY2FwZTpjb25uZWN0b3ItY3VydmF0dXJlPSIwIi8+JiN4YTsJCQk8cGF0aCBzdHlsZT0iZmlsbDpub25lO3N0cm9rZTojNTU2YThhO3N0cm9rZS13aWR0aDoxLjU7c3Ryb2tlLW1pdGVybGltaXQ6MyIgZD0ibSAtMC43NSw0OCBjIDMuMzYsMy45NCA5LjI4LDQuNDEgMTMuMjIsMS4wNSAzLjk0LC0zLjM2IDQuNDEsLTkuMjggMS4wNSwtMTMuMjIgLTMuMzYsLTMuOTQgLTkuMjgsLTQuNDEgLTEzLjIyLC0xLjA1IC0wLjM4LDAuMzIgLTAuNzMsMC42NyAtMS4wNSwxLjA1IiBpZD0icGF0aDcwMzMiIGlua3NjYXBlOmNvbm5lY3Rvci1jdXJ2YXR1cmU9IjAiLz4mI3hhOwkJPC9nPiYjeGE7CQk8ZyBpZD0ic2hhcGUxODItMTEiIHRyYW5zZm9ybT0idHJhbnNsYXRlKDIuMTkwMjMsLTE2LjUpIj4mI3hhOwkJCTx0aXRsZSBpZD0idGl0bGU3MDM2Ij5wb2x5bGluZTY3MTE8L3RpdGxlPiYjeGE7CQkJPHBhdGggc3R5bGU9ImZpbGw6bm9uZSIgZD0ibSAxMS4yNSw0OCBoIC0xMiBWIDI4LjUgaCAyOC41IFYgNDggaCAtNiB6IiBpZD0icGF0aDcwMzgiIGlua3NjYXBlOmNvbm5lY3Rvci1jdXJ2YXR1cmU9IjAiLz4mI3hhOwkJCTxwYXRoIHN0eWxlPSJmaWxsOm5vbmU7c3Ryb2tlOiM1NTZhOGE7c3Ryb2tlLXdpZHRoOjEuNTtzdHJva2UtbWl0ZXJsaW1pdDozIiBkPSJtIDExLjI1LDQ4IGggLTEyIFYgMjguNSBoIDI4LjUgViA0OCBoIC02IiBpZD0icGF0aDcwNDAiIGlua3NjYXBlOmNvbm5lY3Rvci1jdXJ2YXR1cmU9IjAiLz4mI3hhOwkJPC9nPiYjeGE7CQk8ZyBpZD0ic2hhcGUxODMtMTQiIHRyYW5zZm9ybT0idHJhbnNsYXRlKDExLjg5NTIsLTExLjYyNSkiPiYjeGE7CQkJPHRpdGxlIGlkPSJ0aXRsZTcwNDMiPmNpcmNsZTY3MTM8L3RpdGxlPiYjeGE7CQkJPGNpcmNsZSBzdHlsZT0iZmlsbDojMmJjN2Y0IiBjeD0iNC4xMzAwMDAxIiBjeT0iNDMuMTMwMDAxIiBpZD0iZWxsaXBzZTcwNDUiIHI9IjQuODgwMDAwMSIvPiYjeGE7CQk8L2c+JiN4YTsJPC9nPiYjeGE7PC9nPiYjeGE7PC9zdmc+;rounded=1;glass=0;comic=0;fontSize=20;fontColor=#0066CC;strokeWidth=1;gradientColor=none;" vertex="1" parent="1">
          <mxGeometry x="1110" y="780" width="110" height="110" as="geometry" />
        </mxCell>
        <mxCell id="7BHZPBbnNzFtBdcpdKT6-22" value="API Moderna " style="swimlane;fillColor=#b1ddf0;strokeColor=#10739e;fontColor=#007FFF;fontSize=20;spacing=3;spacingBottom=3;gradientColor=none;swimlaneFillColor=none;strokeWidth=1;perimeterSpacing=5;glass=0;rounded=1;" vertex="1" parent="1">
          <mxGeometry x="680" y="380" width="580" height="340" as="geometry">
            <mxRectangle x="180" y="124" width="150" height="30" as="alternateBounds" />
          </mxGeometry>
        </mxCell>
        <mxCell id="7BHZPBbnNzFtBdcpdKT6-23" value="C# 7.3" style="shape=image;verticalLabelPosition=bottom;labelBackgroundColor=#ffffff;verticalAlign=top;aspect=fixed;imageAspect=0;image=data:image/svg+xml,PHN2ZyB4bWxuczpjYz0iaHR0cDovL2NyZWF0aXZlY29tbW9ucy5vcmcvbnMjIiB4bWxuczpkYz0iaHR0cDovL3B1cmwub3JnL2RjL2VsZW1lbnRzLzEuMS8iIHhtbG5zOmlua3NjYXBlPSJodHRwOi8vd3d3Lmlua3NjYXBlLm9yZy9uYW1lc3BhY2VzL2lua3NjYXBlIiB4bWxuczpyZGY9Imh0dHA6Ly93d3cudzMub3JnLzE5OTkvMDIvMjItcmRmLXN5bnRheC1ucyMiIHhtbG5zOnNvZGlwb2RpPSJodHRwOi8vc29kaXBvZGkuc291cmNlZm9yZ2UubmV0L0RURC9zb2RpcG9kaS0wLmR0ZCIgeG1sbnM6c3ZnPSJodHRwOi8vd3d3LnczLm9yZy8yMDAwL3N2ZyIgeG1sbnM9Imh0dHA6Ly93d3cudzMub3JnLzIwMDAvc3ZnIiB4bWxuczp4bGluaz0iaHR0cDovL3d3dy53My5vcmcvMTk5OS94bGluayIgdmVyc2lvbj0iMS4xIiBpZD0ic3ZnMTQyMzE5IiBpbmtzY2FwZTp2ZXJzaW9uPSIwLjkyLjMgKDI0MDU1NDYsIDIwMTgtMDMtMTEpIiBzb2RpcG9kaTpkb2NuYW1lPSJjc2hhcnBfMi5zdmciIHg9IjBweCIgeT0iMHB4IiB2aWV3Qm94PSIwIDAgOTcuNzIgNzEuNTUiIHN0eWxlPSJlbmFibGUtYmFja2dyb3VuZDpuZXcgMCAwIDk3LjcyIDcxLjU1OyIgeG1sOnNwYWNlPSJwcmVzZXJ2ZSI+JiN4YTs8c29kaXBvZGk6bmFtZWR2aWV3IGJvcmRlcmNvbG9yPSIjNjY2NjY2IiBib3JkZXJvcGFjaXR5PSIxIiBmaXQtbWFyZ2luLWJvdHRvbT0iMCIgZml0LW1hcmdpbi1sZWZ0PSIwIiBmaXQtbWFyZ2luLXJpZ2h0PSIwIiBmaXQtbWFyZ2luLXRvcD0iMCIgZ3JpZHRvbGVyYW5jZT0iMTAiIGd1aWRldG9sZXJhbmNlPSIxMCIgaWQ9Im5hbWVkdmlldzE0MjMyMSIgaW5rc2NhcGU6Y3VycmVudC1sYXllcj0ic3ZnMTQyMzE5IiBpbmtzY2FwZTpjeD0iNjUuMTQzMTk4IiBpbmtzY2FwZTpjeT0iNDcuNjk5NzE3IiBpbmtzY2FwZTpwYWdlb3BhY2l0eT0iMCIgaW5rc2NhcGU6cGFnZXNoYWRvdz0iMiIgaW5rc2NhcGU6d2luZG93LWhlaWdodD0iMTAxNyIgaW5rc2NhcGU6d2luZG93LW1heGltaXplZD0iMSIgaW5rc2NhcGU6d2luZG93LXdpZHRoPSIxOTIwIiBpbmtzY2FwZTp3aW5kb3cteD0iLTgiIGlua3NjYXBlOndpbmRvdy15PSItOCIgaW5rc2NhcGU6em9vbT0iOS4wODgwMzIiIG9iamVjdHRvbGVyYW5jZT0iMTAiIHBhZ2Vjb2xvcj0iI2ZmZmZmZiIgc2hvd2dyaWQ9ImZhbHNlIj4mI3hhOwk8L3NvZGlwb2RpOm5hbWVkdmlldz4mI3hhOzxnIGlkPSJnMTQyMzE3IiB0cmFuc2Zvcm09InRyYW5zbGF0ZSgwLC04LjQwNzE0NjllLTUpIj4mI3hhOwk8dGl0bGUgaWQ9InRpdGxlMTQyMjg0Ij5QYWdlLTE8L3RpdGxlPiYjeGE7CTxnIGlkPSJncm91cDk4NS0xIj4mI3hhOwkJPHRpdGxlIGlkPSJ0aXRsZTE0MjI4NiI+Q1NoYXJwPC90aXRsZT4mI3hhOwkJPGcgaWQ9InNoYXBlOTg2LTIiPiYjeGE7CQkJPHRpdGxlIGlkPSJ0aXRsZTE0MjI4OCI+U2hlZXQuOTg2PC90aXRsZT4mI3hhOwkJCTxwYXRoIGlkPSJwYXRoMTQyMjkwIiBpbmtzY2FwZTpjb25uZWN0b3ItY3VydmF0dXJlPSIwIiBzdHlsZT0iZmlsbDojM0Y1NzY1OyIgZD0iTTkzLjk5LDBDMy42MSwwLDMuNjEsMCwzLjYxLDAgICAgIEMwLjYsMCwwLDAuNzIsMCwzLjcyYzAsNjQuMjMsMCw2NC4yMywwLDY0LjIzYzAsMywwLjYsMy42LDMuNjEsMy42YzkwLjM4LDAsOTAuMzgsMCw5MC4zOCwwYzMuMTIsMCwzLjczLTAuNiwzLjczLTMuNiAgICAgYzAtNjQuMjMsMC02NC4yMywwLTY0LjIzQzk3LjcyLDAuNzIsOTcuMTEsMCw5My45OSwweiIvPiYjeGE7CQk8L2c+JiN4YTsJCTxnIGlkPSJzaGFwZTk4Ny00IiB0cmFuc2Zvcm09InRyYW5zbGF0ZSg5MC45NjUxLC02Ni4yNDc4KSI+JiN4YTsJCQk8dGl0bGUgaWQ9InRpdGxlMTQyMjkzIj5TaGVldC45ODc8L3RpdGxlPiYjeGE7CQkJPHBhdGggaWQ9InBhdGgxNDIyOTUiIGlua3NjYXBlOmNvbm5lY3Rvci1jdXJ2YXR1cmU9IjAiIHN0eWxlPSJmaWxsOiNGRjAwMDA7IiBkPSJNNC4xMyw2OS41MWMwLDEuMTctMC45MiwyLjA0LTIuMDQsMi4wNCAgICAgUzAsNzAuNjgsMCw2OS41MWMwLTEuMTIsMC45Ny0yLjAzLDIuMDktMi4wM1M0LjEzLDY4LjM5LDQuMTMsNjkuNTF6Ii8+JiN4YTsJCTwvZz4mI3hhOwkJPGcgaWQ9InNoYXBlOTg4LTYiIHRyYW5zZm9ybT0idHJhbnNsYXRlKDIuMDk1MTksLTMuMzA2MjMpIj4mI3hhOwkJCTx0aXRsZSBpZD0idGl0bGUxNDIyOTgiPlNoZWV0Ljk4ODwvdGl0bGU+JiN4YTsJCQk8cGF0aCBpZD0icGF0aDE0MjMwMCIgaW5rc2NhcGU6Y29ubmVjdG9yLWN1cnZhdHVyZT0iMCIgc3R5bGU9ImZpbGw6IzAwQjBGMDsiIGQ9Ik0wLDEyLjQxdjU5LjE0aDkzLjA0VjEyLjQxSDB6Ii8+JiN4YTsJCTwvZz4mI3hhOwkJPGcgaWQ9Imdyb3VwOTg5LTgiIHRyYW5zZm9ybT0idHJhbnNsYXRlKDI2LjExNjcsLTE2LjMyNTcpIj4mI3hhOwkJCTx0aXRsZSBpZD0idGl0bGUxNDIzMDMiPlNoZWV0Ljk4OTwvdGl0bGU+JiN4YTsJCQk8ZyBpZD0ic2hhcGU5OTAtOSI+JiN4YTsJCQkJPHRpdGxlIGlkPSJ0aXRsZTE0MjMwNSI+U2hlZXQuOTkwPC90aXRsZT4mI3hhOwkJCQk8cGF0aCBpZD0icGF0aDE0MjMwNyIgaW5rc2NhcGU6Y29ubmVjdG9yLWN1cnZhdHVyZT0iMCIgc3R5bGU9ImZpbGw6I0ZGRkZGRjsiIGQ9Ik0yNC40Myw2OS43NmMtMi4zNiwxLjIyLTUuMzYsMS43OS05LDEuNzkgICAgICBjLTQuNzIsMC04LjM2LTEuNDMtMTEuMjItNC4zQzEuNSw2NC4yNCwwLDYwLjQ0LDAsNTUuNjRjMC01LjE1LDEuNTctOS4zMSw0LjcxLTEyLjQ2YzMuMTUtMy4yMyw3LjA4LTQuNzMsMTEuODYtNC43MyAgICAgIGMzLjA3LDAsNS43MiwwLjQzLDcuNjQsMS4zNnY1LjNjLTIuMTQtMS4yOS00LjU3LTEuOTMtNy4yMS0xLjkzYy0zLjQzLDAtNi4yOSwxLjE0LTguNDMsMy4yOXMtMy4yMSw1LjE2LTMuMjEsOC45NiAgICAgIGMwLDMuNTEsMS4wNyw2LjMsMyw4LjQ1YzIuMDcsMi4wOCw0LjY0LDMuMDgsNy44NSwzLjA4YzMsMCw1LjY1LTAuNjQsNy45My0yLjE0djQuOTRIMjQuNDN6Ii8+JiN4YTsJCQk8L2c+JiN4YTsJCQk8ZyBpZD0ic2hhcGU5OTEtMTEiIHRyYW5zZm9ybT0idHJhbnNsYXRlKDI3LjA3MTQsLTYuODc4MjkpIj4mI3hhOwkJCQk8dGl0bGUgaWQ9InRpdGxlMTQyMzEwIj5TaGVldC45OTE8L3RpdGxlPiYjeGE7CQkJCTxwYXRoIGlkPSJwYXRoMTQyMzEyIiBpbmtzY2FwZTpjb25uZWN0b3ItY3VydmF0dXJlPSIwIiBzdHlsZT0iZmlsbDojRkZGRkZGOyIgZD0iTTE3LjUsNTguOTRsMC40My0yLjI5aC0zLjVsMS4xNC01LjczaC0yLjUgICAgICBsLTEuMTQsNS43M2gtNGwxLjE0LTUuNzNINi41bC0xLjE0LDUuNzNIMS42NGwtMC41LDIuMjloMy43OUw0LDYzLjUzSDAuNUwwLDY1LjgyaDMuNTdsLTEuMTQsNS43M2gyLjVsMS4xNC01LjczaDRsLTEuMTQsNS43MyAgICAgIGgyLjVsMS4xNC01LjczaDMuNzlsMC41Ny0yLjI5aC0zLjc5bDAuOTMtNC41OUgxNy41eiBNMTAuNSw2My41M2gtNGwwLjkzLTQuNTloNEwxMC41LDYzLjUzeiIvPiYjeGE7CQkJPC9nPiYjeGE7CQk8L2c+JiN4YTsJPC9nPiYjeGE7PC9nPiYjeGE7PC9zdmc+;comic=0;fontSize=16;strokeWidth=2;fontColor=#0066CC;" vertex="1" parent="7BHZPBbnNzFtBdcpdKT6-22">
          <mxGeometry x="30" y="50" width="122.5" height="90" as="geometry" />
        </mxCell>
        <mxCell id="7BHZPBbnNzFtBdcpdKT6-24" value=".NetFramework 4.7.2" style="shape=image;verticalLabelPosition=bottom;labelBackgroundColor=#ffffff;verticalAlign=top;aspect=fixed;imageAspect=0;image=data:image/svg+xml,PHN2ZyB4bWxuczpjYz0iaHR0cDovL2NyZWF0aXZlY29tbW9ucy5vcmcvbnMjIiB4bWxuczpkYz0iaHR0cDovL3B1cmwub3JnL2RjL2VsZW1lbnRzLzEuMS8iIHhtbG5zOmlua3NjYXBlPSJodHRwOi8vd3d3Lmlua3NjYXBlLm9yZy9uYW1lc3BhY2VzL2lua3NjYXBlIiB4bWxuczpyZGY9Imh0dHA6Ly93d3cudzMub3JnLzE5OTkvMDIvMjItcmRmLXN5bnRheC1ucyMiIHhtbG5zOnNvZGlwb2RpPSJodHRwOi8vc29kaXBvZGkuc291cmNlZm9yZ2UubmV0L0RURC9zb2RpcG9kaS0wLmR0ZCIgeG1sbnM6c3ZnPSJodHRwOi8vd3d3LnczLm9yZy8yMDAwL3N2ZyIgeG1sbnM9Imh0dHA6Ly93d3cudzMub3JnLzIwMDAvc3ZnIiB4bWxuczp4bGluaz0iaHR0cDovL3d3dy53My5vcmcvMTk5OS94bGluayIgdmVyc2lvbj0iMS4xIiBpZD0ic3ZnMTczMTM3IiBpbmtzY2FwZTp2ZXJzaW9uPSIwLjkyLjMgKDI0MDU1NDYsIDIwMTgtMDMtMTEpIiBzb2RpcG9kaTpkb2NuYW1lPSJkb3RuZXRfZnJhbWV3b3JrLnN2ZyIgeD0iMHB4IiB5PSIwcHgiIHZpZXdCb3g9IjAgMCA0OCA0OCIgc3R5bGU9ImVuYWJsZS1iYWNrZ3JvdW5kOm5ldyAwIDAgNDggNDg7IiB4bWw6c3BhY2U9InByZXNlcnZlIj4mI3hhOzxzb2RpcG9kaTpuYW1lZHZpZXcgYm9yZGVyY29sb3I9IiM2NjY2NjYiIGJvcmRlcm9wYWNpdHk9IjEiIGZpdC1tYXJnaW4tYm90dG9tPSIwIiBmaXQtbWFyZ2luLWxlZnQ9IjAiIGZpdC1tYXJnaW4tcmlnaHQ9IjAiIGZpdC1tYXJnaW4tdG9wPSIwIiBncmlkdG9sZXJhbmNlPSIxMCIgZ3VpZGV0b2xlcmFuY2U9IjEwIiBpZD0ibmFtZWR2aWV3MTczMTM5IiBpbmtzY2FwZTpjdXJyZW50LWxheWVyPSJzdmcxNzMxMzciIGlua3NjYXBlOmN4PSIzMS41NTQ2MDkiIGlua3NjYXBlOmN5PSIzMS41NTQ2MDYiIGlua3NjYXBlOnBhZ2VvcGFjaXR5PSIwIiBpbmtzY2FwZTpwYWdlc2hhZG93PSIyIiBpbmtzY2FwZTp3aW5kb3ctaGVpZ2h0PSIxMDE3IiBpbmtzY2FwZTp3aW5kb3ctbWF4aW1pemVkPSIxIiBpbmtzY2FwZTp3aW5kb3ctd2lkdGg9IjE5MjAiIGlua3NjYXBlOndpbmRvdy14PSItOCIgaW5rc2NhcGU6d2luZG93LXk9Ii04IiBpbmtzY2FwZTp6b29tPSIxMi45NjE0NDUiIG9iamVjdHRvbGVyYW5jZT0iMTAiIHBhZ2Vjb2xvcj0iI2ZmZmZmZiIgc2hvd2dyaWQ9ImZhbHNlIj4mI3hhOwk8L3NvZGlwb2RpOm5hbWVkdmlldz4mI3hhOzxjaXJjbGUgaWQ9ImVsbGlwc2UxNzMwNjEiIHN0eWxlPSJmaWxsOiM1QzJEOTE7IiBjeD0iMjQiIGN5PSIyNCIgcj0iMjQiLz4mI3hhOzxwYXRoIGlkPSJwYXRoMTczMDY2IiBpbmtzY2FwZTpjb25uZWN0b3ItY3VydmF0dXJlPSIwIiBzdHlsZT0iZmlsbDojRkZGRkZGO2ZpbGwtb3BhY2l0eTowLjA5ODsiIGQ9Ik03LjM2LDYuNzUgIEMtMi41MywxNS41Ny0zLjQsMzAuNzQsNS40Miw0MC42NFMyOS40MSw1MS40LDM5LjMsNDIuNThjMC42OS0wLjYxLDEuMzQtMS4yNiwxLjk1LTEuOTVMNy4zNiw2Ljc1eiIvPiYjeGE7PHBhdGggaWQ9InBhdGgxNzMwNzEiIGlua3NjYXBlOmNvbm5lY3Rvci1jdXJ2YXR1cmU9IjAiIHN0eWxlPSJmaWxsOiNGRkZGRkY7IiBkPSJNNS41NSwyNy45NGMtMC4yOCwwLTAuNTYtMC4xMS0wLjc1LTAuMzIgIGMtMC4yLTAuMi0wLjMxLTAuNDctMC4zMS0wLjc1YzAtMC4yOCwwLjExLTAuNTUsMC4zMS0wLjc1QzUsMjUuOTEsNS4yNywyNS44LDUuNTUsMjUuOGMwLjI4LDAsMC41NSwwLjExLDAuNzUsMC4zMiAgYzAuMiwwLjIsMC4zMSwwLjQ3LDAuMzEsMC43NWMwLDAuMjgtMC4xMSwwLjU1LTAuMzEsMC43NUM2LjExLDI3LjgyLDUuODQsMjcuOTQsNS41NSwyNy45NHoiLz4mI3hhOzxwYXRoIGlkPSJwYXRoMTczMDc2IiBpbmtzY2FwZTpjb25uZWN0b3ItY3VydmF0dXJlPSIwIiBzdHlsZT0iZmlsbDojRkZGRkZGOyIgZD0iTTIwLjQ1LDI3Ljc1aC0xLjk3bC03LjAyLTEwLjkxICBjLTAuMTgtMC4yNy0wLjMyLTAuNTUtMC40NC0wLjg1aC0wLjA2YzAuMDcsMC42MiwwLjA5LDEuMjUsMC4wOCwxLjg3djkuODloLTEuNlYxNC4wOGgyLjA4bDYuODQsMTAuNzEgIGMwLjI4LDAuNDQsMC40NywwLjc1LDAuNTUsMC45MWgwLjA0Yy0wLjA4LTAuNjctMC4xMS0xLjM0LTAuMS0yLjAxdi05LjYxaDEuNlYyNy43NXoiLz4mI3hhOzxwYXRoIGlkPSJwYXRoMTczMDgxIiBpbmtzY2FwZTpjb25uZWN0b3ItY3VydmF0dXJlPSIwIiBzdHlsZT0iZmlsbDojRkZGRkZGOyIgZD0iTTMxLjI3LDI3Ljc1SDI0VjE0LjA4aDYuOTN2MS40NGgtNS4zdjQuNTVoNC45NCAgdjEuNDRoLTQuOTR2NC43NGg1LjY0TDMxLjI3LDI3Ljc1eiIvPiYjeGE7PHBhdGggaWQ9InBhdGgxNzMwODYiIGlua3NjYXBlOmNvbm5lY3Rvci1jdXJ2YXR1cmU9IjAiIHN0eWxlPSJmaWxsOiNGRkZGRkY7IiBkPSJNNDIsMTUuNTJoLTMuOTd2MTIuMjNoLTEuNlYxNS41MkgzMi41di0xLjQ0SDQyICBWMTUuNTJ6Ii8+JiN4YTs8cGF0aCBpZD0icGF0aDE3MzA5MSIgaW5rc2NhcGU6Y29ubmVjdG9yLWN1cnZhdHVyZT0iMCIgc3R5bGU9ImZpbGw6I0YyRjJGMjsiIGQ9Ik02Ljc1LDMwLjlWMzNoMS45NHYwLjMzSDYuNzV2Mi40NUg2LjM4di01LjI1ICBoMi40NXYwLjMzTDYuNzUsMzAuOXoiLz4mI3hhOzxwYXRoIGlkPSJwYXRoMTczMDk2IiBpbmtzY2FwZTpjb25uZWN0b3ItY3VydmF0dXJlPSIwIiBzdHlsZT0iZmlsbDojRjJGMkYyOyIgZD0iTTExLjc1LDMyLjQxYy0wLjEyLTAuMDgtMC4yNi0wLjEyLTAuNC0wLjEyICBjLTAuMzEsMC4wMS0wLjYsMC4xOC0wLjc1LDAuNDZjLTAuMjIsMC40LTAuMzMsMC44NS0wLjMsMS4zdjEuNzZIOS45N3YtMy43NWgwLjMzdjAuODNjMC4wNy0wLjI2LDAuMi0wLjQ5LDAuNC0wLjY3ICBjMC4xOC0wLjE2LDAuNDEtMC4yNCwwLjY0LTAuMjRjMC4xMywwLDAuMjYsMC4wMiwwLjM4LDAuMDdMMTEuNzUsMzIuNDF6Ii8+JiN4YTs8cGF0aCBpZD0icGF0aDE3MzEwMSIgaW5rc2NhcGU6Y29ubmVjdG9yLWN1cnZhdHVyZT0iMCIgc3R5bGU9ImZpbGw6I0YyRjJGMjsiIGQ9Ik0xNC44OSwzNS44MXYtMC43NWMtMC4xMiwwLjI1LTAuMywwLjQ3LTAuNTMsMC42MiAgYy0wLjIyLDAuMTUtMC40OCwwLjIzLTAuNzUsMC4yM2MtMC4zMSwwLjAyLTAuNjItMC4wOS0wLjg1LTAuM2MtMC4yLTAuMi0wLjMyLTAuNDctMC4zMS0wLjc1YzAtMC42NiwwLjQzLTEuMDUsMS4zLTEuMTlsMS4xNS0wLjE3ICBjMC0wLjgtMC4zLTEuMjEtMC45MS0xLjIxYy0wLjQ2LDAtMC45LDAuMTctMS4yNCwwLjQ4di0wLjRjMC4xNy0wLjEzLDAuMzYtMC4yMywwLjU2LTAuMjljMC4yMi0wLjA4LDAuNDUtMC4xMiwwLjY4LTAuMTIgIGMwLjM0LTAuMDIsMC42NiwwLjExLDAuODksMC4zNmMwLjIzLDAuMywwLjM0LDAuNjcsMC4zMSwxLjA1djIuNDNMMTQuODksMzUuODF6IE0xMy44NSwzMy45NGMtMC4yOSwwLjAyLTAuNTcsMC4xMS0wLjgyLDAuMjcgIGMtMC4zMSwwLjMzLTAuMzEsMC44NCwwLDEuMTZjMC4xNywwLjE1LDAuMzksMC4yMywwLjYxLDAuMjJjMC4zNCwwLjAxLDAuNjctMC4xMywwLjg5LTAuMzljMC4yNS0wLjI5LDAuMzgtMC42NiwwLjM2LTEuMDR2LTAuMzcgIEwxMy44NSwzMy45NHoiLz4mI3hhOzxwYXRoIGlkPSJwYXRoMTczMTA2IiBpbmtzY2FwZTpjb25uZWN0b3ItY3VydmF0dXJlPSIwIiBzdHlsZT0iZmlsbDojRjJGMkYyOyIgZD0iTTIxLjI0LDM1Ljgxdi0yLjI1YzAuMDMtMC4zNS0wLjA1LTAuNjktMC4yMy0wLjk5ICBjLTAuMTgtMC4yLTAuNDQtMC4zMS0wLjctMC4yOGMtMC4zLDAuMDEtMC41NywwLjE1LTAuNzUsMC4zOGMtMC4yMiwwLjI3LTAuMzQsMC42MS0wLjMzLDAuOTV2Mi4ySDE4Ljl2LTIuMjUgIGMwLTAuODQtMC4zMi0xLjI1LTAuOTYtMS4yNWMtMC4zLDAtMC41NywwLjE0LTAuNzUsMC4zOGMtMC4yMSwwLjI5LTAuMzIsMC42My0wLjMsMC45OXYyLjE2aC0wLjM0VjMyLjFoMC4zNHYwLjYyICBjMC4yLTAuNDUsMC42NC0wLjc1LDEuMTQtMC43NWMwLjI2LTAuMDEsMC41MSwwLjA4LDAuNzEsMC4yNGMwLjE5LDAuMTYsMC4zMywwLjM4LDAuMzksMC42MmMwLjEtMC4yNSwwLjI4LTAuNDcsMC41LTAuNjMgIGMwLjIxLTAuMTQsMC40Ni0wLjIyLDAuNzEtMC4yMmMwLjgyLDAsMS4yMywwLjUsMS4yMywxLjV2Mi4zMkwyMS4yNCwzNS44MXoiLz4mI3hhOzxwYXRoIGlkPSJwYXRoMTczMTExIiBpbmtzY2FwZTpjb25uZWN0b3ItY3VydmF0dXJlPSIwIiBzdHlsZT0iZmlsbDojRjJGMkYyOyIgZD0iTTIyLjk3LDMzLjk1Yy0wLjAzLDAuNDMsMC4xLDAuODYsMC4zNiwxLjIxICBjMC4yNCwwLjI5LDAuNjEsMC40NSwwLjk5LDAuNDNjMC40NS0wLjAxLDAuODgtMC4xNywxLjIzLTAuNDZ2MC4zNmMtMC4zOCwwLjI3LTAuODMsMC40Mi0xLjMsMC40MWMtMC40NSwwLjAxLTAuODgtMC4xOC0xLjE3LTAuNTIgIGMtMC4zMy0wLjQzLTAuNDktMC45Ni0wLjQ1LTEuNWMtMC4wMi0wLjUsMC4xNS0wLjk5LDAuNDYtMS4zOGMwLjMtMC4zNywwLjc1LTAuNTgsMS4yMi0wLjU2YzAuNDItMC4wMiwwLjgyLDAuMTYsMS4wNywwLjQ5ICBjMC4yNywwLjM5LDAuNCwwLjg2LDAuMzgsMS4zNHYwLjE1TDIyLjk3LDMzLjk1eiBNMjUuNCwzMy42NGMwLTAuMzYtMC4xMS0wLjcxLTAuMzItMWMtMC4xOS0wLjI1LTAuNDgtMC40LTAuOC0wLjM5ICBjLTAuMzItMC4wMS0wLjY0LDAuMTItMC44NiwwLjM1Yy0wLjI1LDAuMjgtMC40LDAuNjMtMC40MywxLjAxTDI1LjQsMzMuNjR6Ii8+JiN4YTs8cGF0aCBpZD0icGF0aDE3MzExNiIgaW5rc2NhcGU6Y29ubmVjdG9yLWN1cnZhdHVyZT0iMCIgc3R5bGU9ImZpbGw6I0YyRjJGMjsiIGQ9Ik0zMC4wNCwzNS44MWgtMC4zMkwyOC45MSwzMyAgYy0wLjAzLTAuMS0wLjA1LTAuMjEtMC4wNi0wLjMxYy0wLjAyLDAuMS0wLjA1LDAuMi0wLjA4LDAuM2wtMC45MSwyLjg0aC0wLjMybC0xLjEzLTMuNzVoMC4zN2wwLjg3LDNjMC4wMywwLjEsMC4wNSwwLjIxLDAuMDYsMC4zMSAgYzAuMDEtMC4xMSwwLjAzLTAuMjEsMC4wNi0wLjMxbDAuOTYtM2gwLjIzbDAuODUsM2MwLjAyLDAuMSwwLjA0LDAuMjEsMC4wNSwwLjMxYzAuMDEtMC4xMSwwLjAzLTAuMjEsMC4wNi0wLjMxbDAuODktM2gwLjM1ICBMMzAuMDQsMzUuODF6Ii8+JiN4YTs8cGF0aCBpZD0icGF0aDE3MzEyMSIgaW5rc2NhcGU6Y29ubmVjdG9yLWN1cnZhdHVyZT0iMCIgc3R5bGU9ImZpbGw6I0YyRjJGMjsiIGQ9Ik0zMy42NCwzNS45Yy0wLjQ5LDAuMDItMC45Ny0wLjE3LTEuMy0wLjU0ICBjLTAuNjYtMC44NC0wLjY2LTIuMDMsMC0yLjg3YzAuMzQtMC4zNSwwLjgyLTAuNTQsMS4zMS0wLjUyYzAuNDgtMC4wMywwLjk1LDAuMTcsMS4yNywwLjUyYzAuMzMsMC40MSwwLjQ5LDAuOTMsMC40NiwxLjQ1ICBjMC4wMywwLjUyLTAuMTQsMS4wMi0wLjQ3LDEuNDJDMzQuNTksMzUuNzIsMzQuMTIsMzUuOTIsMzMuNjQsMzUuOXogTTMzLjY0LDMyLjI4Yy0wLjQtMC4wMi0wLjc5LDAuMTUtMS4wNiwwLjQ1ICBjLTAuMjgsMC4zNS0wLjQyLDAuNzktMC40LDEuMjRjLTAuMDIsMC40MywwLjExLDAuODUsMC4zOCwxLjE5YzAuMjYsMC4zLDAuNjUsMC40NywxLjA1LDAuNDVjMC40LDAuMDIsMC43OS0wLjE0LDEuMDUtMC40NSAgYzAuNDgtMC43NSwwLjQ4LTEuNywwLTIuNDVjLTAuMjUtMC4zLTAuNjEtMC40Ni0xLTAuNDZMMzMuNjQsMzIuMjh6Ii8+JiN4YTs8cGF0aCBpZD0icGF0aDE3MzEyNiIgaW5rc2NhcGU6Y29ubmVjdG9yLWN1cnZhdHVyZT0iMCIgc3R5bGU9ImZpbGw6I0YyRjJGMjsiIGQ9Ik0zOC4yOSwzMi40MWMtMC4xMi0wLjA4LTAuMjYtMC4xMi0wLjQtMC4xMiAgYy0wLjMxLDAuMDEtMC42LDAuMTgtMC43NSwwLjQ2Yy0wLjIyLDAuNC0wLjMzLDAuODUtMC4zLDEuM3YxLjc2aC0wLjMydi0zLjc1aDAuMzN2MC44M2MwLjA4LTAuMjUsMC4yMi0wLjQ3LDAuNDItMC42NCAgYzAuMTgtMC4xNiwwLjQxLTAuMjQsMC42NS0wLjI0YzAuMTMsMCwwLjI2LDAuMDIsMC4zOCwwLjA3VjMyLjQxeiIvPiYjeGE7PHBhdGggaWQ9InBhdGgxNzMxMzEiIGlua3NjYXBlOmNvbm5lY3Rvci1jdXJ2YXR1cmU9IjAiIHN0eWxlPSJmaWxsOiNGMkYyRjI7IiBkPSJNNDEuMzMsMzUuODFsLTEuNzktMS44NXYxLjg1SDM5LjJ2LTUuNTVoMC4zNCAgdjMuNThsMS43MS0xLjc4aDAuNDNsLTEuNzgsMS44MWwxLjkyLDEuOTRMNDEuMzMsMzUuODF6Ii8+JiN4YTs8L3N2Zz4=;fontSize=16;fontColor=#0066CC;" vertex="1" parent="7BHZPBbnNzFtBdcpdKT6-22">
          <mxGeometry x="230" y="50" width="100" height="100" as="geometry" />
        </mxCell>
        <mxCell id="7BHZPBbnNzFtBdcpdKT6-25" value="MVC 5.2.7" style="shape=image;verticalLabelPosition=bottom;labelBackgroundColor=#ffffff;verticalAlign=top;aspect=fixed;imageAspect=0;image=data:image/svg+xml,PHN2ZyB4bWxuczpjYz0iaHR0cDovL2NyZWF0aXZlY29tbW9ucy5vcmcvbnMjIiB4bWxuczpkYz0iaHR0cDovL3B1cmwub3JnL2RjL2VsZW1lbnRzLzEuMS8iIHhtbG5zOmlua3NjYXBlPSJodHRwOi8vd3d3Lmlua3NjYXBlLm9yZy9uYW1lc3BhY2VzL2lua3NjYXBlIiB4bWxuczpyZGY9Imh0dHA6Ly93d3cudzMub3JnLzE5OTkvMDIvMjItcmRmLXN5bnRheC1ucyMiIHhtbG5zOnNvZGlwb2RpPSJodHRwOi8vc29kaXBvZGkuc291cmNlZm9yZ2UubmV0L0RURC9zb2RpcG9kaS0wLmR0ZCIgeG1sbnM6c3ZnPSJodHRwOi8vd3d3LnczLm9yZy8yMDAwL3N2ZyIgeG1sbnM9Imh0dHA6Ly93d3cudzMub3JnLzIwMDAvc3ZnIiB4bWxuczp4bGluaz0iaHR0cDovL3d3dy53My5vcmcvMTk5OS94bGluayIgdmVyc2lvbj0iMS4xIiBpZD0ic3ZnMTg0MjM2IiBpbmtzY2FwZTp2ZXJzaW9uPSIwLjkyLjMgKDI0MDU1NDYsIDIwMTgtMDMtMTEpIiBzb2RpcG9kaTpkb2NuYW1lPSJtdmMuc3ZnIiB4PSIwcHgiIHk9IjBweCIgdmlld0JveD0iMCAwIDU5LjI3IDM1Ljk3IiBzdHlsZT0iZW5hYmxlLWJhY2tncm91bmQ6bmV3IDAgMCA1OS4yNyAzNS45NzsiIHhtbDpzcGFjZT0icHJlc2VydmUiPiYjeGE7PHNvZGlwb2RpOm5hbWVkdmlldyBib3JkZXJjb2xvcj0iIzY2NjY2NiIgYm9yZGVyb3BhY2l0eT0iMSIgZml0LW1hcmdpbi1ib3R0b209IjAiIGZpdC1tYXJnaW4tbGVmdD0iMCIgZml0LW1hcmdpbi1yaWdodD0iMCIgZml0LW1hcmdpbi10b3A9IjAiIGdyaWR0b2xlcmFuY2U9IjEwIiBndWlkZXRvbGVyYW5jZT0iMTAiIGlkPSJuYW1lZHZpZXcxODQyMzgiIGlua3NjYXBlOmN1cnJlbnQtbGF5ZXI9InN2ZzE4NDIzNiIgaW5rc2NhcGU6Y3g9IjM5LjUxNjIxMiIgaW5rc2NhcGU6Y3k9IjIzLjk4MDk0OSIgaW5rc2NhcGU6cGFnZW9wYWNpdHk9IjAiIGlua3NjYXBlOnBhZ2VzaGFkb3c9IjIiIGlua3NjYXBlOndpbmRvdy1oZWlnaHQ9IjEwMTciIGlua3NjYXBlOndpbmRvdy1tYXhpbWl6ZWQ9IjEiIGlua3NjYXBlOndpbmRvdy13aWR0aD0iMTkyMCIgaW5rc2NhcGU6d2luZG93LXg9Ii04IiBpbmtzY2FwZTp3aW5kb3cteT0iLTgiIGlua3NjYXBlOnpvb209IjE3LjM5MTEzMiIgb2JqZWN0dG9sZXJhbmNlPSIxMCIgcGFnZWNvbG9yPSIjZmZmZmZmIiBzaG93Z3JpZD0iZmFsc2UiPiYjeGE7CTwvc29kaXBvZGk6bmFtZWR2aWV3PiYjeGE7PGcgaWQ9ImcxODQyMzQiIHRyYW5zZm9ybT0idHJhbnNsYXRlKC0xLjI2MjgyOTIsLTAuNzEwNzYxMjcpIj4mI3hhOwk8dGl0bGUgaWQ9InRpdGxlMTg0MTU5Ij5QYWdlLTE8L3RpdGxlPiYjeGE7CTxnIGlkPSJncm91cDc1NS0xIiB0cmFuc2Zvcm09InRyYW5zbGF0ZSgxLjUsLTEuNSkiPiYjeGE7CQk8dGl0bGUgaWQ9InRpdGxlMTg0MTYxIj5NVkM8L3RpdGxlPiYjeGE7CQk8ZyBpZD0ic2hhcGU3NTYtMiI+JiN4YTsJCQk8dGl0bGUgaWQ9InRpdGxlMTg0MTYzIj5wb2x5Z29uMjI4MTwvdGl0bGU+JiN4YTsJCQkmI3hhOwkJCQk8cGF0aCBpZD0icGF0aDE4NDE2NSIgaW5rc2NhcGU6Y29ubmVjdG9yLWN1cnZhdHVyZT0iMCIgc3R5bGU9ImZpbGw6IzU1NkE4QTtzdHJva2U6I0FBQjVDNTtzdHJva2Utd2lkdGg6MS41O3N0cm9rZS1taXRlcmxpbWl0OjM7IiBkPSIgICAgIE0yOS40LDE3Ljc5bDI5LjQsOS44bC0yOS40LDkuOEwwLDI3LjU5TDI5LjQsMTcuNzl6Ii8+JiN4YTsJCTwvZz4mI3hhOwkJPGcgaWQ9InNoYXBlNzU3LTQiIHRyYW5zZm9ybT0idHJhbnNsYXRlKDAsLTcuMzk0MzcpIj4mI3hhOwkJCTx0aXRsZSBpZD0idGl0bGUxODQxNjgiPnBvbHlnb24yMjgzPC90aXRsZT4mI3hhOwkJCSYjeGE7CQkJCTxwYXRoIGlkPSJwYXRoMTg0MTcwIiBpbmtzY2FwZTpjb25uZWN0b3ItY3VydmF0dXJlPSIwIiBzdHlsZT0iZmlsbDojNzY2MjkxO3N0cm9rZTojQUFCNUM1O3N0cm9rZS13aWR0aDoxLjU7c3Ryb2tlLW1pdGVybGltaXQ6MzsiIGQ9IiAgICAgTTI5LjQsMTcuNzlsMjkuNCw5LjhsLTI5LjQsOS44TDAsMjcuNTlMMjkuNCwxNy43OXoiLz4mI3hhOwkJPC9nPiYjeGE7CQk8ZyBpZD0ic2hhcGU3NTgtNiIgdHJhbnNmb3JtPSJ0cmFuc2xhdGUoMCwtMTQuNzg4NykiPiYjeGE7CQkJPHRpdGxlIGlkPSJ0aXRsZTE4NDE3MyI+cGF0aDIyODU8L3RpdGxlPiYjeGE7CQkJPHBhdGggaWQ9InBhdGgxODQxNzUiIGlua3NjYXBlOmNvbm5lY3Rvci1jdXJ2YXR1cmU9IjAiIHN0eWxlPSJmaWxsOiNGRkZGRkY7IiBkPSJNNTguOCwyNy41OWMtOS44MiwzLjE5LTE5LjYyLDYuNDgtMjkuNCw5LjggICAgIGMtOS43Mi0zLjQ3LTE5LjU3LTYuNjYtMjkuNC05LjhjOS44MS0zLjIzLDE5LjU5LTYuNTUsMjkuNC05LjhDMzkuMTksMjEuMDksNDkuMDIsMjQuMjgsNTguOCwyNy41OXoiLz4mI3hhOwkJPC9nPiYjeGE7CQk8ZyBpZD0ic2hhcGU3NTktOCIgdHJhbnNmb3JtPSJ0cmFuc2xhdGUoNi4zODU3NywtMjAuNzg3KSI+JiN4YTsJCQk8dGl0bGUgaWQ9InRpdGxlMTg0MTc4Ij5wYXRoMjI4NzwvdGl0bGU+JiN4YTsJCQk8cGF0aCBpZD0icGF0aDE4NDE4MCIgaW5rc2NhcGU6Y29ubmVjdG9yLWN1cnZhdHVyZT0iMCIgc3R5bGU9ImZpbGw6I0Q0REFFMjsiIGQ9Ik0zNC4yNiwyOC40OGMtOC42LDIuOTYtMTcuMiw1LjkzLTI1Ljc5LDguOTEgICAgIEM1LjY1LDM2LjQ2LDIuODIsMzUuNTMsMCwzNC42MWM4LjctMi45MywxNy4zOS01Ljg5LDI2LjA4LTguODJMMzQuMjYsMjguNDh6Ii8+JiN4YTsJCTwvZz4mI3hhOwkJPGcgaWQ9InNoYXBlNzYwLTEwIiB0cmFuc2Zvcm09InRyYW5zbGF0ZSgxNS45MDY4LC0xNy42MDQ1KSI+JiN4YTsJCQk8dGl0bGUgaWQ9InRpdGxlMTg0MTgzIj5wYXRoMjI4OTwvdGl0bGU+JiN4YTsJCQk8cGF0aCBpZD0icGF0aDE4NDE4NSIgaW5rc2NhcGU6Y29ubmVjdG9yLWN1cnZhdHVyZT0iMCIgc3R5bGU9ImZpbGw6I0FBQjVDNTsiIGQ9Ik0xNywzNC40MWMtMi44MywwLjk5LTUuNjYsMS45OC04LjUsMi45OCAgICAgQzUuNjcsMzYuNDQsMi44NCwzNS41LDAsMzQuNTZsOC40NS0yLjkzQzExLjMsMzIuNTUsMTQuMTUsMzMuNDgsMTcsMzQuNDF6Ii8+JiN4YTsJCTwvZz4mI3hhOwkJPGcgaWQ9InNoYXBlNzYxLTEyIiB0cmFuc2Zvcm09InRyYW5zbGF0ZSg0My4yMTg2LC0yMS42NTY2KSI+JiN4YTsJCQk8dGl0bGUgaWQ9InRpdGxlMTg0MTg4Ij5wYXRoMjI5MTwvdGl0bGU+JiN4YTsJCQk8cGF0aCBpZD0icGF0aDE4NDE5MCIgaW5rc2NhcGU6Y29ubmVjdG9yLWN1cnZhdHVyZT0iMCIgc3R5bGU9ImZpbGw6I0FBQjVDNTsiIGQ9Ik0xMy43OSwzNC43NWMtMi42NSwwLjg3LTUuMjksMS43NS03LjkzLDIuNjQgICAgIEwwLDM1LjVsNy44My0yLjcyQzEwLjg1LDMzLjc4LDEyLjE5LDM0LjIyLDEzLjc5LDM0Ljc1eiIvPiYjeGE7CQk8L2c+JiN4YTsJCTxnIGlkPSJzaGFwZTc2Mi0xNCIgdHJhbnNmb3JtPSJ0cmFuc2xhdGUoMjUuMDA3NywtMjAuODA3NykiPiYjeGE7CQkJPHRpdGxlIGlkPSJ0aXRsZTE4NDE5MyI+cGF0aDIyOTM8L3RpdGxlPiYjeGE7CQkJPHBhdGggaWQ9InBhdGgxODQxOTUiIGlua3NjYXBlOmNvbm5lY3Rvci1jdXJ2YXR1cmU9IjAiIHN0eWxlPSJmaWxsOiNENERBRTI7IiBkPSJNMjUuMTYsMzEuNjRjLTUuNTQsMS45MS0xMS4wNywzLjgzLTE2LjYsNS43NSAgICAgQzUuNzEsMzYuNDYsMi44NSwzNS41MywwLDM0LjZjNS41Ni0xLjkyLDExLjEyLTMuODQsMTYuNjgtNS43NkwyNS4xNiwzMS42NHoiLz4mI3hhOwkJPC9nPiYjeGE7CQk8ZyBpZD0ic2hhcGU3NjMtMTYiIHRyYW5zZm9ybT0idHJhbnNsYXRlKDI1LjI4ODcsLTE1LjQ2MzEpIj4mI3hhOwkJCTx0aXRsZSBpZD0idGl0bGUxODQxOTgiPnBhdGgyMjk1PC90aXRsZT4mI3hhOwkJCTxwYXRoIGlkPSJwYXRoMTg0MjAwIiBpbmtzY2FwZTpjb25uZWN0b3ItY3VydmF0dXJlPSIwIiBzdHlsZT0iZmlsbDojRDREQUUyOyIgZD0iTTIzLjE0LDMxLjQxYy01LjkxLDEuOTctMTEuODIsMy45Ni0xNy43Miw1Ljk4ICAgICBjLTEuMjUtMC40NC0yLjUtMC44Ny01LjQyLTEuODVjNS43Ni0yLjAzLDExLjUzLTQuMDQsMTcuMy02LjA0TDIzLjE0LDMxLjQxeiIvPiYjeGE7CQk8L2c+JiN4YTsJCTxnIGlkPSJzaGFwZTc2NC0xOCIgdHJhbnNmb3JtPSJ0cmFuc2xhdGUoMi44MzY0OCwtMjQuMTE3NSkiPiYjeGE7CQkJPHRpdGxlIGlkPSJ0aXRsZTE4NDIwMyI+cGF0aDIyOTc8L3RpdGxlPiYjeGE7CQkJPHBhdGggaWQ9InBhdGgxODQyMDUiIGlua3NjYXBlOmNvbm5lY3Rvci1jdXJ2YXR1cmU9IjAiIHN0eWxlPSJmaWxsOiNBQUI1QzU7IiBkPSJNNS42MiwzNi4xM2wtMy43NiwxLjI2TDAsMzYuOGwzLjc3LTEuMjYgICAgIEw1LjYyLDM2LjEzeiIvPiYjeGE7CQk8L2c+JiN4YTsJCTxnIGlkPSJzaGFwZTc2NS0yMCIgdHJhbnNmb3JtPSJ0cmFuc2xhdGUoOC4xNDU2MywtMjUuODk1MSkiPiYjeGE7CQkJPHRpdGxlIGlkPSJ0aXRsZTE4NDIwOCI+cGF0aDIyOTk8L3RpdGxlPiYjeGE7CQkJPHBhdGggaWQ9InBhdGgxODQyMTAiIGlua3NjYXBlOmNvbm5lY3Rvci1jdXJ2YXR1cmU9IjAiIHN0eWxlPSJmaWxsOiNBQUI1QzU7IiBkPSJNNi4wMiwzNS45OGwtNC4xNywxLjQxTDAsMzYuOGw0LjE4LTEuNCAgICAgTDYuMDIsMzUuOTh6Ii8+JiN4YTsJCTwvZz4mI3hhOwkJPGcgaWQ9InNoYXBlNzY2LTIyIiB0cmFuc2Zvcm09InRyYW5zbGF0ZSgxMy45NjM1LC0yNy44NTMxKSI+JiN4YTsJCQk8dGl0bGUgaWQ9InRpdGxlMTg0MjEzIj5wYXRoMjMwMTwvdGl0bGU+JiN4YTsJCQk8cGF0aCBpZD0icGF0aDE4NDIxNSIgaW5rc2NhcGU6Y29ubmVjdG9yLWN1cnZhdHVyZT0iMCIgc3R5bGU9ImZpbGw6I0FBQjVDNTsiIGQ9Ik02LjEyLDM1Ljk1bC00LjI4LDEuNDRMMCwzNi44bDQuMjktMS40NCAgICAgTDYuMTIsMzUuOTV6Ii8+JiN4YTsJCTwvZz4mI3hhOwkJPGcgaWQ9InNoYXBlNzY3LTI0IiB0cmFuc2Zvcm09InRyYW5zbGF0ZSgxOS44NzksLTI5Ljg1NTUpIj4mI3hhOwkJCTx0aXRsZSBpZD0idGl0bGUxODQyMTgiPnBhdGgyMzAzPC90aXRsZT4mI3hhOwkJCTxwYXRoIGlkPSJwYXRoMTg0MjIwIiBpbmtzY2FwZTpjb25uZWN0b3ItY3VydmF0dXJlPSIwIiBzdHlsZT0iZmlsbDojQUFCNUM1OyIgZD0iTTUuOSwzNi4wM2wtNC4wNywxLjM2TDAsMzYuOGw0LjA5LTEuMzggICAgIEw1LjksMzYuMDN6Ii8+JiN4YTsJCTwvZz4mI3hhOwkJPGcgaWQ9InNoYXBlNzY4LTI2IiB0cmFuc2Zvcm09InRyYW5zbGF0ZSgyNS40NjkyLC0zMS43MTg5KSI+JiN4YTsJCQk8dGl0bGUgaWQ9InRpdGxlMTg0MjIzIj5wYXRoMjMwNTwvdGl0bGU+JiN4YTsJCQk8cGF0aCBpZD0icGF0aDE4NDIyNSIgaW5rc2NhcGU6Y29ubmVjdG9yLWN1cnZhdHVyZT0iMCIgc3R5bGU9ImZpbGw6I0FBQjVDNTsiIGQ9Ik01LjM4LDM2LjE5bC0zLjU4LDEuMkwwLDM2LjhsMy42MS0xLjIxICAgICBMNS4zOCwzNi4xOXoiLz4mI3hhOwkJPC9nPiYjeGE7CQk8ZyBpZD0ic2hhcGU3NjktMjgiIHRyYW5zZm9ybT0idHJhbnNsYXRlKDAsLTE0Ljc4ODcpIj4mI3hhOwkJCTx0aXRsZSBpZD0idGl0bGUxODQyMjgiPnBvbHlnb24yMzA3PC90aXRsZT4mI3hhOwkJCSYjeGE7CQkJCTxwYXRoIGlkPSJwYXRoMTg0MjMwIiBpbmtzY2FwZTpjb25uZWN0b3ItY3VydmF0dXJlPSIwIiBzdHlsZT0iZmlsbDpub25lO3N0cm9rZTojQUFCNUM1O3N0cm9rZS13aWR0aDoxLjU7c3Ryb2tlLW1pdGVybGltaXQ6MzsiIGQ9IiAgICAgTTI5LjQsMTcuNzlsMjkuNCw5LjhsLTI5LjQsOS44TDAsMjcuNTlMMjkuNCwxNy43OXoiLz4mI3hhOwkJPC9nPiYjeGE7CTwvZz4mI3hhOzwvZz4mI3hhOzwvc3ZnPg==;comic=0;fontSize=16;fontColor=#0066CC;" vertex="1" parent="7BHZPBbnNzFtBdcpdKT6-22">
          <mxGeometry x="380" y="50" width="180.28" height="110" as="geometry" />
        </mxCell>
        <mxCell id="7BHZPBbnNzFtBdcpdKT6-27" value="Certificado&#xa;Digital" style="shape=image;verticalLabelPosition=bottom;labelBackgroundColor=#ffffff;verticalAlign=top;aspect=fixed;imageAspect=0;image=data:image/svg+xml,PHN2ZyB4bWxuczpjYz0iaHR0cDovL2NyZWF0aXZlY29tbW9ucy5vcmcvbnMjIiB4bWxuczpkYz0iaHR0cDovL3B1cmwub3JnL2RjL2VsZW1lbnRzLzEuMS8iIHhtbG5zOmlua3NjYXBlPSJodHRwOi8vd3d3Lmlua3NjYXBlLm9yZy9uYW1lc3BhY2VzL2lua3NjYXBlIiB4bWxuczpyZGY9Imh0dHA6Ly93d3cudzMub3JnLzE5OTkvMDIvMjItcmRmLXN5bnRheC1ucyMiIHhtbG5zOnNvZGlwb2RpPSJodHRwOi8vc29kaXBvZGkuc291cmNlZm9yZ2UubmV0L0RURC9zb2RpcG9kaS0wLmR0ZCIgeG1sbnM6c3ZnPSJodHRwOi8vd3d3LnczLm9yZy8yMDAwL3N2ZyIgeG1sbnM9Imh0dHA6Ly93d3cudzMub3JnLzIwMDAvc3ZnIiB4bWxuczp4bGluaz0iaHR0cDovL3d3dy53My5vcmcvMTk5OS94bGluayIgdmVyc2lvbj0iMS4xIiBpZD0ic3ZnNDg4OTYiIGlua3NjYXBlOnZlcnNpb249IjAuOTIuMyAoMjQwNTU0NiwgMjAxOC0wMy0xMSkiIHNvZGlwb2RpOmRvY25hbWU9ImFwaV9hcHBzLnN2ZyIgeD0iMHB4IiB5PSIwcHgiIHZpZXdCb3g9IjAgMCA3NS41MiA2NC41MiIgc3R5bGU9ImVuYWJsZS1iYWNrZ3JvdW5kOm5ldyAwIDAgNzUuNTIgNjQuNTI7IiB4bWw6c3BhY2U9InByZXNlcnZlIj4mI3hhOzxmaWx0ZXIgaWQ9ImZpbHRlcl8yIj4mI3hhOwk8ZmVHYXVzc2lhbkJsdXIgaWQ9ImZlR2F1c3NpYW5CbHVyNDg4NDUiIHN0ZERldmlhdGlvbj0iMiIvPiYjeGE7PC9maWx0ZXI+JiN4YTs8c29kaXBvZGk6bmFtZWR2aWV3IGJvcmRlcmNvbG9yPSIjNjY2NjY2IiBib3JkZXJvcGFjaXR5PSIxIiBmaXQtbWFyZ2luLWJvdHRvbT0iMCIgZml0LW1hcmdpbi1sZWZ0PSIwIiBmaXQtbWFyZ2luLXJpZ2h0PSIwIiBmaXQtbWFyZ2luLXRvcD0iMCIgZ3JpZHRvbGVyYW5jZT0iMTAiIGd1aWRldG9sZXJhbmNlPSIxMCIgaWQ9Im5hbWVkdmlldzQ4ODk4IiBpbmtzY2FwZTpjdXJyZW50LWxheWVyPSJzdmc0ODg5NiIgaW5rc2NhcGU6Y3g9IjU3LjkzMjgyOCIgaW5rc2NhcGU6Y3k9IjUwLjYxMzU1MSIgaW5rc2NhcGU6cGFnZW9wYWNpdHk9IjAiIGlua3NjYXBlOnBhZ2VzaGFkb3c9IjIiIGlua3NjYXBlOndpbmRvdy1oZWlnaHQ9IjEwMTciIGlua3NjYXBlOndpbmRvdy1tYXhpbWl6ZWQ9IjEiIGlua3NjYXBlOndpbmRvdy13aWR0aD0iMTkyMCIgaW5rc2NhcGU6d2luZG93LXg9Ii04IiBpbmtzY2FwZTp3aW5kb3cteT0iLTgiIGlua3NjYXBlOnpvb209IjUuMTc2NDI5OSIgb2JqZWN0dG9sZXJhbmNlPSIxMCIgcGFnZWNvbG9yPSIjZmZmZmZmIiBzaG93Z3JpZD0iZmFsc2UiPiYjeGE7CTwvc29kaXBvZGk6bmFtZWR2aWV3PiYjeGE7PGcgaWQ9InNoYWRvdzQ0MDItMyIgdHJhbnNmb3JtPSJ0cmFuc2xhdGUoMC4zNDU1MTQ1NiwtMjIuMzIyMykiPiYjeGE7CTxnIGlkPSJwYXRoNDg4NTUiIGlua3NjYXBlOmNvbm5lY3Rvci1jdXJ2YXR1cmU9IjAiIHN0eWxlPSJmaWx0ZXI6dXJsKCNmaWx0ZXJfMik7Ij4mI3hhOwkJPHBhdGggc3R5bGU9Im9wYWNpdHk6MC4yMjtmaWxsOiM1QjlCRDU7IiBkPSJNMCw4NS44YzAsMS42NywxLjM2LDMuMDIsMy4wMiwzLjAySDcyLjVjMS42NiwwLDMuMDItMS4zNSwzLjAyLTMuMDJWMzguNTNIMFY4NS44eiIvPiYjeGE7CTwvZz4mI3hhOzwvZz4mI3hhOzxwYXRoIGlkPSJwYXRoNDg4NTgiIGlua3NjYXBlOmNvbm5lY3Rvci1jdXJ2YXR1cmU9IjAiIHN0eWxlPSJmaWxsOiM1OUI0RDk7IiBkPSJNMCw2MS41YzAsMS42NywxLjM2LDMuMDIsMy4wMiwzLjAySDcyLjUgIGMxLjY2LDAsMy4wMi0xLjM1LDMuMDItMy4wMlYxNC4yM0gwVjYxLjV6Ii8+JiN4YTs8ZyBpZD0ic2hhZG93NDQwMy04IiB0cmFuc2Zvcm09InRyYW5zbGF0ZSgyMS4wMzg2MTUsLTI2LjcwMjU4KSI+JiN4YTsJPGcgaWQ9InBhdGg0ODg2MyIgaW5rc2NhcGU6Y29ubmVjdG9yLWN1cnZhdHVyZT0iMCIgc3R5bGU9ImZpbHRlcjp1cmwoI2ZpbHRlcl8yKTsiPiYjeGE7CQk8cGF0aCBzdHlsZT0ib3BhY2l0eTowLjIyO2ZpbGw6IzVCOUJENTsiIGQ9Ik00NS43NywzNC40NWMwLTEuODEtMS4zNi0zLjE3LTMuMTgtMy4xN2MtMS44MSwwLTMuMTcsMS4zNi0zLjE3LDMuMTd2MzEuODdoLTYuMTkgICAgYy0wLjYtMy42My0yLjQyLTcuMS01LjE0LTkuOTdjLTMuNjItMy42Mi04LjMtNS41OS0xMy40NC01LjU5Yy00Ljk4LDAtOS44MiwxLjk3LTEzLjQ0LDUuNTlDMCw1Ny41NiwwLDU5LjUyLDEuMjEsNjAuODggICAgYzEuMjEsMS4yMSwzLjE3LDEuMjEsNC41MywwYzIuNDItMi40Miw1LjU5LTMuNjIsOC45MS0zLjYyczYuNSwxLjM2LDguOTEsMy42MmM0Ljk5LDQuOTksNC45OSwxMi45OSwwLDE3LjgyICAgIGMtMi40MSwyLjQyLTUuNTksMy42My04LjkxLDMuNjNzLTYuNDktMS4zNi04LjkxLTMuNjNjLTEuMjEtMS4yLTMuMTctMS4yLTQuNTMsMEMwLDc5LjkxLDAsODEuODgsMS4yMSw4My4yNCAgICBjMy42MiwzLjYyLDguMzEsNS41OCwxMy40NCw1LjU4YzQuOTksMCw5LjgyLTEuOTYsMTMuNDQtNS41OGMzLjAzLTMuMDIsNC42OS02LjY1LDUuMjktMTAuNThoOS4yMWMxLjgyLDAsMy4xOC0xLjM2LDMuMTgtMy4xNyAgICBWMzQuNDV6Ii8+JiN4YTsJPC9nPiYjeGE7PC9nPiYjeGE7PHBhdGggaWQ9InBhdGg0ODg2NiIgaW5rc2NhcGU6Y29ubmVjdG9yLWN1cnZhdHVyZT0iMCIgc3R5bGU9ImZpbGw6I0ZGRkZGRjsiIGQ9Ik02Ni40Niw1Ljc3YzAtMS44MS0xLjM2LTMuMTctMy4xOC0zLjE3ICBjLTEuODEsMC0zLjE3LDEuMzYtMy4xNywzLjE3djMxLjg3aC02LjE5Yy0wLjYtMy42My0yLjQyLTcuMS01LjE0LTkuOTdjLTMuNjItMy42Mi04LjMtNS41OS0xMy40NC01LjU5ICBjLTQuOTgsMC05LjgyLDEuOTctMTMuNDQsNS41OWMtMS4yMSwxLjIxLTEuMjEsMy4xNywwLDQuNTNjMS4yMSwxLjIxLDMuMTcsMS4yMSw0LjUzLDBjMi40Mi0yLjQyLDUuNTktMy42Miw4LjkxLTMuNjIgIHM2LjUsMS4zNiw4LjkxLDMuNjJjNC45OSw0Ljk5LDQuOTksMTIuOTksMCwxNy44MmMtMi40MSwyLjQyLTUuNTksMy42My04LjkxLDMuNjNzLTYuNDktMS4zNi04LjkxLTMuNjNjLTEuMjEtMS4yLTMuMTctMS4yLTQuNTMsMCAgYy0xLjIxLDEuMjEtMS4yMSwzLjE4LDAsNC41NGMzLjYyLDMuNjIsOC4zMSw1LjU4LDEzLjQ0LDUuNThjNC45OSwwLDkuODItMS45NiwxMy40NC01LjU4YzMuMDMtMy4wMiw0LjY5LTYuNjUsNS4yOS0xMC41OGg5LjIxICBjMS44MiwwLDMuMTgtMS4zNiwzLjE4LTMuMTdWNS43N3oiLz4mI3hhOzxnIGlkPSJzaGFkb3c0NDA0LTEzIiB0cmFuc2Zvcm09InRyYW5zbGF0ZSg5LjU1OTIxNDYsLTM4LjQ4NCkiPiYjeGE7CTxnIGlkPSJwYXRoNDg4NzEiIGlua3NjYXBlOmNvbm5lY3Rvci1jdXJ2YXR1cmU9IjAiIHN0eWxlPSJmaWx0ZXI6dXJsKCNmaWx0ZXJfMik7Ij4mI3hhOwkJPHBhdGggc3R5bGU9Im9wYWNpdHk6MC4yMjtmaWxsOiM1QjlCRDU7IiBkPSJNMjYuMTMsNzMuNzJjLTMuMDIsMC01LjU5LDEuODEtNi44LDQuMzhINi4xOVY0Ni4yM2MwLTEuODEtMS4zNi0zLjE3LTMuMTctMy4xNyAgICBDMS4zNiw0My4wNiwwLDQ0LjU3LDAsNDYuMjN2MzUuMDRjMCwxLjgyLDEuMzYsMy4xNywzLjE3LDMuMTdoMTYuMzFjMS4yMSwyLjU3LDMuNzgsNC4zOCw2LjgsNC4zOGM0LjIzLDAsNy41NS0zLjMyLDcuNTUtNy41NSAgICBDMzMuNjgsNzcuMDQsMzAuMjEsNzMuNzIsMjYuMTMsNzMuNzJ6Ii8+JiN4YTsJPC9nPiYjeGE7PC9nPiYjeGE7PHBhdGggaWQ9InBhdGg0ODg3NCIgaW5rc2NhcGU6Y29ubmVjdG9yLWN1cnZhdHVyZT0iMCIgc3R5bGU9ImZpbGw6I0ZGRkZGRjsiIGQ9Ik0zNS4zNCwzMy4yNmMtMy4wMiwwLTUuNTksMS44MS02LjgsNC4zOEgxNS40VjUuNzcgIGMwLTEuODEtMS4zNi0zLjE3LTMuMTctMy4xN2MtMS42NiwwLTMuMDIsMS41MS0zLjAyLDMuMTd2MzUuMDRjMCwxLjgyLDEuMzYsMy4xNywzLjE3LDMuMTdoMTYuMzFjMS4yMSwyLjU3LDMuNzgsNC4zOCw2LjgsNC4zOCAgYzQuMjMsMCw3LjU1LTMuMzIsNy41NS03LjU1QzQyLjg5LDM2LjU4LDM5LjQyLDMzLjI2LDM1LjM0LDMzLjI2eiIvPiYjeGE7PGcgaWQ9InNoYWRvdzQ0MDUtMTgiIHRyYW5zZm9ybT0idHJhbnNsYXRlKDAuMzQ1NTE0NTYsLTcyLjE2NjkpIj4mI3hhOwk8ZyBpZD0icGF0aDQ4ODc5IiBpbmtzY2FwZTpjb25uZWN0b3ItY3VydmF0dXJlPSIwIiBzdHlsZT0iZmlsdGVyOnVybCgjZmlsdGVyXzIpOyI+JiN4YTsJCTxwYXRoIHN0eWxlPSJvcGFjaXR5OjAuMjI7ZmlsbDojNUI5QkQ1OyIgZD0iTTcyLjUsNzQuMzJIMy4wMkMxLjM2LDc0LjMyLDAsNzUuNjgsMCw3Ny4zNXYxMS40N2g3NS41MlY3Ny4zNSAgICBDNzUuNTIsNzUuNjgsNzQuMTYsNzQuMzIsNzIuNSw3NC4zMnoiLz4mI3hhOwk8L2c+JiN4YTs8L2c+JiN4YTs8cGF0aCBpZD0icGF0aDQ4ODgyIiBpbmtzY2FwZTpjb25uZWN0b3ItY3VydmF0dXJlPSIwIiBzdHlsZT0iZmlsbDojQTBBMUEyOyIgZD0iTTcyLjUsMC4xOEgzLjAyQzEuMzYsMC4xOCwwLDEuNTQsMCwzLjIxdjExLjQ3ICBoNzUuNTJWMy4yMUM3NS41MiwxLjU0LDc0LjE2LDAuMTgsNzIuNSwwLjE4eiIvPiYjeGE7PGcgaWQ9InNoYWRvdzQ0MDYtMjMiIHRyYW5zZm9ybT0idHJhbnNsYXRlKDAuMzQ1NTE0NTYsLTIyLjMyMjMpIj4mI3hhOwk8ZyBpZD0icGF0aDQ4ODg3IiBpbmtzY2FwZTpjb25uZWN0b3ItY3VydmF0dXJlPSIwIiBzdHlsZT0iZmlsdGVyOnVybCgjZmlsdGVyXzIpOyI+JiN4YTsJCTxwYXRoIHN0eWxlPSJvcGFjaXR5OjAuMjI7ZmlsbDojNUI5QkQ1OyIgZD0iTTMuMDIsMjQuNDhDMS4zNiwyNC40OCwwLDI1Ljg0LDAsMjcuNXYxMS4wM3Y0Ljk4Vjg1LjhjMCwxLjY3LDEuMzYsMy4wMiwzLjAyLDMuMDIgICAgaDMuMzJsNTkuNTItNjQuMzRIMy4wMnoiLz4mI3hhOwk8L2c+JiN4YTs8L2c+JiN4YTs8cGF0aCBpZD0icGF0aDQ4ODkwIiBpbmtzY2FwZTpjb25uZWN0b3ItY3VydmF0dXJlPSIwIiBzdHlsZT0iZmlsbDojRkZGRkZGO2ZpbGwtb3BhY2l0eTowLjI7IiBkPSJNMy4wMiwwLjE4ICBDMS4zNiwwLjE4LDAsMS41NCwwLDMuMnYxMS4wM3Y0Ljk4VjYxLjVjMCwxLjY3LDEuMzYsMy4wMiwzLjAyLDMuMDJoMy4zMkw2NS44NiwwLjE4SDMuMDJ6Ii8+JiN4YTs8L3N2Zz4=;rounded=1;glass=0;comic=0;fontSize=20;fontColor=#0066CC;strokeWidth=1;gradientColor=none;" vertex="1" parent="7BHZPBbnNzFtBdcpdKT6-22">
          <mxGeometry x="44" y="205" width="76" height="65" as="geometry" />
        </mxCell>
        <mxCell id="7BHZPBbnNzFtBdcpdKT6-28" value="Integração &#xa;Whatsapp" style="shape=image;verticalLabelPosition=bottom;labelBackgroundColor=#ffffff;verticalAlign=top;aspect=fixed;imageAspect=0;image=data:image/svg+xml,PHN2ZyB4bWxuczpjYz0iaHR0cDovL2NyZWF0aXZlY29tbW9ucy5vcmcvbnMjIiB4bWxuczpkYz0iaHR0cDovL3B1cmwub3JnL2RjL2VsZW1lbnRzLzEuMS8iIHhtbG5zOmlua3NjYXBlPSJodHRwOi8vd3d3Lmlua3NjYXBlLm9yZy9uYW1lc3BhY2VzL2lua3NjYXBlIiB4bWxuczpyZGY9Imh0dHA6Ly93d3cudzMub3JnLzE5OTkvMDIvMjItcmRmLXN5bnRheC1ucyMiIHhtbG5zOnNvZGlwb2RpPSJodHRwOi8vc29kaXBvZGkuc291cmNlZm9yZ2UubmV0L0RURC9zb2RpcG9kaS0wLmR0ZCIgeG1sbnM6c3ZnPSJodHRwOi8vd3d3LnczLm9yZy8yMDAwL3N2ZyIgeG1sbnM9Imh0dHA6Ly93d3cudzMub3JnLzIwMDAvc3ZnIiB4bWxuczp4bGluaz0iaHR0cDovL3d3dy53My5vcmcvMTk5OS94bGluayIgdmVyc2lvbj0iMS4xIiBpZD0ic3ZnNDg4OTYiIGlua3NjYXBlOnZlcnNpb249IjAuOTIuMyAoMjQwNTU0NiwgMjAxOC0wMy0xMSkiIHNvZGlwb2RpOmRvY25hbWU9ImFwaV9hcHBzLnN2ZyIgeD0iMHB4IiB5PSIwcHgiIHZpZXdCb3g9IjAgMCA3NS41MiA2NC41MiIgc3R5bGU9ImVuYWJsZS1iYWNrZ3JvdW5kOm5ldyAwIDAgNzUuNTIgNjQuNTI7IiB4bWw6c3BhY2U9InByZXNlcnZlIj4mI3hhOzxmaWx0ZXIgaWQ9ImZpbHRlcl8yIj4mI3hhOwk8ZmVHYXVzc2lhbkJsdXIgaWQ9ImZlR2F1c3NpYW5CbHVyNDg4NDUiIHN0ZERldmlhdGlvbj0iMiIvPiYjeGE7PC9maWx0ZXI+JiN4YTs8c29kaXBvZGk6bmFtZWR2aWV3IGJvcmRlcmNvbG9yPSIjNjY2NjY2IiBib3JkZXJvcGFjaXR5PSIxIiBmaXQtbWFyZ2luLWJvdHRvbT0iMCIgZml0LW1hcmdpbi1sZWZ0PSIwIiBmaXQtbWFyZ2luLXJpZ2h0PSIwIiBmaXQtbWFyZ2luLXRvcD0iMCIgZ3JpZHRvbGVyYW5jZT0iMTAiIGd1aWRldG9sZXJhbmNlPSIxMCIgaWQ9Im5hbWVkdmlldzQ4ODk4IiBpbmtzY2FwZTpjdXJyZW50LWxheWVyPSJzdmc0ODg5NiIgaW5rc2NhcGU6Y3g9IjU3LjkzMjgyOCIgaW5rc2NhcGU6Y3k9IjUwLjYxMzU1MSIgaW5rc2NhcGU6cGFnZW9wYWNpdHk9IjAiIGlua3NjYXBlOnBhZ2VzaGFkb3c9IjIiIGlua3NjYXBlOndpbmRvdy1oZWlnaHQ9IjEwMTciIGlua3NjYXBlOndpbmRvdy1tYXhpbWl6ZWQ9IjEiIGlua3NjYXBlOndpbmRvdy13aWR0aD0iMTkyMCIgaW5rc2NhcGU6d2luZG93LXg9Ii04IiBpbmtzY2FwZTp3aW5kb3cteT0iLTgiIGlua3NjYXBlOnpvb209IjUuMTc2NDI5OSIgb2JqZWN0dG9sZXJhbmNlPSIxMCIgcGFnZWNvbG9yPSIjZmZmZmZmIiBzaG93Z3JpZD0iZmFsc2UiPiYjeGE7CTwvc29kaXBvZGk6bmFtZWR2aWV3PiYjeGE7PGcgaWQ9InNoYWRvdzQ0MDItMyIgdHJhbnNmb3JtPSJ0cmFuc2xhdGUoMC4zNDU1MTQ1NiwtMjIuMzIyMykiPiYjeGE7CTxnIGlkPSJwYXRoNDg4NTUiIGlua3NjYXBlOmNvbm5lY3Rvci1jdXJ2YXR1cmU9IjAiIHN0eWxlPSJmaWx0ZXI6dXJsKCNmaWx0ZXJfMik7Ij4mI3hhOwkJPHBhdGggc3R5bGU9Im9wYWNpdHk6MC4yMjtmaWxsOiM1QjlCRDU7IiBkPSJNMCw4NS44YzAsMS42NywxLjM2LDMuMDIsMy4wMiwzLjAySDcyLjVjMS42NiwwLDMuMDItMS4zNSwzLjAyLTMuMDJWMzguNTNIMFY4NS44eiIvPiYjeGE7CTwvZz4mI3hhOzwvZz4mI3hhOzxwYXRoIGlkPSJwYXRoNDg4NTgiIGlua3NjYXBlOmNvbm5lY3Rvci1jdXJ2YXR1cmU9IjAiIHN0eWxlPSJmaWxsOiM1OUI0RDk7IiBkPSJNMCw2MS41YzAsMS42NywxLjM2LDMuMDIsMy4wMiwzLjAySDcyLjUgIGMxLjY2LDAsMy4wMi0xLjM1LDMuMDItMy4wMlYxNC4yM0gwVjYxLjV6Ii8+JiN4YTs8ZyBpZD0ic2hhZG93NDQwMy04IiB0cmFuc2Zvcm09InRyYW5zbGF0ZSgyMS4wMzg2MTUsLTI2LjcwMjU4KSI+JiN4YTsJPGcgaWQ9InBhdGg0ODg2MyIgaW5rc2NhcGU6Y29ubmVjdG9yLWN1cnZhdHVyZT0iMCIgc3R5bGU9ImZpbHRlcjp1cmwoI2ZpbHRlcl8yKTsiPiYjeGE7CQk8cGF0aCBzdHlsZT0ib3BhY2l0eTowLjIyO2ZpbGw6IzVCOUJENTsiIGQ9Ik00NS43NywzNC40NWMwLTEuODEtMS4zNi0zLjE3LTMuMTgtMy4xN2MtMS44MSwwLTMuMTcsMS4zNi0zLjE3LDMuMTd2MzEuODdoLTYuMTkgICAgYy0wLjYtMy42My0yLjQyLTcuMS01LjE0LTkuOTdjLTMuNjItMy42Mi04LjMtNS41OS0xMy40NC01LjU5Yy00Ljk4LDAtOS44MiwxLjk3LTEzLjQ0LDUuNTlDMCw1Ny41NiwwLDU5LjUyLDEuMjEsNjAuODggICAgYzEuMjEsMS4yMSwzLjE3LDEuMjEsNC41MywwYzIuNDItMi40Miw1LjU5LTMuNjIsOC45MS0zLjYyczYuNSwxLjM2LDguOTEsMy42MmM0Ljk5LDQuOTksNC45OSwxMi45OSwwLDE3LjgyICAgIGMtMi40MSwyLjQyLTUuNTksMy42My04LjkxLDMuNjNzLTYuNDktMS4zNi04LjkxLTMuNjNjLTEuMjEtMS4yLTMuMTctMS4yLTQuNTMsMEMwLDc5LjkxLDAsODEuODgsMS4yMSw4My4yNCAgICBjMy42MiwzLjYyLDguMzEsNS41OCwxMy40NCw1LjU4YzQuOTksMCw5LjgyLTEuOTYsMTMuNDQtNS41OGMzLjAzLTMuMDIsNC42OS02LjY1LDUuMjktMTAuNThoOS4yMWMxLjgyLDAsMy4xOC0xLjM2LDMuMTgtMy4xNyAgICBWMzQuNDV6Ii8+JiN4YTsJPC9nPiYjeGE7PC9nPiYjeGE7PHBhdGggaWQ9InBhdGg0ODg2NiIgaW5rc2NhcGU6Y29ubmVjdG9yLWN1cnZhdHVyZT0iMCIgc3R5bGU9ImZpbGw6I0ZGRkZGRjsiIGQ9Ik02Ni40Niw1Ljc3YzAtMS44MS0xLjM2LTMuMTctMy4xOC0zLjE3ICBjLTEuODEsMC0zLjE3LDEuMzYtMy4xNywzLjE3djMxLjg3aC02LjE5Yy0wLjYtMy42My0yLjQyLTcuMS01LjE0LTkuOTdjLTMuNjItMy42Mi04LjMtNS41OS0xMy40NC01LjU5ICBjLTQuOTgsMC05LjgyLDEuOTctMTMuNDQsNS41OWMtMS4yMSwxLjIxLTEuMjEsMy4xNywwLDQuNTNjMS4yMSwxLjIxLDMuMTcsMS4yMSw0LjUzLDBjMi40Mi0yLjQyLDUuNTktMy42Miw4LjkxLTMuNjIgIHM2LjUsMS4zNiw4LjkxLDMuNjJjNC45OSw0Ljk5LDQuOTksMTIuOTksMCwxNy44MmMtMi40MSwyLjQyLTUuNTksMy42My04LjkxLDMuNjNzLTYuNDktMS4zNi04LjkxLTMuNjNjLTEuMjEtMS4yLTMuMTctMS4yLTQuNTMsMCAgYy0xLjIxLDEuMjEtMS4yMSwzLjE4LDAsNC41NGMzLjYyLDMuNjIsOC4zMSw1LjU4LDEzLjQ0LDUuNThjNC45OSwwLDkuODItMS45NiwxMy40NC01LjU4YzMuMDMtMy4wMiw0LjY5LTYuNjUsNS4yOS0xMC41OGg5LjIxICBjMS44MiwwLDMuMTgtMS4zNiwzLjE4LTMuMTdWNS43N3oiLz4mI3hhOzxnIGlkPSJzaGFkb3c0NDA0LTEzIiB0cmFuc2Zvcm09InRyYW5zbGF0ZSg5LjU1OTIxNDYsLTM4LjQ4NCkiPiYjeGE7CTxnIGlkPSJwYXRoNDg4NzEiIGlua3NjYXBlOmNvbm5lY3Rvci1jdXJ2YXR1cmU9IjAiIHN0eWxlPSJmaWx0ZXI6dXJsKCNmaWx0ZXJfMik7Ij4mI3hhOwkJPHBhdGggc3R5bGU9Im9wYWNpdHk6MC4yMjtmaWxsOiM1QjlCRDU7IiBkPSJNMjYuMTMsNzMuNzJjLTMuMDIsMC01LjU5LDEuODEtNi44LDQuMzhINi4xOVY0Ni4yM2MwLTEuODEtMS4zNi0zLjE3LTMuMTctMy4xNyAgICBDMS4zNiw0My4wNiwwLDQ0LjU3LDAsNDYuMjN2MzUuMDRjMCwxLjgyLDEuMzYsMy4xNywzLjE3LDMuMTdoMTYuMzFjMS4yMSwyLjU3LDMuNzgsNC4zOCw2LjgsNC4zOGM0LjIzLDAsNy41NS0zLjMyLDcuNTUtNy41NSAgICBDMzMuNjgsNzcuMDQsMzAuMjEsNzMuNzIsMjYuMTMsNzMuNzJ6Ii8+JiN4YTsJPC9nPiYjeGE7PC9nPiYjeGE7PHBhdGggaWQ9InBhdGg0ODg3NCIgaW5rc2NhcGU6Y29ubmVjdG9yLWN1cnZhdHVyZT0iMCIgc3R5bGU9ImZpbGw6I0ZGRkZGRjsiIGQ9Ik0zNS4zNCwzMy4yNmMtMy4wMiwwLTUuNTksMS44MS02LjgsNC4zOEgxNS40VjUuNzcgIGMwLTEuODEtMS4zNi0zLjE3LTMuMTctMy4xN2MtMS42NiwwLTMuMDIsMS41MS0zLjAyLDMuMTd2MzUuMDRjMCwxLjgyLDEuMzYsMy4xNywzLjE3LDMuMTdoMTYuMzFjMS4yMSwyLjU3LDMuNzgsNC4zOCw2LjgsNC4zOCAgYzQuMjMsMCw3LjU1LTMuMzIsNy41NS03LjU1QzQyLjg5LDM2LjU4LDM5LjQyLDMzLjI2LDM1LjM0LDMzLjI2eiIvPiYjeGE7PGcgaWQ9InNoYWRvdzQ0MDUtMTgiIHRyYW5zZm9ybT0idHJhbnNsYXRlKDAuMzQ1NTE0NTYsLTcyLjE2NjkpIj4mI3hhOwk8ZyBpZD0icGF0aDQ4ODc5IiBpbmtzY2FwZTpjb25uZWN0b3ItY3VydmF0dXJlPSIwIiBzdHlsZT0iZmlsdGVyOnVybCgjZmlsdGVyXzIpOyI+JiN4YTsJCTxwYXRoIHN0eWxlPSJvcGFjaXR5OjAuMjI7ZmlsbDojNUI5QkQ1OyIgZD0iTTcyLjUsNzQuMzJIMy4wMkMxLjM2LDc0LjMyLDAsNzUuNjgsMCw3Ny4zNXYxMS40N2g3NS41MlY3Ny4zNSAgICBDNzUuNTIsNzUuNjgsNzQuMTYsNzQuMzIsNzIuNSw3NC4zMnoiLz4mI3hhOwk8L2c+JiN4YTs8L2c+JiN4YTs8cGF0aCBpZD0icGF0aDQ4ODgyIiBpbmtzY2FwZTpjb25uZWN0b3ItY3VydmF0dXJlPSIwIiBzdHlsZT0iZmlsbDojQTBBMUEyOyIgZD0iTTcyLjUsMC4xOEgzLjAyQzEuMzYsMC4xOCwwLDEuNTQsMCwzLjIxdjExLjQ3ICBoNzUuNTJWMy4yMUM3NS41MiwxLjU0LDc0LjE2LDAuMTgsNzIuNSwwLjE4eiIvPiYjeGE7PGcgaWQ9InNoYWRvdzQ0MDYtMjMiIHRyYW5zZm9ybT0idHJhbnNsYXRlKDAuMzQ1NTE0NTYsLTIyLjMyMjMpIj4mI3hhOwk8ZyBpZD0icGF0aDQ4ODg3IiBpbmtzY2FwZTpjb25uZWN0b3ItY3VydmF0dXJlPSIwIiBzdHlsZT0iZmlsdGVyOnVybCgjZmlsdGVyXzIpOyI+JiN4YTsJCTxwYXRoIHN0eWxlPSJvcGFjaXR5OjAuMjI7ZmlsbDojNUI5QkQ1OyIgZD0iTTMuMDIsMjQuNDhDMS4zNiwyNC40OCwwLDI1Ljg0LDAsMjcuNXYxMS4wM3Y0Ljk4Vjg1LjhjMCwxLjY3LDEuMzYsMy4wMiwzLjAyLDMuMDIgICAgaDMuMzJsNTkuNTItNjQuMzRIMy4wMnoiLz4mI3hhOwk8L2c+JiN4YTs8L2c+JiN4YTs8cGF0aCBpZD0icGF0aDQ4ODkwIiBpbmtzY2FwZTpjb25uZWN0b3ItY3VydmF0dXJlPSIwIiBzdHlsZT0iZmlsbDojRkZGRkZGO2ZpbGwtb3BhY2l0eTowLjI7IiBkPSJNMy4wMiwwLjE4ICBDMS4zNiwwLjE4LDAsMS41NCwwLDMuMnYxMS4wM3Y0Ljk4VjYxLjVjMCwxLjY3LDEuMzYsMy4wMiwzLjAyLDMuMDJoMy4zMkw2NS44NiwwLjE4SDMuMDJ6Ii8+JiN4YTs8L3N2Zz4=;rounded=1;glass=0;comic=0;fontSize=20;fontColor=#0066CC;strokeWidth=1;gradientColor=none;" vertex="1" parent="7BHZPBbnNzFtBdcpdKT6-22">
          <mxGeometry x="180" y="205" width="76" height="65" as="geometry" />
        </mxCell>
        <mxCell id="7BHZPBbnNzFtBdcpdKT6-31" value="Geração &#xa;PDF" style="shape=image;verticalLabelPosition=bottom;labelBackgroundColor=#ffffff;verticalAlign=top;aspect=fixed;imageAspect=0;image=data:image/svg+xml,PHN2ZyB4bWxuczpjYz0iaHR0cDovL2NyZWF0aXZlY29tbW9ucy5vcmcvbnMjIiB4bWxuczpkYz0iaHR0cDovL3B1cmwub3JnL2RjL2VsZW1lbnRzLzEuMS8iIHhtbG5zOmlua3NjYXBlPSJodHRwOi8vd3d3Lmlua3NjYXBlLm9yZy9uYW1lc3BhY2VzL2lua3NjYXBlIiB4bWxuczpyZGY9Imh0dHA6Ly93d3cudzMub3JnLzE5OTkvMDIvMjItcmRmLXN5bnRheC1ucyMiIHhtbG5zOnNvZGlwb2RpPSJodHRwOi8vc29kaXBvZGkuc291cmNlZm9yZ2UubmV0L0RURC9zb2RpcG9kaS0wLmR0ZCIgeG1sbnM6c3ZnPSJodHRwOi8vd3d3LnczLm9yZy8yMDAwL3N2ZyIgeG1sbnM9Imh0dHA6Ly93d3cudzMub3JnLzIwMDAvc3ZnIiB4bWxuczp4bGluaz0iaHR0cDovL3d3dy53My5vcmcvMTk5OS94bGluayIgdmVyc2lvbj0iMS4xIiBpZD0ic3ZnNDg4OTYiIGlua3NjYXBlOnZlcnNpb249IjAuOTIuMyAoMjQwNTU0NiwgMjAxOC0wMy0xMSkiIHNvZGlwb2RpOmRvY25hbWU9ImFwaV9hcHBzLnN2ZyIgeD0iMHB4IiB5PSIwcHgiIHZpZXdCb3g9IjAgMCA3NS41MiA2NC41MiIgc3R5bGU9ImVuYWJsZS1iYWNrZ3JvdW5kOm5ldyAwIDAgNzUuNTIgNjQuNTI7IiB4bWw6c3BhY2U9InByZXNlcnZlIj4mI3hhOzxmaWx0ZXIgaWQ9ImZpbHRlcl8yIj4mI3hhOwk8ZmVHYXVzc2lhbkJsdXIgaWQ9ImZlR2F1c3NpYW5CbHVyNDg4NDUiIHN0ZERldmlhdGlvbj0iMiIvPiYjeGE7PC9maWx0ZXI+JiN4YTs8c29kaXBvZGk6bmFtZWR2aWV3IGJvcmRlcmNvbG9yPSIjNjY2NjY2IiBib3JkZXJvcGFjaXR5PSIxIiBmaXQtbWFyZ2luLWJvdHRvbT0iMCIgZml0LW1hcmdpbi1sZWZ0PSIwIiBmaXQtbWFyZ2luLXJpZ2h0PSIwIiBmaXQtbWFyZ2luLXRvcD0iMCIgZ3JpZHRvbGVyYW5jZT0iMTAiIGd1aWRldG9sZXJhbmNlPSIxMCIgaWQ9Im5hbWVkdmlldzQ4ODk4IiBpbmtzY2FwZTpjdXJyZW50LWxheWVyPSJzdmc0ODg5NiIgaW5rc2NhcGU6Y3g9IjU3LjkzMjgyOCIgaW5rc2NhcGU6Y3k9IjUwLjYxMzU1MSIgaW5rc2NhcGU6cGFnZW9wYWNpdHk9IjAiIGlua3NjYXBlOnBhZ2VzaGFkb3c9IjIiIGlua3NjYXBlOndpbmRvdy1oZWlnaHQ9IjEwMTciIGlua3NjYXBlOndpbmRvdy1tYXhpbWl6ZWQ9IjEiIGlua3NjYXBlOndpbmRvdy13aWR0aD0iMTkyMCIgaW5rc2NhcGU6d2luZG93LXg9Ii04IiBpbmtzY2FwZTp3aW5kb3cteT0iLTgiIGlua3NjYXBlOnpvb209IjUuMTc2NDI5OSIgb2JqZWN0dG9sZXJhbmNlPSIxMCIgcGFnZWNvbG9yPSIjZmZmZmZmIiBzaG93Z3JpZD0iZmFsc2UiPiYjeGE7CTwvc29kaXBvZGk6bmFtZWR2aWV3PiYjeGE7PGcgaWQ9InNoYWRvdzQ0MDItMyIgdHJhbnNmb3JtPSJ0cmFuc2xhdGUoMC4zNDU1MTQ1NiwtMjIuMzIyMykiPiYjeGE7CTxnIGlkPSJwYXRoNDg4NTUiIGlua3NjYXBlOmNvbm5lY3Rvci1jdXJ2YXR1cmU9IjAiIHN0eWxlPSJmaWx0ZXI6dXJsKCNmaWx0ZXJfMik7Ij4mI3hhOwkJPHBhdGggc3R5bGU9Im9wYWNpdHk6MC4yMjtmaWxsOiM1QjlCRDU7IiBkPSJNMCw4NS44YzAsMS42NywxLjM2LDMuMDIsMy4wMiwzLjAySDcyLjVjMS42NiwwLDMuMDItMS4zNSwzLjAyLTMuMDJWMzguNTNIMFY4NS44eiIvPiYjeGE7CTwvZz4mI3hhOzwvZz4mI3hhOzxwYXRoIGlkPSJwYXRoNDg4NTgiIGlua3NjYXBlOmNvbm5lY3Rvci1jdXJ2YXR1cmU9IjAiIHN0eWxlPSJmaWxsOiM1OUI0RDk7IiBkPSJNMCw2MS41YzAsMS42NywxLjM2LDMuMDIsMy4wMiwzLjAySDcyLjUgIGMxLjY2LDAsMy4wMi0xLjM1LDMuMDItMy4wMlYxNC4yM0gwVjYxLjV6Ii8+JiN4YTs8ZyBpZD0ic2hhZG93NDQwMy04IiB0cmFuc2Zvcm09InRyYW5zbGF0ZSgyMS4wMzg2MTUsLTI2LjcwMjU4KSI+JiN4YTsJPGcgaWQ9InBhdGg0ODg2MyIgaW5rc2NhcGU6Y29ubmVjdG9yLWN1cnZhdHVyZT0iMCIgc3R5bGU9ImZpbHRlcjp1cmwoI2ZpbHRlcl8yKTsiPiYjeGE7CQk8cGF0aCBzdHlsZT0ib3BhY2l0eTowLjIyO2ZpbGw6IzVCOUJENTsiIGQ9Ik00NS43NywzNC40NWMwLTEuODEtMS4zNi0zLjE3LTMuMTgtMy4xN2MtMS44MSwwLTMuMTcsMS4zNi0zLjE3LDMuMTd2MzEuODdoLTYuMTkgICAgYy0wLjYtMy42My0yLjQyLTcuMS01LjE0LTkuOTdjLTMuNjItMy42Mi04LjMtNS41OS0xMy40NC01LjU5Yy00Ljk4LDAtOS44MiwxLjk3LTEzLjQ0LDUuNTlDMCw1Ny41NiwwLDU5LjUyLDEuMjEsNjAuODggICAgYzEuMjEsMS4yMSwzLjE3LDEuMjEsNC41MywwYzIuNDItMi40Miw1LjU5LTMuNjIsOC45MS0zLjYyczYuNSwxLjM2LDguOTEsMy42MmM0Ljk5LDQuOTksNC45OSwxMi45OSwwLDE3LjgyICAgIGMtMi40MSwyLjQyLTUuNTksMy42My04LjkxLDMuNjNzLTYuNDktMS4zNi04LjkxLTMuNjNjLTEuMjEtMS4yLTMuMTctMS4yLTQuNTMsMEMwLDc5LjkxLDAsODEuODgsMS4yMSw4My4yNCAgICBjMy42MiwzLjYyLDguMzEsNS41OCwxMy40NCw1LjU4YzQuOTksMCw5LjgyLTEuOTYsMTMuNDQtNS41OGMzLjAzLTMuMDIsNC42OS02LjY1LDUuMjktMTAuNThoOS4yMWMxLjgyLDAsMy4xOC0xLjM2LDMuMTgtMy4xNyAgICBWMzQuNDV6Ii8+JiN4YTsJPC9nPiYjeGE7PC9nPiYjeGE7PHBhdGggaWQ9InBhdGg0ODg2NiIgaW5rc2NhcGU6Y29ubmVjdG9yLWN1cnZhdHVyZT0iMCIgc3R5bGU9ImZpbGw6I0ZGRkZGRjsiIGQ9Ik02Ni40Niw1Ljc3YzAtMS44MS0xLjM2LTMuMTctMy4xOC0zLjE3ICBjLTEuODEsMC0zLjE3LDEuMzYtMy4xNywzLjE3djMxLjg3aC02LjE5Yy0wLjYtMy42My0yLjQyLTcuMS01LjE0LTkuOTdjLTMuNjItMy42Mi04LjMtNS41OS0xMy40NC01LjU5ICBjLTQuOTgsMC05LjgyLDEuOTctMTMuNDQsNS41OWMtMS4yMSwxLjIxLTEuMjEsMy4xNywwLDQuNTNjMS4yMSwxLjIxLDMuMTcsMS4yMSw0LjUzLDBjMi40Mi0yLjQyLDUuNTktMy42Miw4LjkxLTMuNjIgIHM2LjUsMS4zNiw4LjkxLDMuNjJjNC45OSw0Ljk5LDQuOTksMTIuOTksMCwxNy44MmMtMi40MSwyLjQyLTUuNTksMy42My04LjkxLDMuNjNzLTYuNDktMS4zNi04LjkxLTMuNjNjLTEuMjEtMS4yLTMuMTctMS4yLTQuNTMsMCAgYy0xLjIxLDEuMjEtMS4yMSwzLjE4LDAsNC41NGMzLjYyLDMuNjIsOC4zMSw1LjU4LDEzLjQ0LDUuNThjNC45OSwwLDkuODItMS45NiwxMy40NC01LjU4YzMuMDMtMy4wMiw0LjY5LTYuNjUsNS4yOS0xMC41OGg5LjIxICBjMS44MiwwLDMuMTgtMS4zNiwzLjE4LTMuMTdWNS43N3oiLz4mI3hhOzxnIGlkPSJzaGFkb3c0NDA0LTEzIiB0cmFuc2Zvcm09InRyYW5zbGF0ZSg5LjU1OTIxNDYsLTM4LjQ4NCkiPiYjeGE7CTxnIGlkPSJwYXRoNDg4NzEiIGlua3NjYXBlOmNvbm5lY3Rvci1jdXJ2YXR1cmU9IjAiIHN0eWxlPSJmaWx0ZXI6dXJsKCNmaWx0ZXJfMik7Ij4mI3hhOwkJPHBhdGggc3R5bGU9Im9wYWNpdHk6MC4yMjtmaWxsOiM1QjlCRDU7IiBkPSJNMjYuMTMsNzMuNzJjLTMuMDIsMC01LjU5LDEuODEtNi44LDQuMzhINi4xOVY0Ni4yM2MwLTEuODEtMS4zNi0zLjE3LTMuMTctMy4xNyAgICBDMS4zNiw0My4wNiwwLDQ0LjU3LDAsNDYuMjN2MzUuMDRjMCwxLjgyLDEuMzYsMy4xNywzLjE3LDMuMTdoMTYuMzFjMS4yMSwyLjU3LDMuNzgsNC4zOCw2LjgsNC4zOGM0LjIzLDAsNy41NS0zLjMyLDcuNTUtNy41NSAgICBDMzMuNjgsNzcuMDQsMzAuMjEsNzMuNzIsMjYuMTMsNzMuNzJ6Ii8+JiN4YTsJPC9nPiYjeGE7PC9nPiYjeGE7PHBhdGggaWQ9InBhdGg0ODg3NCIgaW5rc2NhcGU6Y29ubmVjdG9yLWN1cnZhdHVyZT0iMCIgc3R5bGU9ImZpbGw6I0ZGRkZGRjsiIGQ9Ik0zNS4zNCwzMy4yNmMtMy4wMiwwLTUuNTksMS44MS02LjgsNC4zOEgxNS40VjUuNzcgIGMwLTEuODEtMS4zNi0zLjE3LTMuMTctMy4xN2MtMS42NiwwLTMuMDIsMS41MS0zLjAyLDMuMTd2MzUuMDRjMCwxLjgyLDEuMzYsMy4xNywzLjE3LDMuMTdoMTYuMzFjMS4yMSwyLjU3LDMuNzgsNC4zOCw2LjgsNC4zOCAgYzQuMjMsMCw3LjU1LTMuMzIsNy41NS03LjU1QzQyLjg5LDM2LjU4LDM5LjQyLDMzLjI2LDM1LjM0LDMzLjI2eiIvPiYjeGE7PGcgaWQ9InNoYWRvdzQ0MDUtMTgiIHRyYW5zZm9ybT0idHJhbnNsYXRlKDAuMzQ1NTE0NTYsLTcyLjE2NjkpIj4mI3hhOwk8ZyBpZD0icGF0aDQ4ODc5IiBpbmtzY2FwZTpjb25uZWN0b3ItY3VydmF0dXJlPSIwIiBzdHlsZT0iZmlsdGVyOnVybCgjZmlsdGVyXzIpOyI+JiN4YTsJCTxwYXRoIHN0eWxlPSJvcGFjaXR5OjAuMjI7ZmlsbDojNUI5QkQ1OyIgZD0iTTcyLjUsNzQuMzJIMy4wMkMxLjM2LDc0LjMyLDAsNzUuNjgsMCw3Ny4zNXYxMS40N2g3NS41MlY3Ny4zNSAgICBDNzUuNTIsNzUuNjgsNzQuMTYsNzQuMzIsNzIuNSw3NC4zMnoiLz4mI3hhOwk8L2c+JiN4YTs8L2c+JiN4YTs8cGF0aCBpZD0icGF0aDQ4ODgyIiBpbmtzY2FwZTpjb25uZWN0b3ItY3VydmF0dXJlPSIwIiBzdHlsZT0iZmlsbDojQTBBMUEyOyIgZD0iTTcyLjUsMC4xOEgzLjAyQzEuMzYsMC4xOCwwLDEuNTQsMCwzLjIxdjExLjQ3ICBoNzUuNTJWMy4yMUM3NS41MiwxLjU0LDc0LjE2LDAuMTgsNzIuNSwwLjE4eiIvPiYjeGE7PGcgaWQ9InNoYWRvdzQ0MDYtMjMiIHRyYW5zZm9ybT0idHJhbnNsYXRlKDAuMzQ1NTE0NTYsLTIyLjMyMjMpIj4mI3hhOwk8ZyBpZD0icGF0aDQ4ODg3IiBpbmtzY2FwZTpjb25uZWN0b3ItY3VydmF0dXJlPSIwIiBzdHlsZT0iZmlsdGVyOnVybCgjZmlsdGVyXzIpOyI+JiN4YTsJCTxwYXRoIHN0eWxlPSJvcGFjaXR5OjAuMjI7ZmlsbDojNUI5QkQ1OyIgZD0iTTMuMDIsMjQuNDhDMS4zNiwyNC40OCwwLDI1Ljg0LDAsMjcuNXYxMS4wM3Y0Ljk4Vjg1LjhjMCwxLjY3LDEuMzYsMy4wMiwzLjAyLDMuMDIgICAgaDMuMzJsNTkuNTItNjQuMzRIMy4wMnoiLz4mI3hhOwk8L2c+JiN4YTs8L2c+JiN4YTs8cGF0aCBpZD0icGF0aDQ4ODkwIiBpbmtzY2FwZTpjb25uZWN0b3ItY3VydmF0dXJlPSIwIiBzdHlsZT0iZmlsbDojRkZGRkZGO2ZpbGwtb3BhY2l0eTowLjI7IiBkPSJNMy4wMiwwLjE4ICBDMS4zNiwwLjE4LDAsMS41NCwwLDMuMnYxMS4wM3Y0Ljk4VjYxLjVjMCwxLjY3LDEuMzYsMy4wMiwzLjAyLDMuMDJoMy4zMkw2NS44NiwwLjE4SDMuMDJ6Ii8+JiN4YTs8L3N2Zz4=;rounded=1;glass=0;comic=0;fontSize=20;fontColor=#0066CC;strokeWidth=1;gradientColor=none;" vertex="1" parent="7BHZPBbnNzFtBdcpdKT6-22">
          <mxGeometry x="310" y="205" width="76" height="65" as="geometry" />
        </mxCell>
        <mxCell id="7BHZPBbnNzFtBdcpdKT6-32" value="Geração &#xa;PDF" style="shape=image;verticalLabelPosition=bottom;labelBackgroundColor=#ffffff;verticalAlign=top;aspect=fixed;imageAspect=0;image=data:image/svg+xml,PHN2ZyB4bWxuczpjYz0iaHR0cDovL2NyZWF0aXZlY29tbW9ucy5vcmcvbnMjIiB4bWxuczpkYz0iaHR0cDovL3B1cmwub3JnL2RjL2VsZW1lbnRzLzEuMS8iIHhtbG5zOmlua3NjYXBlPSJodHRwOi8vd3d3Lmlua3NjYXBlLm9yZy9uYW1lc3BhY2VzL2lua3NjYXBlIiB4bWxuczpyZGY9Imh0dHA6Ly93d3cudzMub3JnLzE5OTkvMDIvMjItcmRmLXN5bnRheC1ucyMiIHhtbG5zOnNvZGlwb2RpPSJodHRwOi8vc29kaXBvZGkuc291cmNlZm9yZ2UubmV0L0RURC9zb2RpcG9kaS0wLmR0ZCIgeG1sbnM6c3ZnPSJodHRwOi8vd3d3LnczLm9yZy8yMDAwL3N2ZyIgeG1sbnM9Imh0dHA6Ly93d3cudzMub3JnLzIwMDAvc3ZnIiB4bWxuczp4bGluaz0iaHR0cDovL3d3dy53My5vcmcvMTk5OS94bGluayIgdmVyc2lvbj0iMS4xIiBpZD0ic3ZnNDg4OTYiIGlua3NjYXBlOnZlcnNpb249IjAuOTIuMyAoMjQwNTU0NiwgMjAxOC0wMy0xMSkiIHNvZGlwb2RpOmRvY25hbWU9ImFwaV9hcHBzLnN2ZyIgeD0iMHB4IiB5PSIwcHgiIHZpZXdCb3g9IjAgMCA3NS41MiA2NC41MiIgc3R5bGU9ImVuYWJsZS1iYWNrZ3JvdW5kOm5ldyAwIDAgNzUuNTIgNjQuNTI7IiB4bWw6c3BhY2U9InByZXNlcnZlIj4mI3hhOzxmaWx0ZXIgaWQ9ImZpbHRlcl8yIj4mI3hhOwk8ZmVHYXVzc2lhbkJsdXIgaWQ9ImZlR2F1c3NpYW5CbHVyNDg4NDUiIHN0ZERldmlhdGlvbj0iMiIvPiYjeGE7PC9maWx0ZXI+JiN4YTs8c29kaXBvZGk6bmFtZWR2aWV3IGJvcmRlcmNvbG9yPSIjNjY2NjY2IiBib3JkZXJvcGFjaXR5PSIxIiBmaXQtbWFyZ2luLWJvdHRvbT0iMCIgZml0LW1hcmdpbi1sZWZ0PSIwIiBmaXQtbWFyZ2luLXJpZ2h0PSIwIiBmaXQtbWFyZ2luLXRvcD0iMCIgZ3JpZHRvbGVyYW5jZT0iMTAiIGd1aWRldG9sZXJhbmNlPSIxMCIgaWQ9Im5hbWVkdmlldzQ4ODk4IiBpbmtzY2FwZTpjdXJyZW50LWxheWVyPSJzdmc0ODg5NiIgaW5rc2NhcGU6Y3g9IjU3LjkzMjgyOCIgaW5rc2NhcGU6Y3k9IjUwLjYxMzU1MSIgaW5rc2NhcGU6cGFnZW9wYWNpdHk9IjAiIGlua3NjYXBlOnBhZ2VzaGFkb3c9IjIiIGlua3NjYXBlOndpbmRvdy1oZWlnaHQ9IjEwMTciIGlua3NjYXBlOndpbmRvdy1tYXhpbWl6ZWQ9IjEiIGlua3NjYXBlOndpbmRvdy13aWR0aD0iMTkyMCIgaW5rc2NhcGU6d2luZG93LXg9Ii04IiBpbmtzY2FwZTp3aW5kb3cteT0iLTgiIGlua3NjYXBlOnpvb209IjUuMTc2NDI5OSIgb2JqZWN0dG9sZXJhbmNlPSIxMCIgcGFnZWNvbG9yPSIjZmZmZmZmIiBzaG93Z3JpZD0iZmFsc2UiPiYjeGE7CTwvc29kaXBvZGk6bmFtZWR2aWV3PiYjeGE7PGcgaWQ9InNoYWRvdzQ0MDItMyIgdHJhbnNmb3JtPSJ0cmFuc2xhdGUoMC4zNDU1MTQ1NiwtMjIuMzIyMykiPiYjeGE7CTxnIGlkPSJwYXRoNDg4NTUiIGlua3NjYXBlOmNvbm5lY3Rvci1jdXJ2YXR1cmU9IjAiIHN0eWxlPSJmaWx0ZXI6dXJsKCNmaWx0ZXJfMik7Ij4mI3hhOwkJPHBhdGggc3R5bGU9Im9wYWNpdHk6MC4yMjtmaWxsOiM1QjlCRDU7IiBkPSJNMCw4NS44YzAsMS42NywxLjM2LDMuMDIsMy4wMiwzLjAySDcyLjVjMS42NiwwLDMuMDItMS4zNSwzLjAyLTMuMDJWMzguNTNIMFY4NS44eiIvPiYjeGE7CTwvZz4mI3hhOzwvZz4mI3hhOzxwYXRoIGlkPSJwYXRoNDg4NTgiIGlua3NjYXBlOmNvbm5lY3Rvci1jdXJ2YXR1cmU9IjAiIHN0eWxlPSJmaWxsOiM1OUI0RDk7IiBkPSJNMCw2MS41YzAsMS42NywxLjM2LDMuMDIsMy4wMiwzLjAySDcyLjUgIGMxLjY2LDAsMy4wMi0xLjM1LDMuMDItMy4wMlYxNC4yM0gwVjYxLjV6Ii8+JiN4YTs8ZyBpZD0ic2hhZG93NDQwMy04IiB0cmFuc2Zvcm09InRyYW5zbGF0ZSgyMS4wMzg2MTUsLTI2LjcwMjU4KSI+JiN4YTsJPGcgaWQ9InBhdGg0ODg2MyIgaW5rc2NhcGU6Y29ubmVjdG9yLWN1cnZhdHVyZT0iMCIgc3R5bGU9ImZpbHRlcjp1cmwoI2ZpbHRlcl8yKTsiPiYjeGE7CQk8cGF0aCBzdHlsZT0ib3BhY2l0eTowLjIyO2ZpbGw6IzVCOUJENTsiIGQ9Ik00NS43NywzNC40NWMwLTEuODEtMS4zNi0zLjE3LTMuMTgtMy4xN2MtMS44MSwwLTMuMTcsMS4zNi0zLjE3LDMuMTd2MzEuODdoLTYuMTkgICAgYy0wLjYtMy42My0yLjQyLTcuMS01LjE0LTkuOTdjLTMuNjItMy42Mi04LjMtNS41OS0xMy40NC01LjU5Yy00Ljk4LDAtOS44MiwxLjk3LTEzLjQ0LDUuNTlDMCw1Ny41NiwwLDU5LjUyLDEuMjEsNjAuODggICAgYzEuMjEsMS4yMSwzLjE3LDEuMjEsNC41MywwYzIuNDItMi40Miw1LjU5LTMuNjIsOC45MS0zLjYyczYuNSwxLjM2LDguOTEsMy42MmM0Ljk5LDQuOTksNC45OSwxMi45OSwwLDE3LjgyICAgIGMtMi40MSwyLjQyLTUuNTksMy42My04LjkxLDMuNjNzLTYuNDktMS4zNi04LjkxLTMuNjNjLTEuMjEtMS4yLTMuMTctMS4yLTQuNTMsMEMwLDc5LjkxLDAsODEuODgsMS4yMSw4My4yNCAgICBjMy42MiwzLjYyLDguMzEsNS41OCwxMy40NCw1LjU4YzQuOTksMCw5LjgyLTEuOTYsMTMuNDQtNS41OGMzLjAzLTMuMDIsNC42OS02LjY1LDUuMjktMTAuNThoOS4yMWMxLjgyLDAsMy4xOC0xLjM2LDMuMTgtMy4xNyAgICBWMzQuNDV6Ii8+JiN4YTsJPC9nPiYjeGE7PC9nPiYjeGE7PHBhdGggaWQ9InBhdGg0ODg2NiIgaW5rc2NhcGU6Y29ubmVjdG9yLWN1cnZhdHVyZT0iMCIgc3R5bGU9ImZpbGw6I0ZGRkZGRjsiIGQ9Ik02Ni40Niw1Ljc3YzAtMS44MS0xLjM2LTMuMTctMy4xOC0zLjE3ICBjLTEuODEsMC0zLjE3LDEuMzYtMy4xNywzLjE3djMxLjg3aC02LjE5Yy0wLjYtMy42My0yLjQyLTcuMS01LjE0LTkuOTdjLTMuNjItMy42Mi04LjMtNS41OS0xMy40NC01LjU5ICBjLTQuOTgsMC05LjgyLDEuOTctMTMuNDQsNS41OWMtMS4yMSwxLjIxLTEuMjEsMy4xNywwLDQuNTNjMS4yMSwxLjIxLDMuMTcsMS4yMSw0LjUzLDBjMi40Mi0yLjQyLDUuNTktMy42Miw4LjkxLTMuNjIgIHM2LjUsMS4zNiw4LjkxLDMuNjJjNC45OSw0Ljk5LDQuOTksMTIuOTksMCwxNy44MmMtMi40MSwyLjQyLTUuNTksMy42My04LjkxLDMuNjNzLTYuNDktMS4zNi04LjkxLTMuNjNjLTEuMjEtMS4yLTMuMTctMS4yLTQuNTMsMCAgYy0xLjIxLDEuMjEtMS4yMSwzLjE4LDAsNC41NGMzLjYyLDMuNjIsOC4zMSw1LjU4LDEzLjQ0LDUuNThjNC45OSwwLDkuODItMS45NiwxMy40NC01LjU4YzMuMDMtMy4wMiw0LjY5LTYuNjUsNS4yOS0xMC41OGg5LjIxICBjMS44MiwwLDMuMTgtMS4zNiwzLjE4LTMuMTdWNS43N3oiLz4mI3hhOzxnIGlkPSJzaGFkb3c0NDA0LTEzIiB0cmFuc2Zvcm09InRyYW5zbGF0ZSg5LjU1OTIxNDYsLTM4LjQ4NCkiPiYjeGE7CTxnIGlkPSJwYXRoNDg4NzEiIGlua3NjYXBlOmNvbm5lY3Rvci1jdXJ2YXR1cmU9IjAiIHN0eWxlPSJmaWx0ZXI6dXJsKCNmaWx0ZXJfMik7Ij4mI3hhOwkJPHBhdGggc3R5bGU9Im9wYWNpdHk6MC4yMjtmaWxsOiM1QjlCRDU7IiBkPSJNMjYuMTMsNzMuNzJjLTMuMDIsMC01LjU5LDEuODEtNi44LDQuMzhINi4xOVY0Ni4yM2MwLTEuODEtMS4zNi0zLjE3LTMuMTctMy4xNyAgICBDMS4zNiw0My4wNiwwLDQ0LjU3LDAsNDYuMjN2MzUuMDRjMCwxLjgyLDEuMzYsMy4xNywzLjE3LDMuMTdoMTYuMzFjMS4yMSwyLjU3LDMuNzgsNC4zOCw2LjgsNC4zOGM0LjIzLDAsNy41NS0zLjMyLDcuNTUtNy41NSAgICBDMzMuNjgsNzcuMDQsMzAuMjEsNzMuNzIsMjYuMTMsNzMuNzJ6Ii8+JiN4YTsJPC9nPiYjeGE7PC9nPiYjeGE7PHBhdGggaWQ9InBhdGg0ODg3NCIgaW5rc2NhcGU6Y29ubmVjdG9yLWN1cnZhdHVyZT0iMCIgc3R5bGU9ImZpbGw6I0ZGRkZGRjsiIGQ9Ik0zNS4zNCwzMy4yNmMtMy4wMiwwLTUuNTksMS44MS02LjgsNC4zOEgxNS40VjUuNzcgIGMwLTEuODEtMS4zNi0zLjE3LTMuMTctMy4xN2MtMS42NiwwLTMuMDIsMS41MS0zLjAyLDMuMTd2MzUuMDRjMCwxLjgyLDEuMzYsMy4xNywzLjE3LDMuMTdoMTYuMzFjMS4yMSwyLjU3LDMuNzgsNC4zOCw2LjgsNC4zOCAgYzQuMjMsMCw3LjU1LTMuMzIsNy41NS03LjU1QzQyLjg5LDM2LjU4LDM5LjQyLDMzLjI2LDM1LjM0LDMzLjI2eiIvPiYjeGE7PGcgaWQ9InNoYWRvdzQ0MDUtMTgiIHRyYW5zZm9ybT0idHJhbnNsYXRlKDAuMzQ1NTE0NTYsLTcyLjE2NjkpIj4mI3hhOwk8ZyBpZD0icGF0aDQ4ODc5IiBpbmtzY2FwZTpjb25uZWN0b3ItY3VydmF0dXJlPSIwIiBzdHlsZT0iZmlsdGVyOnVybCgjZmlsdGVyXzIpOyI+JiN4YTsJCTxwYXRoIHN0eWxlPSJvcGFjaXR5OjAuMjI7ZmlsbDojNUI5QkQ1OyIgZD0iTTcyLjUsNzQuMzJIMy4wMkMxLjM2LDc0LjMyLDAsNzUuNjgsMCw3Ny4zNXYxMS40N2g3NS41MlY3Ny4zNSAgICBDNzUuNTIsNzUuNjgsNzQuMTYsNzQuMzIsNzIuNSw3NC4zMnoiLz4mI3hhOwk8L2c+JiN4YTs8L2c+JiN4YTs8cGF0aCBpZD0icGF0aDQ4ODgyIiBpbmtzY2FwZTpjb25uZWN0b3ItY3VydmF0dXJlPSIwIiBzdHlsZT0iZmlsbDojQTBBMUEyOyIgZD0iTTcyLjUsMC4xOEgzLjAyQzEuMzYsMC4xOCwwLDEuNTQsMCwzLjIxdjExLjQ3ICBoNzUuNTJWMy4yMUM3NS41MiwxLjU0LDc0LjE2LDAuMTgsNzIuNSwwLjE4eiIvPiYjeGE7PGcgaWQ9InNoYWRvdzQ0MDYtMjMiIHRyYW5zZm9ybT0idHJhbnNsYXRlKDAuMzQ1NTE0NTYsLTIyLjMyMjMpIj4mI3hhOwk8ZyBpZD0icGF0aDQ4ODg3IiBpbmtzY2FwZTpjb25uZWN0b3ItY3VydmF0dXJlPSIwIiBzdHlsZT0iZmlsdGVyOnVybCgjZmlsdGVyXzIpOyI+JiN4YTsJCTxwYXRoIHN0eWxlPSJvcGFjaXR5OjAuMjI7ZmlsbDojNUI5QkQ1OyIgZD0iTTMuMDIsMjQuNDhDMS4zNiwyNC40OCwwLDI1Ljg0LDAsMjcuNXYxMS4wM3Y0Ljk4Vjg1LjhjMCwxLjY3LDEuMzYsMy4wMiwzLjAyLDMuMDIgICAgaDMuMzJsNTkuNTItNjQuMzRIMy4wMnoiLz4mI3hhOwk8L2c+JiN4YTs8L2c+JiN4YTs8cGF0aCBpZD0icGF0aDQ4ODkwIiBpbmtzY2FwZTpjb25uZWN0b3ItY3VydmF0dXJlPSIwIiBzdHlsZT0iZmlsbDojRkZGRkZGO2ZpbGwtb3BhY2l0eTowLjI7IiBkPSJNMy4wMiwwLjE4ICBDMS4zNiwwLjE4LDAsMS41NCwwLDMuMnYxMS4wM3Y0Ljk4VjYxLjVjMCwxLjY3LDEuMzYsMy4wMiwzLjAyLDMuMDJoMy4zMkw2NS44NiwwLjE4SDMuMDJ6Ii8+JiN4YTs8L3N2Zz4=;rounded=1;glass=0;comic=0;fontSize=20;fontColor=#0066CC;strokeWidth=1;gradientColor=none;" vertex="1" parent="7BHZPBbnNzFtBdcpdKT6-22">
          <mxGeometry x="432.1400000000001" y="205" width="76" height="65" as="geometry" />
        </mxCell>
      </root>
    </mxGraphModel>
  </diagram>
</mxfile>
